<?xml version="1.0" encoding="UTF-8" standalone="no"?>
<!-- Created with Inkscape (http://www.inkscape.org/) -->
<svg xmlns:dc="http://purl.org/dc/elements/1.1/" xmlns:cc="http://creativecommons.org/ns#" xmlns:rdf="http://www.w3.org/1999/02/22-rdf-syntax-ns#" xmlns:svg="http://www.w3.org/2000/svg" xmlns="http://www.w3.org/2000/svg" xmlns:sodipodi="http://sodipodi.sourceforge.net/DTD/sodipodi-0.dtd" xmlns:inkscape="http://www.inkscape.org/namespaces/inkscape" width="354.33069" height="407.48032" id="svg2" version="1.1" inkscape:version="0.47 r22583" sodipodi:docname="Zeichnung.svg">
  <defs id="defs4">
    <inkscape:perspective sodipodi:type="inkscape:persp3d" inkscape:vp_x="0 : 526.18109 : 1" inkscape:vp_y="0 : 1000 : 0" inkscape:vp_z="744.09448 : 526.18109 : 1" inkscape:persp3d-origin="372.04724 : 350.78739 : 1" id="perspective10"/>
    <inkscape:perspective id="perspective3611" inkscape:persp3d-origin="0.5 : 0.33333333 : 1" inkscape:vp_z="1 : 0.5 : 1" inkscape:vp_y="0 : 1000 : 0" inkscape:vp_x="0 : 0.5 : 1" sodipodi:type="inkscape:persp3d"/>
    <inkscape:perspective id="perspective3611-8" inkscape:persp3d-origin="0.5 : 0.33333333 : 1" inkscape:vp_z="1 : 0.5 : 1" inkscape:vp_y="0 : 1000 : 0" inkscape:vp_x="0 : 0.5 : 1" sodipodi:type="inkscape:persp3d"/>
    <inkscape:perspective id="perspective3611-7" inkscape:persp3d-origin="0.5 : 0.33333333 : 1" inkscape:vp_z="1 : 0.5 : 1" inkscape:vp_y="0 : 1000 : 0" inkscape:vp_x="0 : 0.5 : 1" sodipodi:type="inkscape:persp3d"/>
    <inkscape:perspective id="perspective3611-4" inkscape:persp3d-origin="0.5 : 0.33333333 : 1" inkscape:vp_z="1 : 0.5 : 1" inkscape:vp_y="0 : 1000 : 0" inkscape:vp_x="0 : 0.5 : 1" sodipodi:type="inkscape:persp3d"/>
    <inkscape:perspective id="perspective3611-83" inkscape:persp3d-origin="0.5 : 0.33333333 : 1" inkscape:vp_z="1 : 0.5 : 1" inkscape:vp_y="0 : 1000 : 0" inkscape:vp_x="0 : 0.5 : 1" sodipodi:type="inkscape:persp3d"/>
    <inkscape:perspective id="perspective3611-9" inkscape:persp3d-origin="0.5 : 0.33333333 : 1" inkscape:vp_z="1 : 0.5 : 1" inkscape:vp_y="0 : 1000 : 0" inkscape:vp_x="0 : 0.5 : 1" sodipodi:type="inkscape:persp3d"/>
    <inkscape:perspective id="perspective3611-73" inkscape:persp3d-origin="0.5 : 0.33333333 : 1" inkscape:vp_z="1 : 0.5 : 1" inkscape:vp_y="0 : 1000 : 0" inkscape:vp_x="0 : 0.5 : 1" sodipodi:type="inkscape:persp3d"/>
    <inkscape:perspective id="perspective3766" inkscape:persp3d-origin="0.5 : 0.33333333 : 1" inkscape:vp_z="1 : 0.5 : 1" inkscape:vp_y="0 : 1000 : 0" inkscape:vp_x="0 : 0.5 : 1" sodipodi:type="inkscape:persp3d"/>
    <inkscape:perspective id="perspective3766-8" inkscape:persp3d-origin="0.5 : 0.33333333 : 1" inkscape:vp_z="1 : 0.5 : 1" inkscape:vp_y="0 : 1000 : 0" inkscape:vp_x="0 : 0.5 : 1" sodipodi:type="inkscape:persp3d"/>
  </defs>
  <sodipodi:namedview id="base" pagecolor="#ffffff" bordercolor="#666666" borderopacity="1.0" inkscape:pageopacity="0.0" inkscape:pageshadow="2" inkscape:zoom="1.1203924" inkscape:cx="324.5751" inkscape:cy="128.84953" inkscape:document-units="px" inkscape:current-layer="layer3" showgrid="true" inkscape:snap-global="true" inkscape:window-width="1280" inkscape:window-height="949" inkscape:window-x="0" inkscape:window-y="24" inkscape:window-maximized="1">
    <inkscape:grid type="xygrid" id="grid2816" empspacing="5" visible="true" enabled="false" snapvisiblegridlinesonly="true" units="cm" spacingx="0.5cm" spacingy="0.5cm"/>
  </sodipodi:namedview>
  <metadata id="metadata7">
    <rdf:RDF>
      <cc:Work rdf:about="">
        <dc:format>image/svg+xml</dc:format>
        <dc:type rdf:resource="http://purl.org/dc/dcmitype/StillImage"/>
        <dc:title/>
      </cc:Work>
    </rdf:RDF>
  </metadata>
  <g inkscape:label="lines" inkscape:groupmode="layer" id="layer1" transform="translate(-177.16536,-42.519665)" sodipodi:insensitive="true">
    <path style="fill:none;stroke:#000000;stroke-width:1.5;stroke-linecap:butt;stroke-linejoin:miter;stroke-miterlimit:4;stroke-opacity:1;stroke-dasharray:none" d="m 354.33071,414.56691 0,-70.86614" id="path2818"/>
    <path style="fill:none;stroke:#000000;stroke-width:1.5;stroke-linecap:butt;stroke-linejoin:miter;stroke-miterlimit:4;stroke-opacity:1;stroke-dasharray:none" d="m 283.46457,343.70077 70.86614,70.86614" id="path2820"/>
    <path style="fill:none;stroke:#000000;stroke-width:1.5;stroke-linecap:butt;stroke-linejoin:miter;stroke-miterlimit:4;stroke-opacity:1;stroke-dasharray:none" d="m 212.59843,343.70077 141.73228,70.86614" id="path2822"/>
    <path style="fill:none;stroke:#000000;stroke-width:1.5;stroke-linecap:butt;stroke-linejoin:miter;stroke-miterlimit:4;stroke-opacity:1;stroke-dasharray:none" d="m 425.19685,343.70077 -70.86614,70.86614" id="path2824"/>
    <path style="fill:none;stroke:#000000;stroke-width:1.5;stroke-linecap:butt;stroke-linejoin:miter;stroke-miterlimit:4;stroke-opacity:1;stroke-dasharray:none;stroke-dashoffset:0" d="M 496.06299,343.70077 354.33071,414.56691" id="path2826"/>
    <path style="fill:none;stroke:#000000;stroke-width:1.5;stroke-linecap:butt;stroke-linejoin:miter;stroke-miterlimit:4;stroke-opacity:1;stroke-dasharray:none" d="m 212.59843,343.70077 0,-88.58268" id="path3871"/>
    <path style="fill:none;stroke:#000000;stroke-width:1.5;stroke-linecap:butt;stroke-linejoin:miter;stroke-miterlimit:4;stroke-opacity:1;stroke-dasharray:none" d="m 283.46457,255.11809 -70.86614,88.58268 141.73228,-88.58268" id="path3873"/>
    <path style="fill:none;stroke:#000000;stroke-width:1.5;stroke-linecap:butt;stroke-linejoin:miter;stroke-miterlimit:4;stroke-opacity:1;stroke-dasharray:none" d="m 283.46457,343.70077 0,-88.58268" id="path3875"/>
    <path style="fill:none;stroke:#000000;stroke-width:1.5;stroke-linecap:butt;stroke-linejoin:miter;stroke-miterlimit:4;stroke-opacity:1;stroke-dasharray:none" d="M 283.46457,343.70077 425.19685,255.11809" id="path3877"/>
    <path style="fill:none;stroke:#000000;stroke-width:1.5;stroke-linecap:butt;stroke-linejoin:miter;stroke-miterlimit:4;stroke-opacity:1;stroke-dasharray:none" d="m 354.33071,255.11809 0,88.58268 70.86614,-88.58268" id="path3879"/>
    <path style="fill:none;stroke:#000000;stroke-width:1.5;stroke-linecap:butt;stroke-linejoin:miter;stroke-miterlimit:4;stroke-opacity:1;stroke-dasharray:none" d="m 212.59843,166.53541 0,88.58268 70.86614,-88.58268" id="path3881"/>
    <path style="fill:none;stroke:#000000;stroke-width:1.5;stroke-linecap:butt;stroke-linejoin:miter;stroke-miterlimit:4;stroke-opacity:1;stroke-dasharray:none" d="M 212.59843,255.11809 354.33071,166.53541" id="path3883"/>
    <path style="fill:none;stroke:#000000;stroke-width:1.5;stroke-linecap:butt;stroke-linejoin:miter;stroke-miterlimit:4;stroke-opacity:1;stroke-dasharray:none" d="m 283.46457,166.53541 0,88.58268 141.73228,-88.58268 0,0" id="path3885"/>
    <path style="fill:none;stroke:#000000;stroke-width:1.5;stroke-linecap:butt;stroke-linejoin:miter;stroke-miterlimit:4;stroke-opacity:1;stroke-dasharray:none" d="m 354.33071,255.11809 0,-88.58268" id="path3887"/>
    <path style="fill:none;stroke:#000000;stroke-width:1.5;stroke-linecap:butt;stroke-linejoin:miter;stroke-miterlimit:4;stroke-opacity:1;stroke-dasharray:none" d="m 425.19685,255.11809 0,-88.58268" id="path3889"/>
    <path style="fill:none;stroke:#000000;stroke-width:1.5;stroke-linecap:butt;stroke-linejoin:miter;stroke-miterlimit:4;stroke-opacity:1;stroke-dasharray:none" d="m 354.33071,255.11809 70.86614,-88.58268" id="path3891"/>
    <path style="color:#000000;fill:none;stroke:#000000;stroke-width:1.5;stroke-linecap:butt;stroke-linejoin:miter;stroke-miterlimit:4;stroke-opacity:1;stroke-dasharray:1.5, 4.5;stroke-dashoffset:0;marker:none;visibility:visible;display:inline;overflow:visible;enable-background:accumulate" d="M 212.59843,343.70077 496.06299,255.11809" id="path3893"/>
    <path style="color:#000000;fill:none;stroke:#000000;stroke-width:1.5;stroke-linecap:butt;stroke-linejoin:miter;stroke-miterlimit:4;stroke-opacity:1;stroke-dasharray:1.5, 4.5;stroke-dashoffset:0;marker:none;visibility:visible;display:inline;overflow:visible;enable-background:accumulate" d="m 285.27529,345.6249 210.7877,-90.50681" id="path3895"/>
    <path style="color:#000000;fill:none;stroke:#000000;stroke-width:1.5;stroke-linecap:butt;stroke-linejoin:miter;stroke-miterlimit:4;stroke-opacity:1;stroke-dasharray:1.5, 4.5;stroke-dashoffset:0;marker:none;visibility:visible;display:inline;overflow:visible;enable-background:accumulate" d="M 355.51896,343.47458 496.06299,255.11809" id="path3897"/>
    <path style="color:#000000;fill:none;stroke:#000000;stroke-width:1.5;stroke-linecap:butt;stroke-linejoin:miter;stroke-miterlimit:4;stroke-opacity:1;stroke-dasharray:1.5, 4.5;stroke-dashoffset:0;marker:none;visibility:visible;display:inline;overflow:visible;enable-background:accumulate" d="m 425.19685,343.70077 70.86614,-88.58268" id="path3899"/>
    <path style="color:#000000;fill:none;stroke:#000000;stroke-width:1.5;stroke-linecap:butt;stroke-linejoin:miter;stroke-miterlimit:4;stroke-opacity:1;stroke-dasharray:1.5, 4.5;stroke-dashoffset:0;marker:none;visibility:visible;display:inline;overflow:visible;enable-background:accumulate" d="m 495.28952,344.90813 0.77347,-178.37272" id="path3901" sodipodi:nodetypes="cc"/>
    <path style="color:#000000;fill:none;stroke:#000000;stroke-width:1.5;stroke-linecap:butt;stroke-linejoin:miter;stroke-miterlimit:4;stroke-opacity:1;stroke-dasharray:1.5, 4.5;stroke-dashoffset:0;marker:none;visibility:visible;display:inline;overflow:visible;enable-background:accumulate" d="M 212.59843,255.11809 496.06299,166.53541" id="path3903"/>
    <path style="color:#000000;fill:none;stroke:#000000;stroke-width:1.5;stroke-linecap:butt;stroke-linejoin:miter;stroke-miterlimit:4;stroke-opacity:1;stroke-dasharray:1.5, 4.5;stroke-dashoffset:0;marker:none;visibility:visible;display:inline;overflow:visible;enable-background:accumulate" d="M 283.46457,255.11809 496.06299,166.53541" id="path3905"/>
    <path style="color:#000000;fill:none;stroke:#000000;stroke-width:1.5;stroke-linecap:butt;stroke-linejoin:miter;stroke-miterlimit:4;stroke-opacity:1;stroke-dasharray:1.5, 4.5;stroke-dashoffset:0;marker:none;visibility:visible;display:inline;overflow:visible;enable-background:accumulate" d="M 354.33071,255.11809 496.06299,166.53541" id="path3907"/>
    <path style="color:#000000;fill:none;stroke:#000000;stroke-width:1.5;stroke-linecap:butt;stroke-linejoin:miter;stroke-miterlimit:4;stroke-opacity:1;stroke-dasharray:1.5, 4.5;stroke-dashoffset:0;marker:none;visibility:visible;display:inline;overflow:visible;enable-background:accumulate" d="m 425.19685,255.11809 70.86614,-88.58268" id="path3909"/>
    <path style="color:#000000;fill:none;stroke:#000000;stroke-width:1.5;stroke-linecap:butt;stroke-linejoin:miter;stroke-miterlimit:4;stroke-opacity:1;stroke-dasharray:1.5, 4.5;stroke-dashoffset:0;marker:none;visibility:visible;display:inline;overflow:visible;enable-background:accumulate" d="M 212.59843,166.53541 354.33071,77.952734 496.06299,166.53541" id="path3911"/>
    <path style="color:#000000;fill:none;stroke:#000000;stroke-width:1.5;stroke-linecap:butt;stroke-linejoin:miter;stroke-miterlimit:4;stroke-opacity:1;stroke-dasharray:1.5, 4.5;stroke-dashoffset:0;marker:none;visibility:visible;display:inline;overflow:visible;enable-background:accumulate" d="m 283.46457,166.53541 70.86614,-88.582676 70.86614,88.582676" id="path3913"/>
    <path style="color:#000000;fill:none;stroke:#000000;stroke-width:1.5;stroke-linecap:butt;stroke-linejoin:miter;stroke-miterlimit:4;stroke-opacity:1;stroke-dasharray:1.5, 4.5;stroke-dashoffset:0;marker:none;visibility:visible;display:inline;overflow:visible;enable-background:accumulate" d="m 354.08541,165.71511 0.2453,-87.762376" id="path3915"/>
  </g>
  <g inkscape:groupmode="layer" id="layer2" inkscape:label="circles" transform="translate(-177.16536,-42.519665)" sodipodi:insensitive="true">
    <path sodipodi:type="arc" style="fill:#ffffff;fill-opacity:1;fill-rule:evenodd;stroke:none" id="path2829" sodipodi:cx="62.007874" sodipodi:cy="175.39368" sodipodi:rx="26.574802" sodipodi:ry="26.574802" d="m 88.582676,175.39368 a 26.574802,26.574802 0 1 1 -53.149605,0 26.574802,26.574802 0 1 1 53.149605,0 z" transform="matrix(0.8,0,0,0.6933334,304.72441,292.96061)"/>
    <path sodipodi:type="arc" style="fill:#ffffff;fill-opacity:1;fill-rule:evenodd;stroke:none" id="path2829-1" sodipodi:cx="62.007874" sodipodi:cy="175.39368" sodipodi:rx="26.574802" sodipodi:ry="26.574802" d="m 88.582676,175.39368 a 26.574802,26.574802 0 1 1 -53.149605,0 26.574802,26.574802 0 1 1 53.149605,0 z" transform="matrix(0.8,0,0,0.6933334,162.99212,222.09446)"/>
    <path sodipodi:type="arc" style="fill:#ffffff;fill-opacity:1;fill-rule:evenodd;stroke:none" id="path2829-4" sodipodi:cx="62.007874" sodipodi:cy="175.39368" sodipodi:rx="26.574802" sodipodi:ry="26.574802" d="m 88.582676,175.39368 a 26.574802,26.574802 0 1 1 -53.149605,0 26.574802,26.574802 0 1 1 53.149605,0 z" transform="matrix(0.8,0,0,0.6933334,233.85826,222.09446)"/>
    <path sodipodi:type="arc" style="fill:#ffffff;fill-opacity:1;fill-rule:evenodd;stroke:none" id="path2829-0" sodipodi:cx="62.007874" sodipodi:cy="175.39368" sodipodi:rx="26.574802" sodipodi:ry="26.574802" d="m 88.582676,175.39368 a 26.574802,26.574802 0 1 1 -53.149605,0 26.574802,26.574802 0 1 1 53.149605,0 z" transform="matrix(0.8,0,0,0.6933334,304.72441,222.09446)"/>
    <path sodipodi:type="arc" style="fill:#ffffff;fill-opacity:1;fill-rule:evenodd;stroke:none" id="path2829-6" sodipodi:cx="62.007874" sodipodi:cy="175.39368" sodipodi:rx="26.574802" sodipodi:ry="26.574802" d="m 88.582676,175.39368 a 26.574802,26.574802 0 1 1 -53.149605,0 26.574802,26.574802 0 1 1 53.149605,0 z" transform="matrix(0.8,0,0,0.6933334,375.59055,222.09446)"/>
    <path sodipodi:type="arc" style="fill:#ffffff;fill-opacity:1;fill-rule:evenodd;stroke:none" id="path2829-01" sodipodi:cx="62.007874" sodipodi:cy="175.39368" sodipodi:rx="26.574802" sodipodi:ry="26.574802" d="m 88.582676,175.39368 a 26.574802,26.574802 0 1 1 -53.149605,0 26.574802,26.574802 0 1 1 53.149605,0 z" transform="matrix(0.8,0,0,0.6933334,446.45669,222.09446)"/>
    <path transform="matrix(0.8,0,0,0.6933334,162.99211,133.51179)" d="m 88.582676,175.39368 a 26.574802,26.574802 0 1 1 -53.149605,0 26.574802,26.574802 0 1 1 53.149605,0 z" sodipodi:ry="26.574802" sodipodi:rx="26.574802" sodipodi:cy="175.39368" sodipodi:cx="62.007874" id="path3679" style="fill:#ffffff;fill-opacity:1;fill-rule:evenodd;stroke:none" sodipodi:type="arc"/>
    <path transform="matrix(0.8,0,0,0.6933334,233.85825,133.51179)" d="m 88.582676,175.39368 a 26.574802,26.574802 0 1 1 -53.149605,0 26.574802,26.574802 0 1 1 53.149605,0 z" sodipodi:ry="26.574802" sodipodi:rx="26.574802" sodipodi:cy="175.39368" sodipodi:cx="62.007874" id="path3681" style="fill:#ffffff;fill-opacity:1;fill-rule:evenodd;stroke:none" sodipodi:type="arc"/>
    <path transform="matrix(0.8,0,0,0.6933334,304.7244,133.51179)" d="m 88.582676,175.39368 a 26.574802,26.574802 0 1 1 -53.149605,0 26.574802,26.574802 0 1 1 53.149605,0 z" sodipodi:ry="26.574802" sodipodi:rx="26.574802" sodipodi:cy="175.39368" sodipodi:cx="62.007874" id="path3683" style="fill:#ffffff;fill-opacity:1;fill-rule:evenodd;stroke:none" sodipodi:type="arc"/>
    <path transform="matrix(0.8,0,0,0.6933334,375.59054,133.51179)" d="m 88.582676,175.39368 a 26.574802,26.574802 0 1 1 -53.149605,0 26.574802,26.574802 0 1 1 53.149605,0 z" sodipodi:ry="26.574802" sodipodi:rx="26.574802" sodipodi:cy="175.39368" sodipodi:cx="62.007874" id="path3685" style="fill:#ffffff;fill-opacity:1;fill-rule:evenodd;stroke:none" sodipodi:type="arc"/>
    <path transform="matrix(0.8,0,0,0.6933334,446.45668,133.51179)" d="m 88.582676,175.39368 a 26.574802,26.574802 0 1 1 -53.149605,0 26.574802,26.574802 0 1 1 53.149605,0 z" sodipodi:ry="26.574802" sodipodi:rx="26.574802" sodipodi:cy="175.39368" sodipodi:cx="62.007874" id="path3687" style="fill:#ffffff;fill-opacity:1;fill-rule:evenodd;stroke:none" sodipodi:type="arc"/>
    <path sodipodi:type="arc" style="fill:#ffffff;fill-opacity:1;fill-rule:evenodd;stroke:none" id="path3689" sodipodi:cx="62.007874" sodipodi:cy="175.39368" sodipodi:rx="26.574802" sodipodi:ry="26.574802" d="m 88.582676,175.39368 a 26.574802,26.574802 0 1 1 -53.149605,0 26.574802,26.574802 0 1 1 53.149605,0 z" transform="matrix(0.8,0,0,0.6933334,162.99211,44.929117)"/>
    <path sodipodi:type="arc" style="fill:#ffffff;fill-opacity:1;fill-rule:evenodd;stroke:none" id="path3691" sodipodi:cx="62.007874" sodipodi:cy="175.39368" sodipodi:rx="26.574802" sodipodi:ry="26.574802" d="m 88.582676,175.39368 a 26.574802,26.574802 0 1 1 -53.149605,0 26.574802,26.574802 0 1 1 53.149605,0 z" transform="matrix(0.8,0,0,0.6933334,233.85825,44.929117)"/>
    <path sodipodi:type="arc" style="fill:#ffffff;fill-opacity:1;fill-rule:evenodd;stroke:none" id="path3693" sodipodi:cx="62.007874" sodipodi:cy="175.39368" sodipodi:rx="26.574802" sodipodi:ry="26.574802" d="m 88.582676,175.39368 a 26.574802,26.574802 0 1 1 -53.149605,0 26.574802,26.574802 0 1 1 53.149605,0 z" transform="matrix(0.8,0,0,0.6933334,304.7244,44.929117)"/>
    <path sodipodi:type="arc" style="fill:#ffffff;fill-opacity:1;fill-rule:evenodd;stroke:none" id="path3695" sodipodi:cx="62.007874" sodipodi:cy="175.39368" sodipodi:rx="26.574802" sodipodi:ry="26.574802" d="m 88.582676,175.39368 a 26.574802,26.574802 0 1 1 -53.149605,0 26.574802,26.574802 0 1 1 53.149605,0 z" transform="matrix(0.8,0,0,0.6933334,375.59054,44.929117)"/>
    <path sodipodi:type="arc" style="fill:#ffffff;fill-opacity:1;fill-rule:evenodd;stroke:none" id="path3697" sodipodi:cx="62.007874" sodipodi:cy="175.39368" sodipodi:rx="26.574802" sodipodi:ry="26.574802" d="m 88.582676,175.39368 a 26.574802,26.574802 0 1 1 -53.149605,0 26.574802,26.574802 0 1 1 53.149605,0 z" transform="matrix(0.8,0,0,0.6933334,446.45668,44.929117)"/>
    <path transform="matrix(0.8,0,0,0.6933334,304.7244,-43.65356)" d="m 88.582676,175.39368 a 26.574802,26.574802 0 1 1 -53.149605,0 26.574802,26.574802 0 1 1 53.149605,0 z" sodipodi:ry="26.574802" sodipodi:rx="26.574802" sodipodi:cy="175.39368" sodipodi:cx="62.007874" id="path3699" style="fill:#ffffff;fill-opacity:1;fill-rule:evenodd;stroke:none" sodipodi:type="arc"/>
  </g>
  <g inkscape:groupmode="layer" id="layer3" inkscape:label="numbers" transform="translate(-177.16536,-42.519665)">
    <g style="font-size:48px;font-style:normal;font-variant:normal;font-weight:normal;font-stretch:normal;fill:#000000;fill-opacity:1;stroke:none;font-family:Times New Roman;-inkscape-font-specification:'Times New Roman,'" id="text3702" transform="matrix(0.72,0,0,0.72,99.55691,116.07859)">
      <path d="m 348.86423,402.11981 7.73437,-3.77344 0.77344,0 0,26.83594 c -1e-5,1.78126 0.0703,2.89063 0.21094,3.32813 0.15623,0.4375 0.46873,0.77344 0.9375,1.00781 0.46873,0.23438 1.42186,0.36719 2.85937,0.39844 l 0,0.86718 -11.95312,0 0,-0.86718 c 1.49999,-0.0312 2.46874,-0.15625 2.90625,-0.375 0.43749,-0.23438 0.74217,-0.53906 0.91406,-0.91407 0.17186,-0.39062 0.2578,-1.53905 0.25781,-3.44531 l 0,-17.15625 c -10e-6,-2.31247 -0.0781,-3.79685 -0.23437,-4.45312 -0.10939,-0.49998 -0.31251,-0.86716 -0.60938,-1.10157 -0.28126,-0.23434 -0.62501,-0.35153 -1.03125,-0.35156 -0.57813,3e-5 -1.38282,0.24222 -2.41406,0.72656 l -0.35156,-0.72656" id="path3869"/>
    </g>
    <g style="font-size:48px;font-style:normal;font-variant:normal;font-weight:normal;font-stretch:normal;text-indent:0;text-align:start;text-decoration:none;line-height:normal;letter-spacing:normal;word-spacing:normal;text-transform:none;direction:ltr;block-progression:tb;writing-mode:lr-tb;text-anchor:start;color:#000000;fill:#000000;fill-opacity:1;fill-rule:nonzero;stroke:none;stroke-width:1px;marker:none;visibility:visible;display:inline;overflow:visible;enable-background:accumulate;font-family:Times New Roman;-inkscape-font-specification:'Times New Roman,'" id="text3706" transform="matrix(0.72,0,0,0.72,58.711842,96.254479)">
      <path d="m 223.97989,353.45865 -2.22656,6.11719 -18.75,0 0,-0.86719 c 5.51561,-5.03125 9.39842,-9.14062 11.64843,-12.32813 2.24999,-3.18748 3.37499,-6.10154 3.375,-8.74218 -1e-5,-2.0156 -0.6172,-3.67185 -1.85156,-4.96875 -1.23439,-1.29685 -2.71095,-1.94529 -4.42969,-1.94532 -1.5625,3e-5 -2.96875,0.46097 -4.21875,1.38282 -1.23438,0.90627 -2.14844,2.24221 -2.74218,4.00781 l -0.86719,0 c 0.39062,-2.8906 1.39062,-5.10935 3,-6.65625 1.62499,-1.54684 3.64843,-2.32028 6.07031,-2.32031 2.57811,3e-5 4.72655,0.82815 6.44531,2.48437 1.73436,1.65628 2.60155,3.6094 2.60157,5.85938 -2e-5,1.60939 -0.37502,3.21877 -1.125,4.82812 -1.15627,2.53127 -3.03127,5.21095 -5.625,8.03906 -3.89064,4.25001 -6.32032,6.81251 -7.28907,7.6875 l 8.29688,0 c 1.68748,1e-5 2.86717,-0.0625 3.53906,-0.1875 0.68748,-0.12499 1.30467,-0.37499 1.85156,-0.75 0.54686,-0.39062 1.02342,-0.93749 1.42969,-1.64062 l 0.86719,0" style="marker:none" id="path3866"/>
    </g>
    <g style="font-size:48px;font-style:normal;font-variant:normal;font-weight:normal;font-stretch:normal;text-indent:0;text-align:start;text-decoration:none;line-height:normal;letter-spacing:normal;word-spacing:normal;text-transform:none;direction:ltr;block-progression:tb;writing-mode:lr-tb;text-anchor:start;color:#000000;fill:#000000;fill-opacity:1;fill-rule:nonzero;stroke:none;stroke-width:1px;marker:none;visibility:visible;display:inline;overflow:visible;enable-background:accumulate;font-family:Times New Roman;-inkscape-font-specification:'Times New Roman,'" id="text3710" transform="matrix(0.72,0,0,0.72,78.388157,96.231216)">
      <path d="m 276.42319,333.59253 c 0.90624,-2.1406 2.04687,-3.78903 3.42187,-4.94531 1.39062,-1.17185 3.11718,-1.75778 5.17969,-1.75782 2.54686,4e-5 4.49998,0.82816 5.85937,2.48438 1.03124,1.2344 1.54686,2.55471 1.54688,3.96094 -2e-5,2.31252 -1.45314,4.70314 -4.35938,7.17187 1.95311,0.76564 3.42967,1.85939 4.42969,3.28125 0.99998,1.42189 1.49998,3.09376 1.5,5.01563 -2e-5,2.75 -0.87502,5.13281 -2.625,7.14843 -2.28126,2.62501 -5.58595,3.9375 -9.91406,3.9375 -2.14063,0 -3.60157,-0.26562 -4.38281,-0.79687 -0.76563,-0.53125 -1.14844,-1.10156 -1.14844,-1.71094 0,-0.45312 0.17969,-0.85156 0.53906,-1.19531 0.375,-0.34375 0.82031,-0.51562 1.33594,-0.51563 0.39062,10e-6 0.78906,0.0625 1.19531,0.1875 0.26562,0.0781 0.86718,0.36719 1.80469,0.86719 0.93749,0.48438 1.58593,0.77344 1.94531,0.86719 0.57812,0.17188 1.1953,0.25781 1.85156,0.25781 1.59374,0 2.97655,-0.61718 4.14844,-1.85156 1.18749,-1.23437 1.78124,-2.69531 1.78125,-4.38281 -10e-6,-1.23437 -0.27345,-2.43749 -0.82031,-3.60938 -0.40627,-0.87499 -0.85158,-1.53905 -1.33594,-1.99219 -0.67189,-0.62498 -1.59376,-1.18748 -2.76562,-1.6875 -1.17189,-0.51561 -2.3672,-0.77342 -3.58594,-0.77343 l -0.75,0 0,-0.70313 c 1.23437,-0.15623 2.46874,-0.60154 3.70312,-1.33594 1.24999,-0.73435 2.15624,-1.61716 2.71875,-2.64843 0.56249,-1.03123 0.84374,-2.16404 0.84375,-3.39844 -10e-6,-1.60935 -0.50782,-2.90622 -1.52343,-3.89063 -1.00001,-0.99997 -2.25001,-1.49997 -3.75,-1.5 -2.42188,3e-5 -4.44532,1.29691 -6.07032,3.89063 l -0.77343,-0.375" style="marker:none" id="path3863"/>
    </g>
    <g style="font-size:48px;font-style:normal;font-variant:normal;font-weight:normal;font-stretch:normal;text-indent:0;text-align:start;text-decoration:none;line-height:normal;letter-spacing:normal;word-spacing:normal;text-transform:none;direction:ltr;block-progression:tb;writing-mode:lr-tb;text-anchor:start;color:#000000;fill:#000000;fill-opacity:1;fill-rule:nonzero;stroke:none;stroke-width:1px;marker:none;visibility:visible;display:inline;overflow:visible;enable-background:accumulate;font-family:Times New Roman;-inkscape-font-specification:'Times New Roman,'" id="text3714" transform="matrix(0.72,0,0,0.72,99.40697,95.959124)">
      <path d="m 364.59982,327.59543 -1.82812,3.98437 -9.5625,0 -2.08594,4.26563 c 4.14061,0.6094 7.42186,2.14846 9.84375,4.61719 2.07811,2.12501 3.11717,4.62501 3.11719,7.5 -2e-5,1.67188 -0.34377,3.21875 -1.03125,4.64062 -0.6719,1.42188 -1.52346,2.63282 -2.55469,3.63281 -1.03127,1.00001 -2.1797,1.80469 -3.44531,2.41407 -1.79689,0.85937 -3.64064,1.28906 -5.53125,1.28906 -1.90626,0 -3.29688,-0.32031 -4.17188,-0.96094 -0.85937,-0.65625 -1.28906,-1.375 -1.28906,-2.15625 0,-0.4375 0.17969,-0.82031 0.53906,-1.14844 0.35937,-0.34374 0.8125,-0.51562 1.35938,-0.51562 0.40624,0 0.75781,0.0625 1.05469,0.1875 0.31249,0.125 0.83593,0.44531 1.57031,0.96094 1.17187,0.8125 2.35936,1.21875 3.5625,1.21875 1.82811,0 3.42967,-0.6875 4.80469,-2.0625 1.3906,-1.39062 2.08592,-3.07812 2.08593,-5.0625 -1e-5,-1.92187 -0.6172,-3.71093 -1.85156,-5.36719 -1.23439,-1.67186 -2.93751,-2.96092 -5.10937,-3.86719 -1.70314,-0.70311 -4.02345,-1.10935 -6.96094,-1.21875 l 6.09375,-12.35156 11.39062,0" style="marker:none" id="path3860"/>
    </g>
    <g style="font-size:48px;font-style:normal;font-variant:normal;font-weight:normal;font-stretch:normal;text-indent:0;text-align:start;text-decoration:none;line-height:normal;letter-spacing:normal;word-spacing:normal;text-transform:none;direction:ltr;block-progression:tb;writing-mode:lr-tb;text-anchor:start;color:#000000;fill:#000000;fill-opacity:1;fill-rule:nonzero;stroke:none;stroke-width:1px;marker:none;visibility:visible;display:inline;overflow:visible;enable-background:accumulate;font-family:Times New Roman;-inkscape-font-specification:'Times New Roman,'" id="text3718" transform="matrix(0.72,0,0,0.72,119.03175,95.997072)">
      <path d="m 418.96768,327.49585 17.03906,0 0,0.89062 -10.59375,31.54688 -2.625,0 9.49219,-28.61719 -8.74219,0 c -1.76563,3e-5 -3.02344,0.21097 -3.77343,0.63281 -1.31251,0.71878 -2.36719,1.82816 -3.16407,3.32813 l -0.67968,-0.25781 3.04687,-7.52344" style="marker:none" id="path3857"/>
    </g>
    <g style="font-size:48px;font-style:normal;font-variant:normal;font-weight:normal;font-stretch:normal;text-indent:0;text-align:start;text-decoration:none;line-height:normal;letter-spacing:normal;word-spacing:normal;text-transform:none;direction:ltr;block-progression:tb;writing-mode:lr-tb;text-anchor:start;color:#000000;fill:#000000;fill-opacity:1;fill-rule:nonzero;stroke:none;stroke-width:1px;marker:none;visibility:visible;display:inline;overflow:visible;enable-background:accumulate;font-family:Times New Roman;-inkscape-font-specification:'Times New Roman,'" id="text3722" transform="matrix(0.72,0,0,0.72,60.089373,71.105483)">
      <path d="m 222.37134,260.06396 0,3.32813 -4.26563,0 0,8.39062 -3.86718,0 0,-8.39062 -13.45313,0 0,-3 14.74219,-21.04688 2.57812,0 0,20.71875 4.26563,0 m -8.13281,0 0,-15.77343 -11.15625,15.77343 11.15625,0" style="marker:none" id="path3854"/>
    </g>
    <g style="font-size:48px;font-style:normal;font-variant:normal;font-weight:normal;font-stretch:normal;text-indent:0;text-align:start;text-decoration:none;line-height:normal;letter-spacing:normal;word-spacing:normal;text-transform:none;direction:ltr;block-progression:tb;writing-mode:lr-tb;text-anchor:start;color:#000000;fill:#000000;fill-opacity:1;fill-rule:nonzero;stroke:none;stroke-width:1px;marker:none;visibility:visible;display:inline;overflow:visible;enable-background:accumulate;font-family:Times New Roman;-inkscape-font-specification:'Times New Roman,'" id="text3726" transform="matrix(0.72,0,0,0.72,79.379757,71.267879)">
      <path d="m 292.99908,238.83841 0,0.86719 c -2.06251,0.20315 -3.75001,0.61722 -5.0625,1.24218 -1.29689,0.60941 -2.58595,1.54691 -3.86718,2.8125 -1.26564,1.26566 -2.32033,2.67972 -3.16407,4.24219 -0.82813,1.5469 -1.52344,3.39065 -2.08593,5.53125 2.24999,-1.54685 4.5078,-2.32029 6.77343,-2.32031 2.17186,2e-5 4.05467,0.87502 5.64844,2.625 1.59373,1.75002 2.3906,4.00001 2.39063,6.75 -3e-5,2.65626 -0.80471,5.07813 -2.41407,7.26562 -1.93751,2.65626 -4.50001,3.98438 -7.6875,3.98438 -2.17188,0 -4.01563,-0.71875 -5.53125,-2.15625 -2.96875,-2.79687 -4.45312,-6.42187 -4.45312,-10.875 0,-2.84374 0.57031,-5.54686 1.71094,-8.10938 1.14062,-2.56247 2.76562,-4.83591 4.875,-6.82031 2.12499,-1.98434 4.15623,-3.32028 6.09375,-4.00781 1.93748,-0.68747 3.74217,-1.03122 5.41406,-1.03125 l 1.35937,0 m -14.57812,16.40625 c -0.28126,2.10939 -0.42188,3.81251 -0.42188,5.10937 0,1.50001 0.27344,3.13282 0.82032,4.89844 0.56249,1.75001 1.39061,3.14063 2.48437,4.17188 0.79687,0.73437 1.76562,1.10156 2.90625,1.10156 1.35936,0 2.5703,-0.64062 3.63281,-1.92188 1.07811,-1.28124 1.61717,-3.10936 1.61719,-5.48437 -2e-5,-2.67186 -0.53127,-4.98436 -1.59375,-6.9375 -1.06251,-1.95311 -2.57032,-2.92967 -4.52344,-2.92969 -0.59376,2e-5 -1.23438,0.12502 -1.92187,0.375 -0.67188,0.25002 -1.67188,0.78908 -3,1.61719" style="marker:none" id="path3851"/>
    </g>
    <g style="font-size:48px;font-style:normal;font-variant:normal;font-weight:normal;font-stretch:normal;text-indent:0;text-align:start;text-decoration:none;line-height:normal;letter-spacing:normal;word-spacing:normal;text-transform:none;direction:ltr;block-progression:tb;writing-mode:lr-tb;text-anchor:start;color:#000000;fill:#000000;fill-opacity:1;fill-rule:nonzero;stroke:none;stroke-width:1px;marker:none;visibility:visible;display:inline;overflow:visible;enable-background:accumulate;font-family:Times New Roman;-inkscape-font-specification:'Times New Roman,'" id="text3730" transform="matrix(0.72,0,0,0.72,99.953758,71.59694)">
      <path d="m 334.23883,242.15482 7.73438,-3.77344 0.77343,0 0,26.83594 c -1e-5,1.78125 0.0703,2.89062 0.21094,3.32812 0.15624,0.4375 0.46874,0.77344 0.9375,1.00781 0.46873,0.23438 1.42186,0.36719 2.85938,0.39844 l 0,0.86719 -11.95313,0 0,-0.86719 c 1.49999,-0.0312 2.46874,-0.15625 2.90625,-0.375 0.43749,-0.23437 0.74218,-0.53906 0.91406,-0.91406 0.17187,-0.39062 0.25781,-1.53906 0.25782,-3.44531 l 0,-17.15625 c -10e-6,-2.31248 -0.0781,-3.79685 -0.23438,-4.45313 -0.10938,-0.49997 -0.31251,-0.86716 -0.60937,-1.10156 -0.28126,-0.23435 -0.62501,-0.35154 -1.03125,-0.35156 -0.57814,2e-5 -1.38282,0.24221 -2.41407,0.72656 l -0.35156,-0.72656" style="marker:none" id="path3846"/>
      <path d="m 354.34821,255.11575 c -10e-6,-3.62498 0.54687,-6.74216 1.64062,-9.35156 1.09375,-2.62497 2.54687,-4.57809 4.35938,-5.85937 1.40624,-1.0156 2.85936,-1.52341 4.35937,-1.52344 2.43749,3e-5 4.62498,1.24222 6.5625,3.72656 2.42185,3.07815 3.63279,7.25002 3.63281,12.51563 -2e-5,3.68751 -0.53127,6.82032 -1.59375,9.39843 -1.06252,2.57813 -2.42189,4.45313 -4.07812,5.625 -1.64064,1.15625 -3.22658,1.73438 -4.75781,1.73438 -3.03126,0 -5.5547,-1.78906 -7.57032,-5.36719 -1.70312,-3.01562 -2.55469,-6.64843 -2.55468,-10.89844 m 4.59375,0.58594 c -10e-6,4.37501 0.53905,7.94532 1.61718,10.71094 0.89062,2.32813 2.21874,3.49219 3.98438,3.49219 0.84374,0 1.71873,-0.375 2.625,-1.125 0.90623,-0.76563 1.59373,-2.03906 2.0625,-3.82032 0.71873,-2.68749 1.07811,-6.47655 1.07812,-11.36718 -1e-5,-3.62498 -0.37501,-6.64842 -1.125,-9.07032 -0.56251,-1.79684 -1.28907,-3.07028 -2.17968,-3.82031 -0.64064,-0.51559 -1.41408,-0.77341 -2.32032,-0.77344 -1.06251,3e-5 -2.00782,0.4766 -2.83593,1.42969 -1.12501,1.2969 -1.89064,3.33596 -2.29688,6.11719 -0.40626,2.78127 -0.60938,5.52345 -0.60937,8.22656" style="marker:none" id="path3848"/>
    </g>
    <g style="font-size:48px;font-style:normal;font-variant:normal;font-weight:normal;font-stretch:normal;text-indent:0;text-align:start;text-decoration:none;line-height:normal;letter-spacing:normal;word-spacing:normal;text-transform:none;direction:ltr;block-progression:tb;writing-mode:lr-tb;text-anchor:start;color:#000000;fill:#000000;fill-opacity:1;fill-rule:nonzero;stroke:none;stroke-width:1px;marker:none;visibility:visible;display:inline;overflow:visible;enable-background:accumulate;font-family:Times New Roman;-inkscape-font-specification:'Times New Roman,'" id="text3734" transform="matrix(0.72,0,0,0.72,120.28088,71.267879)">
      <path d="m 404.62341,242.61185 7.73438,-3.77344 0.77344,0 0,26.83594 c -2e-5,1.78125 0.0703,2.89062 0.21093,3.32812 0.15624,0.4375 0.46874,0.77344 0.9375,1.00781 0.46874,0.23438 1.42186,0.36719 2.85938,0.39844 l 0,0.86719 -11.95313,0 0,-0.86719 c 1.5,-0.0312 2.46874,-0.15625 2.90625,-0.375 0.43749,-0.23437 0.74218,-0.53906 0.91407,-0.91406 0.17186,-0.39062 0.2578,-1.53906 0.25781,-3.44531 l 0,-17.15625 c -1e-5,-2.31248 -0.0781,-3.79685 -0.23438,-4.45313 -0.10938,-0.49997 -0.31251,-0.86716 -0.60937,-1.10156 -0.28126,-0.23435 -0.62501,-0.35153 -1.03125,-0.35156 -0.57813,3e-5 -1.38282,0.24221 -2.41406,0.72656 l -0.35157,-0.72656" style="marker:none" id="path3841"/>
      <path d="m 443.83435,239.49466 -1.82812,3.98437 -9.5625,0 -2.08594,4.26563 c 4.14061,0.6094 7.42186,2.14846 9.84375,4.61719 2.0781,2.12501 3.11717,4.62501 3.11719,7.5 -2e-5,1.67188 -0.34377,3.21876 -1.03125,4.64062 -0.6719,1.42188 -1.52346,2.63282 -2.55469,3.63281 -1.03127,1.00001 -2.1797,1.80469 -3.44531,2.41407 -1.79689,0.85937 -3.64064,1.28906 -5.53125,1.28906 -1.90626,0 -3.29688,-0.32031 -4.17188,-0.96094 -0.85938,-0.65625 -1.28906,-1.375 -1.28906,-2.15625 0,-0.4375 0.17968,-0.82031 0.53906,-1.14844 0.35937,-0.34374 0.8125,-0.51562 1.35938,-0.51562 0.40624,0 0.7578,0.0625 1.05468,0.1875 0.3125,0.125 0.83593,0.44532 1.57032,0.96094 1.17186,0.8125 2.35936,1.21875 3.5625,1.21875 1.82811,0 3.42967,-0.6875 4.80468,-2.0625 1.39061,-1.39062 2.08592,-3.07812 2.08594,-5.0625 -2e-5,-1.92187 -0.6172,-3.71093 -1.85156,-5.36719 -1.23439,-1.67186 -2.93751,-2.96092 -5.10938,-3.86719 -1.70313,-0.7031 -4.02344,-1.10935 -6.96093,-1.21875 l 6.09375,-12.35156 11.39062,0" style="marker:none" id="path3843"/>
    </g>
    <g style="font-size:48px;font-style:normal;font-variant:normal;font-weight:normal;font-stretch:normal;text-indent:0;text-align:start;text-decoration:none;line-height:normal;letter-spacing:normal;word-spacing:normal;text-transform:none;direction:ltr;block-progression:tb;writing-mode:lr-tb;text-anchor:start;color:#000000;fill:#000000;fill-opacity:1;fill-rule:nonzero;stroke:none;stroke-width:1px;marker:none;visibility:visible;display:inline;overflow:visible;enable-background:accumulate;font-family:Times New Roman;-inkscape-font-specification:'Times New Roman,'" id="text3738" transform="matrix(0.72,0,0,0.72,59.273055,46.604285)">
      <path d="m 209.85277,166.14473 c -2.51563,-2.06248 -4.14063,-3.71873 -4.875,-4.96875 -0.71876,-1.24998 -1.07813,-2.54685 -1.07813,-3.89063 0,-2.06247 0.79687,-3.8359 2.39063,-5.32031 1.59374,-1.49997 3.71093,-2.24997 6.35156,-2.25 2.56249,3e-5 4.62498,0.69535 6.1875,2.08594 1.56248,1.39065 2.34373,2.97659 2.34375,4.75781 -2e-5,1.18753 -0.42189,2.39846 -1.26562,3.63281 -0.84377,1.2344 -2.60158,2.68752 -5.27344,4.35938 2.74998,2.12502 4.57029,3.79689 5.46094,5.01562 1.18747,1.59377 1.78122,3.27345 1.78125,5.03907 -3e-5,2.23438 -0.85159,4.14844 -2.55469,5.74218 -1.70314,1.57813 -3.93752,2.36719 -6.70313,2.36719 -3.01563,0 -5.36719,-0.94531 -7.05468,-2.83594 -1.34376,-1.51562 -2.01563,-3.17186 -2.01563,-4.96875 0,-1.40624 0.46875,-2.79686 1.40625,-4.17187 0.95312,-1.39061 2.58593,-2.92186 4.89844,-4.59375 m 3.67969,-2.50781 c 1.87498,-1.68748 3.06248,-3.01561 3.5625,-3.98438 0.49998,-0.98435 0.74998,-2.09372 0.75,-3.32812 -2e-5,-1.6406 -0.46096,-2.92185 -1.38282,-3.84375 -0.92189,-0.93747 -2.1797,-1.40622 -3.77343,-1.40625 -1.59377,3e-5 -2.89064,0.46097 -3.89063,1.38281 -1.00001,0.9219 -1.50001,2.00003 -1.5,3.23437 -1e-5,0.81253 0.20312,1.62503 0.60938,2.4375 0.42186,0.81253 1.01561,1.58596 1.78125,2.32032 l 3.84375,3.1875 m -2.57813,3.39843 c -1.29688,1.09377 -2.25782,2.28908 -2.88281,3.58594 -0.62501,1.28126 -0.93751,2.67189 -0.9375,4.17188 -1e-5,2.01563 0.54687,3.63281 1.64062,4.85156 1.10937,1.20313 2.51562,1.80469 4.21875,1.80469 1.68749,0 3.03905,-0.47656 4.05469,-1.42969 1.01561,-0.95312 1.52342,-2.10937 1.52344,-3.46875 -2e-5,-1.12499 -0.29689,-2.13281 -0.89063,-3.02344 -1.10939,-1.65624 -3.35157,-3.8203 -6.72656,-6.49219" style="marker:none" id="path3838"/>
    </g>
    <g style="font-size:48px;font-style:normal;font-variant:normal;font-weight:normal;font-stretch:normal;text-indent:0;text-align:start;text-decoration:none;line-height:normal;letter-spacing:normal;word-spacing:normal;text-transform:none;direction:ltr;block-progression:tb;writing-mode:lr-tb;text-anchor:start;color:#000000;fill:#000000;fill-opacity:1;fill-rule:nonzero;stroke:none;stroke-width:1px;marker:none;visibility:visible;display:inline;overflow:visible;enable-background:accumulate;font-family:Times New Roman;-inkscape-font-specification:'Times New Roman,'" id="text3742" transform="matrix(0.72,0,0,0.72,79.379999,46.477724)">
      <path d="m 263.39719,153.94551 7.73437,-3.77344 0.77344,0 0,26.83594 c -2e-5,1.78125 0.0703,2.89063 0.21094,3.32813 0.15623,0.4375 0.46873,0.77343 0.9375,1.00781 0.46873,0.23437 1.42185,0.36719 2.85937,0.39844 l 0,0.86718 -11.95312,0 0,-0.86718 c 1.49999,-0.0312 2.46874,-0.15625 2.90625,-0.375 0.43749,-0.23438 0.74217,-0.53906 0.91406,-0.91407 0.17186,-0.39062 0.2578,-1.53906 0.25781,-3.44531 l 0,-17.15625 c -10e-6,-2.31247 -0.0781,-3.79685 -0.23437,-4.45312 -0.10939,-0.49998 -0.31251,-0.86716 -0.60938,-1.10157 -0.28126,-0.23434 -0.62501,-0.35153 -1.03125,-0.35156 -0.57813,3e-5 -1.38282,0.24222 -2.41406,0.72656 l -0.35156,-0.72656" style="marker:none" id="path3833"/>
      <path d="m 303.78,176.49239 -2.22656,6.11718 -18.75,0 0,-0.86718 c 5.51561,-5.03125 9.39842,-9.14062 11.64843,-12.32813 2.24999,-3.18748 3.37499,-6.10154 3.375,-8.74219 -10e-6,-2.0156 -0.6172,-3.67185 -1.85156,-4.96875 -1.23439,-1.29684 -2.71095,-1.94528 -4.42969,-1.94531 -1.5625,3e-5 -2.96875,0.46097 -4.21875,1.38281 -1.23438,0.90628 -2.14844,2.24222 -2.74218,4.00782 l -0.86719,0 c 0.39062,-2.8906 1.39062,-5.10935 3,-6.65625 1.62499,-1.54685 3.64843,-2.32028 6.07031,-2.32032 2.57811,4e-5 4.72655,0.82816 6.44531,2.48438 1.73436,1.65628 2.60155,3.6094 2.60157,5.85937 -2e-5,1.6094 -0.37502,3.21877 -1.125,4.82813 -1.15627,2.53127 -3.03127,5.21095 -5.625,8.03906 -3.89064,4.25001 -6.32032,6.81251 -7.28907,7.6875 l 8.29688,0 c 1.68748,0 2.86717,-0.0625 3.53906,-0.1875 0.68748,-0.125 1.30467,-0.375 1.85156,-0.75 0.54686,-0.39062 1.02342,-0.93749 1.42969,-1.64062 l 0.86719,0" style="marker:none" id="path3835"/>
    </g>
    <g style="font-size:48px;font-style:normal;font-variant:normal;font-weight:normal;font-stretch:normal;text-indent:0;text-align:start;text-decoration:none;line-height:normal;letter-spacing:normal;word-spacing:normal;text-transform:none;direction:ltr;block-progression:tb;writing-mode:lr-tb;text-anchor:start;color:#000000;fill:#000000;fill-opacity:1;fill-rule:nonzero;stroke:none;stroke-width:1px;marker:none;visibility:visible;display:inline;overflow:visible;enable-background:accumulate;font-family:Times New Roman;-inkscape-font-specification:'Times New Roman,'" id="text3746" transform="matrix(0.72,0,0,0.72,99.304005,46.604285)">
      <path d="m 353.82095,176.03535 -2.22656,6.11719 -18.75,0 0,-0.86719 c 5.51562,-5.03124 9.39843,-9.14061 11.64844,-12.32812 2.24998,-3.18748 3.37498,-6.10154 3.375,-8.74219 -2e-5,-2.0156 -0.6172,-3.67185 -1.85156,-4.96875 -1.23439,-1.29684 -2.71095,-1.94528 -4.42969,-1.94531 -1.56251,3e-5 -2.96876,0.46097 -4.21875,1.38281 -1.23438,0.90628 -2.14844,2.24221 -2.74219,4.00781 l -0.86719,0 c 0.39063,-2.89059 1.39063,-5.10934 3,-6.65625 1.625,-1.54684 3.64843,-2.32028 6.07032,-2.32031 2.57811,3e-5 4.72654,0.82816 6.44531,2.48438 1.73435,1.65628 2.60154,3.6094 2.60156,5.85937 -2e-5,1.6094 -0.37502,3.21877 -1.125,4.82813 -1.15627,2.53126 -3.03127,5.21095 -5.625,8.03906 -3.89063,4.25001 -6.32032,6.8125 -7.28906,7.6875 l 8.29687,0 c 1.68749,0 2.86717,-0.0625 3.53907,-0.1875 0.68748,-0.125 1.30466,-0.375 1.85156,-0.75 0.54685,-0.39062 1.02342,-0.93749 1.42969,-1.64063 l 0.86718,0" style="marker:none" id="path3828"/>
      <path d="m 357.54752,166.44942 c -1e-5,-3.62498 0.54687,-6.74217 1.64062,-9.35157 1.09375,-2.62497 2.54687,-4.57809 4.35938,-5.85937 1.40624,-1.01559 2.85936,-1.52341 4.35937,-1.52344 2.43749,3e-5 4.62498,1.24222 6.5625,3.72656 2.42185,3.07816 3.63279,7.25003 3.63281,12.51563 -2e-5,3.68751 -0.53127,6.82032 -1.59375,9.39844 -1.06252,2.57813 -2.42189,4.45312 -4.07812,5.625 -1.64064,1.15625 -3.22658,1.73437 -4.75781,1.73437 -3.03126,0 -5.5547,-1.78906 -7.57032,-5.36719 -1.70312,-3.01561 -2.55469,-6.64842 -2.55468,-10.89843 m 4.59375,0.58593 c -1e-5,4.37502 0.53905,7.94532 1.61718,10.71094 0.89062,2.32813 2.21874,3.49219 3.98438,3.49219 0.84374,0 1.71873,-0.375 2.625,-1.125 0.90623,-0.76562 1.59373,-2.03906 2.0625,-3.82031 0.71873,-2.68749 1.07811,-6.47655 1.07812,-11.36719 -10e-6,-3.62498 -0.37501,-6.64841 -1.125,-9.07031 -0.56251,-1.79685 -1.28907,-3.07029 -2.17968,-3.82032 -0.64064,-0.51559 -1.41408,-0.7734 -2.32032,-0.77343 -1.06251,3e-5 -2.00782,0.47659 -2.83593,1.42968 -1.12501,1.29691 -1.89064,3.33597 -2.29688,6.11719 -0.40626,2.78127 -0.60938,5.52346 -0.60937,8.22656" style="marker:none" id="path3830"/>
    </g>
    <g style="font-size:48px;font-style:normal;font-variant:normal;font-weight:normal;font-stretch:normal;text-indent:0;text-align:start;text-decoration:none;line-height:normal;letter-spacing:normal;word-spacing:normal;text-transform:none;direction:ltr;block-progression:tb;writing-mode:lr-tb;text-anchor:start;color:#000000;fill:#000000;fill-opacity:1;fill-rule:nonzero;stroke:none;stroke-width:1px;marker:none;visibility:visible;display:inline;overflow:visible;enable-background:accumulate;font-family:Times New Roman;-inkscape-font-specification:'Times New Roman,'" id="text3750" transform="matrix(0.72,0,0,0.72,119.108,46.604285)">
      <path d="m 404.17819,156.41817 c 0.90625,-2.1406 2.04687,-3.78904 3.42188,-4.94532 1.39061,-1.17184 3.11718,-1.75778 5.17968,-1.75781 2.54687,3e-5 4.49999,0.82816 5.85938,2.48438 1.03123,1.2344 1.54686,2.55471 1.54687,3.96093 -10e-6,2.31253 -1.45314,4.70315 -4.35937,7.17188 1.95311,0.76564 3.42967,1.85939 4.42969,3.28125 0.99998,1.42189 1.49998,3.09376 1.5,5.01562 -2e-5,2.75001 -0.87502,5.13282 -2.625,7.14844 -2.28127,2.625 -5.58595,3.9375 -9.91407,3.9375 -2.14063,0 -3.60156,-0.26562 -4.38281,-0.79687 -0.76563,-0.53125 -1.14844,-1.10156 -1.14844,-1.71094 0,-0.45312 0.17969,-0.85156 0.53907,-1.19531 0.37499,-0.34375 0.82031,-0.51562 1.33593,-0.51563 0.39063,1e-5 0.78906,0.0625 1.19532,0.1875 0.26562,0.0781 0.86718,0.36719 1.80468,0.86719 0.9375,0.48438 1.58593,0.77344 1.94532,0.86719 0.57811,0.17187 1.1953,0.25781 1.85156,0.25781 1.59374,0 2.97655,-0.61719 4.14844,-1.85156 1.18748,-1.23437 1.78123,-2.69531 1.78125,-4.38282 -2e-5,-1.23436 -0.27346,-2.43749 -0.82032,-3.60937 -0.40626,-0.87499 -0.85157,-1.53905 -1.33593,-1.99219 -0.67189,-0.62498 -1.59377,-1.18748 -2.76563,-1.6875 -1.17188,-0.51561 -2.36719,-0.77342 -3.58594,-0.77344 l -0.75,0 0,-0.70312 c 1.23437,-0.15623 2.46874,-0.60155 3.70313,-1.33594 1.24999,-0.73435 2.15624,-1.61717 2.71875,-2.64844 0.56249,-1.03122 0.84374,-2.16404 0.84375,-3.39843 -1e-5,-1.60935 -0.50783,-2.90623 -1.52344,-3.89063 -1.00001,-0.99997 -2.25001,-1.49997 -3.75,-1.5 -2.42188,3e-5 -4.44532,1.29691 -6.07031,3.89063 l -0.77344,-0.375" style="marker:none" id="path3823"/>
      <path d="m 427.47507,166.44942 c 0,-3.62498 0.54687,-6.74217 1.64062,-9.35157 1.09375,-2.62497 2.54687,-4.57809 4.35938,-5.85937 1.40624,-1.01559 2.85936,-1.52341 4.35937,-1.52344 2.43749,3e-5 4.62499,1.24222 6.5625,3.72656 2.42186,3.07816 3.63279,7.25003 3.63281,12.51563 -2e-5,3.68751 -0.53127,6.82032 -1.59375,9.39844 -1.06251,2.57813 -2.42189,4.45312 -4.07812,5.625 -1.64064,1.15625 -3.22658,1.73437 -4.75781,1.73437 -3.03126,0 -5.5547,-1.78906 -7.57032,-5.36719 -1.70312,-3.01561 -2.55468,-6.64842 -2.55468,-10.89843 m 4.59375,0.58593 c -1e-5,4.37502 0.53905,7.94532 1.61718,10.71094 0.89062,2.32813 2.21874,3.49219 3.98438,3.49219 0.84374,0 1.71874,-0.375 2.625,-1.125 0.90623,-0.76562 1.59373,-2.03906 2.0625,-3.82031 0.71873,-2.68749 1.07811,-6.47655 1.07812,-11.36719 -10e-6,-3.62498 -0.37501,-6.64841 -1.125,-9.07031 -0.56251,-1.79685 -1.28907,-3.07029 -2.17968,-3.82032 -0.64064,-0.51559 -1.41408,-0.7734 -2.32032,-0.77343 -1.06251,3e-5 -2.00782,0.47659 -2.83593,1.42968 -1.12501,1.29691 -1.89064,3.33597 -2.29688,6.11719 -0.40625,2.78127 -0.60938,5.52346 -0.60937,8.22656" style="marker:none" id="path3825"/>
    </g>
    <g style="font-size:48px;font-style:normal;font-variant:normal;font-weight:normal;font-stretch:normal;text-indent:0;text-align:start;text-decoration:none;line-height:normal;letter-spacing:normal;word-spacing:normal;text-transform:none;direction:ltr;block-progression:tb;writing-mode:lr-tb;text-anchor:start;color:#000000;fill:#000000;fill-opacity:1;fill-rule:nonzero;stroke:none;stroke-width:1px;marker:none;visibility:visible;display:inline;overflow:visible;enable-background:accumulate;font-family:Times New Roman;-inkscape-font-specification:'Times New Roman,'" id="text3754" transform="matrix(0.72,0,0,0.72,138.82781,95.915003)">
      <path d="m 484.06686,341.22702 c 0.73437,0 1.35156,0.25782 1.85157,0.77344 0.49999,0.5 0.74999,1.10938 0.75,1.82812 -10e-6,0.71875 -0.25782,1.33594 -0.77344,1.85157 -0.50001,0.49999 -1.10938,0.74999 -1.82813,0.75 -0.71875,-1e-5 -1.33594,-0.25001 -1.85156,-0.75 -0.5,-0.51563 -0.75,-1.13282 -0.75,-1.85157 0,-0.73437 0.25,-1.35156 0.75,-1.85156 0.51562,-0.5 1.13281,-0.75 1.85156,-0.75" style="marker:none" id="path3816"/>
      <path d="m 496.06686,341.22702 c 0.73437,0 1.35156,0.25782 1.85157,0.77344 0.49999,0.5 0.74999,1.10938 0.75,1.82812 -10e-6,0.71875 -0.25782,1.33594 -0.77344,1.85157 -0.50001,0.49999 -1.10938,0.74999 -1.82813,0.75 -0.71875,-1e-5 -1.33594,-0.25001 -1.85156,-0.75 -0.5,-0.51563 -0.75,-1.13282 -0.75,-1.85157 0,-0.73437 0.25,-1.35156 0.75,-1.85156 0.51562,-0.5 1.13281,-0.75 1.85156,-0.75" style="marker:none" id="path3818"/>
      <path d="m 508.06686,341.22702 c 0.73437,0 1.35156,0.25782 1.85157,0.77344 0.49999,0.5 0.74999,1.10938 0.75,1.82812 -10e-6,0.71875 -0.25782,1.33594 -0.77344,1.85157 -0.50001,0.49999 -1.10938,0.74999 -1.82813,0.75 -0.71875,-1e-5 -1.33594,-0.25001 -1.85156,-0.75 -0.5,-0.51563 -0.75,-1.13282 -0.75,-1.85157 0,-0.73437 0.25,-1.35156 0.75,-1.85156 0.51562,-0.5 1.13281,-0.75 1.85156,-0.75" style="marker:none" id="path3820"/>
    </g>
    <g style="font-size:48px;font-style:normal;font-variant:normal;font-weight:normal;font-stretch:normal;text-indent:0;text-align:start;text-decoration:none;line-height:normal;letter-spacing:normal;word-spacing:normal;text-transform:none;direction:ltr;block-progression:tb;writing-mode:lr-tb;text-anchor:start;color:#000000;fill:#000000;fill-opacity:1;fill-rule:nonzero;stroke:none;stroke-width:1px;marker:none;visibility:visible;display:inline;overflow:visible;enable-background:accumulate;font-family:Times New Roman;-inkscape-font-specification:'Times New Roman,'" id="text3754-3" transform="matrix(0.72,0,0,0.72,138.95406,70.98129)">
      <path d="m 483.89151,253.13489 c 0.73437,0 1.35156,0.25781 1.85156,0.77344 0.49999,0.5 0.74999,1.10937 0.75,1.82812 -10e-6,0.71875 -0.25782,1.33594 -0.77343,1.85156 -0.50001,0.5 -1.10939,0.75 -1.82813,0.75 -0.71876,0 -1.33594,-0.25 -1.85156,-0.75 -0.50001,-0.51562 -0.75001,-1.13281 -0.75,-1.85156 -10e-6,-0.73437 0.24999,-1.35156 0.75,-1.85156 0.51562,-0.5 1.1328,-0.75 1.85156,-0.75" style="marker:none" id="path3809"/>
      <path d="m 495.89151,253.13489 c 0.73437,0 1.35156,0.25781 1.85156,0.77344 0.49999,0.5 0.74999,1.10937 0.75,1.82812 -10e-6,0.71875 -0.25782,1.33594 -0.77343,1.85156 -0.50001,0.5 -1.10939,0.75 -1.82813,0.75 -0.71876,0 -1.33594,-0.25 -1.85156,-0.75 -0.50001,-0.51562 -0.75001,-1.13281 -0.75,-1.85156 -10e-6,-0.73437 0.24999,-1.35156 0.75,-1.85156 0.51562,-0.5 1.1328,-0.75 1.85156,-0.75" style="marker:none" id="path3811"/>
      <path d="m 507.89151,253.13489 c 0.73437,0 1.35156,0.25781 1.85156,0.77344 0.49999,0.5 0.74999,1.10937 0.75,1.82812 -10e-6,0.71875 -0.25782,1.33594 -0.77343,1.85156 -0.50001,0.5 -1.10939,0.75 -1.82813,0.75 -0.71876,0 -1.33594,-0.25 -1.85156,-0.75 -0.50001,-0.51562 -0.75001,-1.13281 -0.75,-1.85156 -10e-6,-0.73437 0.24999,-1.35156 0.75,-1.85156 0.51562,-0.5 1.1328,-0.75 1.85156,-0.75" style="marker:none" id="path3813"/>
    </g>
    <g style="font-size:48px;font-style:normal;font-variant:normal;font-weight:normal;font-stretch:normal;text-indent:0;text-align:start;text-decoration:none;line-height:normal;letter-spacing:normal;word-spacing:normal;text-transform:none;direction:ltr;block-progression:tb;writing-mode:lr-tb;text-anchor:start;color:#000000;fill:#000000;fill-opacity:1;fill-rule:nonzero;stroke:none;stroke-width:1px;marker:none;visibility:visible;display:inline;overflow:visible;enable-background:accumulate;font-family:Times New Roman;-inkscape-font-specification:'Times New Roman,'" id="text3754-4" transform="matrix(0.72,0,0,0.72,138.95406,45.659548)">
      <path d="m 483.89151,164.92561 c 0.73437,1e-5 1.35156,0.25782 1.85156,0.77344 0.49999,0.5 0.74999,1.10938 0.75,1.82813 -10e-6,0.71875 -0.25782,1.33593 -0.77343,1.85156 -0.50001,0.5 -1.10939,0.75 -1.82813,0.75 -0.71876,0 -1.33594,-0.25 -1.85156,-0.75 -0.50001,-0.51563 -0.75001,-1.13281 -0.75,-1.85156 -10e-6,-0.73438 0.24999,-1.35156 0.75,-1.85157 0.51562,-0.49999 1.1328,-0.74999 1.85156,-0.75" style="marker:none" id="path3802"/>
      <path d="m 495.89151,164.92561 c 0.73437,1e-5 1.35156,0.25782 1.85156,0.77344 0.49999,0.5 0.74999,1.10938 0.75,1.82813 -10e-6,0.71875 -0.25782,1.33593 -0.77343,1.85156 -0.50001,0.5 -1.10939,0.75 -1.82813,0.75 -0.71876,0 -1.33594,-0.25 -1.85156,-0.75 -0.50001,-0.51563 -0.75001,-1.13281 -0.75,-1.85156 -10e-6,-0.73438 0.24999,-1.35156 0.75,-1.85157 0.51562,-0.49999 1.1328,-0.74999 1.85156,-0.75" style="marker:none" id="path3804"/>
      <path d="m 507.89151,164.92561 c 0.73437,1e-5 1.35156,0.25782 1.85156,0.77344 0.49999,0.5 0.74999,1.10938 0.75,1.82813 -10e-6,0.71875 -0.25782,1.33593 -0.77343,1.85156 -0.50001,0.5 -1.10939,0.75 -1.82813,0.75 -0.71876,0 -1.33594,-0.25 -1.85156,-0.75 -0.50001,-0.51563 -0.75001,-1.13281 -0.75,-1.85156 -10e-6,-0.73438 0.24999,-1.35156 0.75,-1.85157 0.51562,-0.49999 1.1328,-0.74999 1.85156,-0.75" style="marker:none" id="path3806"/>
    </g>
    <g style="font-size:48px;font-style:normal;font-variant:normal;font-weight:normal;font-stretch:normal;text-indent:0;text-align:start;text-decoration:none;line-height:normal;letter-spacing:normal;word-spacing:normal;text-transform:none;direction:ltr;block-progression:tb;writing-mode:lr-tb;text-anchor:start;color:#000000;fill:#000000;fill-opacity:1;fill-rule:nonzero;stroke:none;stroke-width:1px;marker:none;visibility:visible;display:inline;overflow:visible;enable-background:accumulate;font-family:Times New Roman;-inkscape-font-specification:'Times New Roman,'" id="text3794" transform="matrix(0.72,0,0,0.72,99.213089,21.794445)">
      <path d="m 344.05951,77.783096 c 0,-3.62498 0.54687,-6.742165 1.64062,-9.351562 1.09375,-2.624973 2.54687,-4.578096 4.35938,-5.859375 1.40624,-1.015593 2.85936,-1.523405 4.35937,-1.523438 2.43749,3.3e-5 4.62499,1.242219 6.5625,3.726563 2.42186,3.07815 3.63279,7.250021 3.63282,12.515625 -3e-5,3.687512 -0.53127,6.820322 -1.59375,9.398437 -1.06252,2.57813 -2.4219,4.453128 -4.07813,5.625 -1.64064,1.15625 -3.22657,1.734375 -4.75781,1.734375 -3.03126,0 -5.55469,-1.789061 -7.57031,-5.367187 -1.70313,-3.015617 -2.55469,-6.648426 -2.55469,-10.898438 m 4.59375,0.585938 c -10e-6,4.375011 0.53905,7.945319 1.61719,10.710937 0.89061,2.328127 2.21874,3.492189 3.98437,3.492188 0.84374,10e-7 1.71874,-0.374999 2.625,-1.125 0.90624,-0.765622 1.59374,-2.039059 2.0625,-3.820313 0.71873,-2.687491 1.07811,-6.47655 1.07813,-11.367187 -2e-5,-3.624979 -0.37502,-6.648414 -1.125,-9.070313 -0.56252,-1.796847 -1.28908,-3.070283 -2.17969,-3.820312 -0.64064,-0.515595 -1.41408,-0.773407 -2.32031,-0.773438 -1.06251,3.1e-5 -2.00783,0.476593 -2.83594,1.429688 -1.12501,1.296903 -1.89063,3.335963 -2.29688,6.117187 -0.40625,2.781271 -0.60938,5.523456 -0.60937,8.226563" style="marker:none" id="path3799"/>
    </g>
  </g>
</svg>