<?xml version="1.0" encoding="UTF-8" standalone="no"?>
<!DOCTYPE svg PUBLIC "-//W3C//DTD SVG 1.0//EN" "http://www.w3.org/TR/2001/REC-SVG-20010904/DTD/svg10.dtd">
<!-- Created with Sodipodi ("http://www.sodipodi.com/") -->
<svg xmlns="http://www.w3.org/2000/svg" xmlns:xlink="http://www.w3.org/1999/xlink" version="1.0" x="0" y="0" width="744.094482" height="437.5" id="svg602" xml:space="preserve"><defs id="defs604"/><path d="M 394.7115 236.2342 L 524.65 366.4586 L 751.4634 366.6829 L 752.3474 109.4728 L 549.4072 110.5637 L 394.7115 236.2342 z " style="font-size:12;fill:#b0004d;fill-opacity:0.1088;fill-rule:evenodd;" id="path1437"/><path d="M 67.17512 102.7863 L 67.80013 385.2155 L 427.0551 389.0664 L 397.9614 235.395 L 309.9905 104.7373 L 67.17512 102.7863 z " style="font-size:12;fill:#455ab5;fill-opacity:0.1185;fill-rule:evenodd;" id="path1436"/><path d="M 394.7115 236.2342 L 524.65 366.4586 L 751.4634 366.6829 L 752.3474 109.4728 L 668.8419 109.7285 L 394.7115 236.2342 z " style="font-size:12;fill:#b0004d;fill-opacity:0.1088;fill-rule:evenodd;" id="path703"/><path d="M 67.17512 102.7863 L 67.80013 385.2155 L 98.81829 384.0552 L 397.9614 235.395 L 309.9905 104.7373 L 67.17512 102.7863 z " style="font-size:12;fill:#455ab5;fill-opacity:0.1185;fill-rule:evenodd;" id="path702"/><rect width="647.190613" height="1" x="62.270813" y="123.610641" style="font-size:12;fill:#808080;fill-rule:evenodd;" id="rect605"/><text x="47.5" y="133.612122" style="font-size:32;font-weight:normal;stroke-width:1;font-family:Luxi Sans;text-anchor:middle;" id="text606"><tspan id="tspan607">A</tspan></text><text x="62.5" y="52.3621521" style="font-size:32;font-weight:normal;stroke-width:1;font-family:Luxi Sans;text-anchor:middle;" id="text613"><tspan id="tspan614">Time</tspan></text><g style="font-size:12;" id="g624"><rect width="180.940628" height="7.25009537" x="34.770813" y="63.6106071" style="fill:#808080;fill-rule:evenodd;" id="rect612"/><path d="M 208.75 52.36221 L 208.75 81.11221 L 231.25 67.36221 L 208.75 52.36221 z " style="fill:#808080;fill-rule:evenodd;" id="path617"/></g><rect width="647.190613" height="1" x="62.270813" y="236.110611" style="font-size:12;fill:#808080;fill-rule:evenodd;" id="rect630"/><text x="47.5" y="246.112091" style="font-size:32;font-weight:normal;stroke-width:1;font-family:Luxi Sans;text-anchor:middle;" id="text631"><tspan id="tspan632">B</tspan></text><rect width="647.190613" height="1" x="62.270813" y="351.110565" style="font-size:12;fill:#808080;fill-rule:evenodd;" id="rect639"/><text x="47.5" y="361.112061" style="font-size:32;font-weight:normal;stroke-width:1;font-family:Luxi Sans;text-anchor:middle;" id="text640"><tspan id="tspan641">C</tspan></text><rect width="11.25" height="12.5" x="165.000015" y="230.487" style="font-size:12;fill-rule:evenodd;" id="rect653"/><g transform="matrix(0.965705,0,0,0.959017,160.8292,7.746857)" style="font-size:12;" id="g664"><path d="M 155.0497 128.3383 C 154.7307 127.9653 154.172 127.9201 153.7972 128.237 L 152.0604 129.7053 C 151.6855 130.0222 151.6406 130.5777 151.9596 130.9507 L 233.8829 226.9048 C 234.202 227.2778 234.7607 227.3231 235.1355 227.0061 L 236.8723 225.5378 C 237.2471 225.2209 237.2921 224.6654 236.973 224.2924 L 155.0497 128.3383 z " style="fill:#808080;fill-rule:evenodd;" id="path662"/><path d="M 239.2159 220.4628 L 230.6008 228.3223 L 242.8681 234.7774 L 239.2159 220.4628 z " style="fill:#808080;fill-rule:evenodd;" id="path629"/><path d="M 155.0497 128.3383 C 154.7307 127.9653 154.172 127.9201 153.7972 128.237 L 152.0604 129.7053 C 151.6855 130.0222 151.6406 130.5777 151.9596 130.9507 L 233.8829 226.9048 C 234.202 227.2778 234.7607 227.3231 235.1355 227.0061 L 236.8723 225.5378 C 237.2471 225.2209 237.2921 224.6654 236.973 224.2924 L 155.0497 128.3383 z " style="fill:#808080;fill-rule:evenodd;" id="path663"/></g><g transform="matrix(-0.23374,-0.898812,0.892631,-0.235359,119.1328,404.5099)" style="font-size:12;" id="g668"><path d="M 155.0497 128.3383 C 154.7307 127.9653 154.172 127.9201 153.7972 128.237 L 152.0604 129.7053 C 151.6855 130.0222 151.6406 130.5777 151.9596 130.9507 L 233.8829 226.9048 C 234.202 227.2778 234.7607 227.3231 235.1355 227.0061 L 236.8723 225.5378 C 237.2471 225.2209 237.2921 224.6654 236.973 224.2924 L 155.0497 128.3383 z " style="fill:#808080;fill-rule:evenodd;" id="path669"/><path d="M 239.2159 220.4628 L 230.6008 228.3223 L 242.8681 234.7774 L 239.2159 220.4628 z " style="fill:#808080;fill-rule:evenodd;" id="path670"/><path d="M 155.0497 128.3383 C 154.7307 127.9653 154.172 127.9201 153.7972 128.237 L 152.0604 129.7053 C 151.6855 130.0222 151.6406 130.5777 151.9596 130.9507 L 233.8829 226.9048 C 234.202 227.2778 234.7607 227.3231 235.1355 227.0061 L 236.8723 225.5378 C 237.2471 225.2209 237.2921 224.6654 236.973 224.2924 L 155.0497 128.3383 z " style="fill:#808080;fill-rule:evenodd;" id="path671"/></g><g transform="matrix(0.999802,-1.985075e-2,1.985075e-2,0.999802,297.9858,116.9115)" style="font-size:12;" id="g676"><path d="M 155.0497 128.3383 C 154.7307 127.9653 154.172 127.9201 153.7972 128.237 L 152.0604 129.7053 C 151.6855 130.0222 151.6406 130.5777 151.9596 130.9507 L 233.8829 226.9048 C 234.202 227.2778 234.7607 227.3231 235.1355 227.0061 L 236.8723 225.5378 C 237.2471 225.2209 237.2921 224.6654 236.973 224.2924 L 155.0497 128.3383 z " style="fill:#808080;fill-rule:evenodd;" id="path677"/><path d="M 239.2159 220.4628 L 230.6008 228.3223 L 242.8681 234.7774 L 239.2159 220.4628 z " style="fill:#808080;fill-rule:evenodd;" id="path678"/><path d="M 155.0497 128.3383 C 154.7307 127.9653 154.172 127.9201 153.7972 128.237 L 152.0604 129.7053 C 151.6855 130.0222 151.6406 130.5777 151.9596 130.9507 L 233.8829 226.9048 C 234.202 227.2778 234.7607 227.3231 235.1355 227.0061 L 236.8723 225.5378 C 237.2471 225.2209 237.2921 224.6654 236.973 224.2924 L 155.0497 128.3383 z " style="fill:#808080;fill-rule:evenodd;" id="path679"/></g><g transform="matrix(0.945128,0,0,0.970726,172.0766,119.3728)" style="font-size:12;" id="g680"><path d="M 155.0497 128.3383 C 154.7307 127.9653 154.172 127.9201 153.7972 128.237 L 152.0604 129.7053 C 151.6855 130.0222 151.6406 130.5777 151.9596 130.9507 L 233.8829 226.9048 C 234.202 227.2778 234.7607 227.3231 235.1355 227.0061 L 236.8723 225.5378 C 237.2471 225.2209 237.2921 224.6654 236.973 224.2924 L 155.0497 128.3383 z " style="fill:#808080;fill-rule:evenodd;" id="path681"/><path d="M 239.2159 220.4628 L 230.6008 228.3223 L 242.8681 234.7774 L 239.2159 220.4628 z " style="fill:#808080;fill-rule:evenodd;" id="path682"/><path d="M 155.0497 128.3383 C 154.7307 127.9653 154.172 127.9201 153.7972 128.237 L 152.0604 129.7053 C 151.6855 130.0222 151.6406 130.5777 151.9596 130.9507 L 233.8829 226.9048 C 234.202 227.2778 234.7607 227.3231 235.1355 227.0061 L 236.8723 225.5378 C 237.2471 225.2209 237.2921 224.6654 236.973 224.2924 L 155.0497 128.3383 z " style="fill:#808080;fill-rule:evenodd;" id="path683"/></g><g transform="matrix(-0.205647,-0.93856,0.941213,-0.205067,-6.110803,518.4764)" style="font-size:12;" id="g697"><path d="M 155.0497 128.3383 C 154.7307 127.9653 154.172 127.9201 153.7972 128.237 L 152.0604 129.7053 C 151.6855 130.0222 151.6406 130.5777 151.9596 130.9507 L 233.8829 226.9048 C 234.202 227.2778 234.7607 227.3231 235.1355 227.0061 L 236.8723 225.5378 C 237.2471 225.2209 237.2921 224.6654 236.973 224.2924 L 155.0497 128.3383 z " style="fill:#808080;fill-rule:evenodd;" id="path698"/><path d="M 239.2159 220.4628 L 230.6008 228.3223 L 242.8681 234.7774 L 239.2159 220.4628 z " style="fill:#808080;fill-rule:evenodd;" id="path699"/><path d="M 155.0497 128.3383 C 154.7307 127.9653 154.172 127.9201 153.7972 128.237 L 152.0604 129.7053 C 151.6855 130.0222 151.6406 130.5777 151.9596 130.9507 L 233.8829 226.9048 C 234.202 227.2778 234.7607 227.3231 235.1355 227.0061 L 236.8723 225.5378 C 237.2471 225.2209 237.2921 224.6654 236.973 224.2924 L 155.0497 128.3383 z " style="fill:#808080;fill-rule:evenodd;" id="path700"/></g><g transform="matrix(0.961908,0,0,0.978106,119.5334,12.00093)" style="font-size:12;" id="g707"><path d="M 568.4155 127.8717 L 577.6377 131.93 L 578.432 119.94 L 568.4155 127.8717 z " style="fill:#808080;fill-rule:evenodd;" id="path708"/><path d="M 155.0497 128.3383 C 154.7307 127.9653 154.172 127.9201 153.7972 128.237 L 152.0604 129.7053 C 151.6855 130.0222 151.6406 130.5777 151.9596 130.9507 L 330.6068 347.4786 C 330.9259 347.8516 331.4846 347.8969 331.8594 347.5799 L 333.5962 346.1116 C 332.4304 347.4863 332.6982 344.6538 333.6969 344.8662 L 155.0497 128.3383 z " transform="matrix(-0.350514,-0.792181,0.789169,-0.351981,416.7191,514.3477)" style="fill:#808080;fill-rule:evenodd;" id="path709"/></g><rect width="11.25" height="12.5" x="195.625031" y="230.486938" style="font-size:12;fill-rule:evenodd;" id="rect712"/><text x="203.125031" y="258.611877" style="font-size:18;font-weight:normal;stroke-width:1;font-family:Luxi Sans;text-anchor:middle;" id="text713" xml:space="preserve"><tspan x="203.125031" y="258.611877" id="tspan714">B2</tspan></text><rect width="11.25" height="12.5" x="301.875031" y="120.487" style="font-size:12;fill-rule:evenodd;" id="rect618"/><text x="310.000031" y="151.111969" style="font-size:18;font-weight:normal;stroke-width:1;font-family:Luxi Sans;text-anchor:middle;" id="text619" xml:space="preserve"><tspan x="310.000031" y="151.111969" id="tspan746">A2</tspan></text><rect width="11.25" height="12.5" x="389.375092" y="232.361908" style="font-size:12;fill-rule:evenodd;" id="rect716"/><text x="396.875092" y="261.111847" style="font-size:18;font-weight:normal;stroke-width:1;font-family:Luxi Sans;text-anchor:middle;" id="text717" xml:space="preserve"><tspan x="396.875092" y="261.111847" id="tspan718">B4</tspan></text><rect width="11.25" height="12.5" x="445.000092" y="232.361877" style="font-size:12;fill-rule:evenodd;" id="rect720"/><text x="453.125092" y="261.111816" style="font-size:18;font-weight:normal;stroke-width:1;font-family:Luxi Sans;text-anchor:middle;" id="text721" xml:space="preserve"><tspan x="453.125092" y="261.111816" id="tspan722">B5</tspan></text><rect width="11.25" height="12.5" x="78.7499847" y="346.112" style="font-size:12;fill-rule:evenodd;" id="rect643"/><text x="83.7499847" y="376.736938" style="font-size:18;font-weight:normal;stroke-width:1;font-family:Luxi Sans;text-anchor:middle;" id="text644" xml:space="preserve"><tspan x="83.7499847" y="376.736938" id="tspan728">C1</tspan></text><rect width="11.25" height="12.5" x="400.625061" y="346.111969" style="font-size:12;fill-rule:evenodd;" id="rect730"/><text x="406.875061" y="376.736908" style="font-size:18;font-weight:normal;stroke-width:1;font-family:Luxi Sans;text-anchor:middle;" id="text731" xml:space="preserve"><tspan x="406.875061" y="376.736908" id="tspan732">C2</tspan></text><text x="450.625061" y="375.486877" style="font-size:18;font-weight:normal;stroke-width:1;font-family:Luxi Sans;text-anchor:middle;" id="text735" xml:space="preserve"><tspan x="450.625061" y="375.486877" id="tspan736">C3</tspan></text><rect width="11.25" height="12.5" x="538.125122" y="347.361908" style="font-size:12;fill-rule:evenodd;" id="rect738"/><text x="544.375122" y="377.986847" style="font-size:18;font-weight:normal;stroke-width:1;font-family:Luxi Sans;text-anchor:middle;" id="text739" xml:space="preserve"><tspan x="544.375122" y="377.986847" id="tspan740">C4</tspan></text><rect width="11.25" height="12.5" x="566.250122" y="347.361877" style="font-size:12;fill-rule:evenodd;" id="rect742"/><text x="574.375122" y="377.986816" style="font-size:18;font-weight:normal;stroke-width:1;font-family:Luxi Sans;text-anchor:middle;" id="text743" xml:space="preserve"><tspan x="574.375122" y="377.986816" id="tspan744">C5</tspan></text><text x="171.875015" y="259.236938" style="font-size:18;font-weight:normal;stroke-width:1;font-family:Luxi Sans;text-anchor:middle;" id="text686" xml:space="preserve"><tspan x="171.875015" y="259.236938" id="tspan710">B1</tspan></text><rect width="11.25" height="12.5" x="271.875031" y="119.861969" style="font-size:12;fill-rule:evenodd;" id="rect751"/><text x="280.000031" y="150.486938" style="font-size:18;font-weight:normal;stroke-width:1;font-family:Luxi Sans;text-anchor:middle;" id="text752" xml:space="preserve"><tspan x="280.000031" y="150.486938" id="tspan753">A1</tspan></text><rect width="11.25" height="12.5" x="556.875122" y="119.236938" style="font-size:12;fill-rule:evenodd;" id="rect755"/><text x="565.000122" y="149.861908" style="font-size:18;font-weight:normal;stroke-width:1;font-family:Luxi Sans;text-anchor:middle;" id="text756" xml:space="preserve"><tspan x="565.000122" y="149.861908" id="tspan757">A3</tspan></text><rect width="11.25" height="12.5" x="676.875122" y="118.611908" style="font-size:12;fill-rule:evenodd;" id="rect759"/><text x="685.000122" y="149.236877" style="font-size:18;font-weight:normal;stroke-width:1;font-family:Luxi Sans;text-anchor:middle;" id="text760" xml:space="preserve"><tspan x="685.000122" y="149.236877" id="tspan761">A4</tspan></text><rect width="11.25" height="12.5" x="305.000061" y="230.486877" style="font-size:12;fill-rule:evenodd;" id="rect763"/><text x="312.500061" y="259.236816" style="font-size:18;font-weight:normal;stroke-width:1;font-family:Luxi Sans;text-anchor:middle;" id="text764" xml:space="preserve"><tspan x="312.500061" y="259.236816" id="tspan765">B3</tspan></text><text x="-102.271133" y="213.693848" transform="matrix(0.438411,-0.898775,0.898775,0.438411,0,0)" style="font-size:24;font-weight:normal;fill:#0000bc;stroke:#0000bc;stroke-width:1;font-family:Luxi Sans;text-anchor:middle;" id="text767" xml:space="preserve"><tspan x="-102.271133" y="213.693848" id="tspan774">cause</tspan></text><text x="84.271019" y="715.869568" transform="matrix(0.438411,-0.898775,0.898775,0.438411,0,0)" style="font-size:24;font-weight:normal;fill:#c90072;stroke:#c90072;stroke-width:1;font-family:Luxi Sans;text-anchor:middle;" id="text776" xml:space="preserve"><tspan x="84.271019" y="715.869568" id="tspan779">effect</tspan></text><text x="582.968323" y="-60.2642822" transform="matrix(0.735149,0.677906,-0.677906,0.735149,0,0)" style="font-size:24;font-weight:normal;fill:#c9c9c9;stroke:#c9c9c9;stroke-width:1;font-family:Luxi Sans;text-anchor:middle;" id="text784" xml:space="preserve"><tspan x="582.968323" y="-60.2642822" style="fill:#c9c9c9;stroke:#c9c9c9;" id="tspan787">concurrent</tspan></text><text x="250.807816" y="424.047791" transform="matrix(0.76349,-0.645821,0.645821,0.76349,0,0)" style="font-size:24;font-weight:normal;fill:#c9c9c9;stroke:#c9c9c9;stroke-width:1;font-family:Luxi Sans;text-anchor:middle;" id="text789" xml:space="preserve"><tspan x="250.807816" y="424.047791" style="fill:#c9c9c9;stroke:#c9c9c9;" id="tspan790">concurrent</tspan></text><rect width="27.1667328" height="28.3479309" x="34.9804039" y="141.339737" style="font-size:12;fill:none;fill-rule:evenodd;stroke:#000000;" id="rect1316"/><text x="47.8121758" y="162.179733" style="font-size:18;font-weight:normal;stroke-width:1;font-family:Luxi Sans;text-anchor:middle;" id="text1317" xml:space="preserve"><tspan x="47.8121758" y="162.179733" id="tspan1318">0</tspan></text><rect width="27.1667328" height="28.3479309" x="33.3099861" y="253.257584" style="font-size:12;fill:none;fill-rule:evenodd;stroke:#000000;" id="rect1324"/><text x="46.141758" y="274.097595" style="font-size:18;font-weight:normal;stroke-width:1;font-family:Luxi Sans;text-anchor:middle;" id="text1325" xml:space="preserve"><tspan x="46.141758" y="274.097595" id="tspan1326">0</tspan></text><rect width="27.1667328" height="28.3479309" x="32.4747772" y="367.681061" style="font-size:12;fill:none;fill-rule:evenodd;stroke:#000000;" id="rect1328"/><text x="45.3065491" y="388.521088" style="font-size:18;font-weight:normal;stroke-width:1;font-family:Luxi Sans;text-anchor:middle;" id="text1329" xml:space="preserve"><tspan x="45.3065491" y="388.521088" id="tspan1330">0</tspan></text><rect width="27.1667328" height="28.3479309" x="70.8943558" y="380.209198" style="font-size:12;fill:none;fill-rule:evenodd;stroke:#000000;" id="rect1332"/><text x="83.72612" y="401.049225" style="font-size:18;font-weight:normal;stroke-width:1;font-family:Luxi Sans;text-anchor:middle;" id="text1333" xml:space="preserve"><tspan x="83.72612" y="401.049225" id="tspan1334">1</tspan></text><rect width="27.1667328" height="28.3479309" x="158.591217" y="265.785614" style="font-size:12;fill:none;fill-rule:evenodd;stroke:#000000;" id="rect1336"/><text x="171.422989" y="286.625641" style="font-size:18;font-weight:normal;stroke-width:1;font-family:Luxi Sans;text-anchor:middle;" id="text1337" xml:space="preserve"><tspan x="171.422989" y="286.625641" id="tspan1338">2</tspan></text><rect width="27.1667328" height="28.3479309" x="192.590118" y="266.376068" style="font-size:12;fill:none;fill-rule:evenodd;stroke:#000000;" id="rect1340"/><text x="206.267273" y="287.216095" style="font-size:18;font-weight:normal;stroke-width:1;font-family:Luxi Sans;text-anchor:middle;" id="text1341" xml:space="preserve"><tspan x="206.267273" y="287.216095" id="tspan1342">3</tspan></text><rect width="27.1667328" height="28.3479309" x="192.590118" y="266.376068" style="font-size:12;fill:none;fill-rule:evenodd;stroke:#000000;" id="rect1344"/><rect width="27.1667328" height="28.3479309" x="264.050476" y="158.299713" style="font-size:12;fill:none;fill-rule:evenodd;stroke:#000000;" id="rect1348"/><text x="277.7276" y="179.13974" style="font-size:18;font-weight:normal;stroke-width:1;font-family:Luxi Sans;text-anchor:middle;" id="text1349" xml:space="preserve"><tspan x="277.7276" y="179.13974" id="tspan1350">4</tspan></text><rect width="27.1667328" height="28.3479309" x="264.050476" y="158.299713" style="font-size:12;fill:none;fill-rule:evenodd;stroke:#000000;" id="rect1352"/><rect width="27.1667328" height="28.3479309" x="295.941864" y="158.299683" style="font-size:12;fill:none;fill-rule:evenodd;stroke:#000000;" id="rect1356"/><text x="309.618988" y="179.139709" style="font-size:18;font-weight:normal;stroke-width:1;font-family:Luxi Sans;text-anchor:middle;" id="text1357" xml:space="preserve"><tspan x="309.618988" y="179.139709" id="tspan1358">5</tspan></text><rect width="27.1667328" height="28.3479309" x="295.941864" y="158.299683" style="font-size:12;fill:none;fill-rule:evenodd;stroke:#000000;" id="rect1360"/><rect width="27.1667328" height="28.3479309" x="384.529083" y="268.147827" style="font-size:12;fill:none;fill-rule:evenodd;stroke:#000000;" id="rect1364"/><text x="398.206177" y="288.987854" style="font-size:18;font-weight:normal;stroke-width:1;font-family:Luxi Sans;text-anchor:middle;" id="text1365" xml:space="preserve"><tspan x="398.206177" y="288.987854" id="tspan1366">6</tspan></text><rect width="27.1667328" height="28.3479309" x="384.529083" y="268.147827" style="font-size:12;fill:none;fill-rule:evenodd;stroke:#000000;" id="rect1368"/><rect width="27.1667328" height="28.3479309" x="296.53244" y="265.785492" style="font-size:12;fill:none;fill-rule:evenodd;stroke:#000000;" id="rect1372"/><text x="310.209534" y="286.625519" style="font-size:18;font-weight:normal;stroke-width:1;font-family:Luxi Sans;text-anchor:middle;" id="text1373" xml:space="preserve"><tspan x="310.209534" y="286.625519" id="tspan1374">4</tspan></text><rect width="27.1667328" height="28.3479309" x="296.53244" y="265.785492" style="font-size:12;fill:none;fill-rule:evenodd;stroke:#000000;" id="rect1376"/><rect width="27.1667328" height="28.3479309" x="438.862579" y="266.375977" style="font-size:12;fill:none;fill-rule:evenodd;stroke:#000000;" id="rect1380"/><text x="452.539673" y="287.216003" style="font-size:18;font-weight:normal;stroke-width:1;font-family:Luxi Sans;text-anchor:middle;" id="text1381" xml:space="preserve"><tspan x="452.539673" y="287.216003" id="tspan1382">7</tspan></text><rect width="27.1667328" height="28.3479309" x="438.862579" y="266.375977" style="font-size:12;fill:none;fill-rule:evenodd;stroke:#000000;" id="rect1384"/><rect width="27.1667328" height="28.3479309" x="552.254211" y="156.527847" style="font-size:12;fill:none;fill-rule:evenodd;stroke:#000000;" id="rect1388"/><text x="565.931335" y="177.367874" style="font-size:18;font-weight:normal;stroke-width:1;font-family:Luxi Sans;text-anchor:middle;" id="text1389" xml:space="preserve"><tspan x="565.931335" y="177.367874" id="tspan1390">7</tspan></text><rect width="27.1667328" height="28.3479309" x="552.254211" y="156.527847" style="font-size:12;fill:none;fill-rule:evenodd;stroke:#000000;" id="rect1392"/><rect width="27.1667328" height="28.3479309" x="670.370483" y="157.709" style="font-size:12;fill:none;fill-rule:evenodd;stroke:#000000;" id="rect1396"/><text x="684.047607" y="178.549026" style="font-size:18;font-weight:normal;stroke-width:1;font-family:Luxi Sans;text-anchor:middle;" id="text1397" xml:space="preserve"><tspan x="684.047607" y="178.549026" id="tspan1398">10</tspan></text><rect width="27.1667328" height="28.3479309" x="670.370483" y="157.709" style="font-size:12;fill:none;fill-rule:evenodd;stroke:#000000;" id="rect1400"/><rect width="27.1667328" height="28.3479309" x="392.797241" y="381.539368" style="font-size:12;fill:none;fill-rule:evenodd;stroke:#000000;" id="rect1404"/><text x="406.474335" y="402.379395" style="font-size:18;font-weight:normal;stroke-width:1;font-family:Luxi Sans;text-anchor:middle;" id="text1405" xml:space="preserve"><tspan x="406.474335" y="402.379395" id="tspan1406">5</tspan></text><rect width="27.1667328" height="28.3479309" x="392.797241" y="381.539368" style="font-size:12;fill:none;fill-rule:evenodd;stroke:#000000;" id="rect1408"/><rect width="27.1667328" height="28.3479309" x="437.090851" y="382.129944" style="font-size:12;fill:none;fill-rule:evenodd;stroke:#000000;" id="rect1412"/><text x="450.767914" y="402.96994" style="font-size:18;font-weight:normal;stroke-width:1;font-family:Luxi Sans;text-anchor:middle;" id="text1413" xml:space="preserve"><tspan x="450.767914" y="402.96994" id="tspan1414">6</tspan></text><rect width="27.1667328" height="28.3479309" x="437.090851" y="382.129944" style="font-size:12;fill:none;fill-rule:evenodd;stroke:#000000;" id="rect1416"/><rect width="27.1667328" height="28.3479309" x="529.812073" y="382.720428" style="font-size:12;fill:none;fill-rule:evenodd;stroke:#000000;" id="rect1420"/><text x="543.489136" y="403.560425" style="font-size:18;font-weight:normal;stroke-width:1;font-family:Luxi Sans;text-anchor:middle;" id="text1421" xml:space="preserve"><tspan x="543.489136" y="403.560425" id="tspan1422">8</tspan></text><rect width="27.1667328" height="28.3479309" x="529.812073" y="382.720428" style="font-size:12;fill:none;fill-rule:evenodd;stroke:#000000;" id="rect1424"/><rect width="27.1667328" height="28.3479309" x="562.884644" y="382.129883" style="font-size:12;fill:none;fill-rule:evenodd;stroke:#000000;" id="rect1428"/><text x="576.561707" y="402.969879" style="font-size:18;font-weight:normal;stroke-width:1;font-family:Luxi Sans;text-anchor:middle;" id="text1429" xml:space="preserve"><tspan x="576.561707" y="402.969879" id="tspan1430">9</tspan></text><rect width="27.1667328" height="28.3479309" x="562.884644" y="382.129883" style="font-size:12;fill:none;fill-rule:evenodd;stroke:#000000;" id="rect1432"/><g transform="matrix(0.951025,0,0,0.967159,5.828634,15.81395)" style="font-size:12;" id="g704"><path d="M 568.4155 127.8717 L 577.6377 131.93 L 578.432 119.94 L 568.4155 127.8717 z " style="fill:#808080;fill-rule:evenodd;" id="path695"/><path d="M 155.0497 128.3383 C 154.7307 127.9653 154.172 127.9201 153.7972 128.237 L 152.0604 129.7053 C 151.6855 130.0222 151.6406 130.5777 151.9596 130.9507 L 330.6068 347.4786 C 330.9259 347.8516 331.4846 347.8969 331.8594 347.5799 L 333.5962 346.1116 C 332.4304 347.4863 332.6982 344.6538 333.6969 344.8662 L 155.0497 128.3383 z " transform="matrix(-0.350514,-0.792181,0.789169,-0.351981,416.7191,514.3477)" style="fill:#808080;fill-rule:evenodd;" id="path694"/></g><rect width="11.25" height="12.5" x="444.375061" y="345.486938" style="font-size:12;fill-rule:evenodd;" id="rect734"/></svg>