<svg width="1280" height="720" xmlns="http://www.w3.org/2000/svg" xmlns:xlink="http://www.w3.org/1999/xlink" overflow="hidden"><defs><clipPath id="clip0"><rect x="0" y="0" width="1280" height="720"/></clipPath></defs><g clip-path="url(#clip0)"><rect x="0" y="0" width="1280" height="720" fill="#FFFFFF"/><path d="M512.5 144.5 640.5 0.500053 640.5 0.500053 768.5 144.5Z" stroke="#FFFFFF" stroke-width="1.33333" stroke-miterlimit="8" fill="#44546A" fill-rule="evenodd" fill-opacity="0.901961"/><text fill="#FFFFFF" font-family="Arial,Arial_MSFontService,sans-serif" font-weight="400" font-size="51" transform="translate(594.023 88)">DLT</text><path d="M384.5 288.5 512.5 144.5 768.5 144.5 896.5 288.5Z" stroke="#FFFFFF" stroke-width="1.33333" stroke-miterlimit="8" fill="#4472C4" fill-rule="evenodd" fill-opacity="0.8"/><text font-family="Arial,Arial_MSFontService,sans-serif" font-weight="400" font-size="51" transform="translate(479.46 232)">Incentivization</text><path d="M256.5 432.5 384.5 288.5 896.5 288.5 1024.5 432.5Z" stroke="#FFFFFF" stroke-width="1.33333" stroke-miterlimit="8" fill="#4472C4" fill-rule="evenodd" fill-opacity="0.701961"/><text font-family="Arial,Arial_MSFontService,sans-serif" font-weight="400" font-size="51" transform="translate(513.257 376)">Consensus</text><path d="M128.5 576.5 256.5 432.5 1024.5 432.5 1152.5 576.5Z" stroke="#FFFFFF" stroke-width="1.33333" stroke-miterlimit="8" fill="#4472C4" fill-rule="evenodd" fill-opacity="0.6"/><text font-family="Arial,Arial_MSFontService,sans-serif" font-weight="400" font-size="51" transform="translate(458.347 520)">Decentralization</text><path d="M0.500053 720.5 128.499 576.5 1152.5 576.5 1280.5 720.5Z" stroke="#FFFFFF" stroke-width="1.33333" stroke-miterlimit="8" fill="#4472C4" fill-rule="evenodd" fill-opacity="0.501961"/><text font-family="Arial,Arial_MSFontService,sans-serif" font-weight="400" font-size="51" transform="translate(374.623 664)">Immutability + Atomicity</text></g></svg>