<?xml version="1.0" encoding="UTF-8" standalone="no"?>
<svg
   width="1005.5914"
   height="361.42188"
   overflow="hidden"
   version="1.1"
   id="svg33"
   sodipodi:docname="responsibilities.svg"
   inkscape:version="1.4 (e7c3feb100, 2024-10-09)"
   xmlns:inkscape="http://www.inkscape.org/namespaces/inkscape"
   xmlns:sodipodi="http://sodipodi.sourceforge.net/DTD/sodipodi-0.dtd"
   xmlns="http://www.w3.org/2000/svg"
   xmlns:svg="http://www.w3.org/2000/svg">
  <defs
     id="defs33" />
  <sodipodi:namedview
     id="namedview33"
     pagecolor="#ffffff"
     bordercolor="#666666"
     borderopacity="1.0"
     inkscape:showpageshadow="2"
     inkscape:pageopacity="0.0"
     inkscape:pagecheckerboard="0"
     inkscape:deskcolor="#d1d1d1"
     inkscape:zoom="0.69925004"
     inkscape:cx="-136.57489"
     inkscape:cy="215.94564"
     inkscape:window-width="3072"
     inkscape:window-height="1652"
     inkscape:window-x="0"
     inkscape:window-y="0"
     inkscape:window-maximized="1"
     inkscape:current-layer="svg33" />
  <g
     id="g4"
     transform="translate(-131.84056,-53.783203)">
    <g
       id="g3">
      <g
         id="g2">
        <path
           d="m 526.799,86.1373 c 0,0.544 0,1.088 0,1.6157 v 13.899 l 3.632,1.284 c 5.384,1.9 10.371,4.779 14.709,8.492 l 2.927,2.505 3.332,-1.926 8.72,-5.032 c 0.601,-0.351 1.216,-0.712 1.815,-1.071 l 12.737,20.859 -1.196,0.705 -9.923,4.947 -3.672,1.831 0.748,4.031 c 1.05,5.624 1.05,11.395 0,17.019 l -0.748,4.031 3.672,1.831 9.942,4.955 c 0.31,0.18 0.62,0.354 0.922,0.525 l -12.36,21.086 c -0.647,-0.378 -1.308,-0.764 -1.95,-1.132 l -8.704,-5.029 -3.335,-1.923 -2.927,2.502 c -4.323,3.721 -9.305,6.599 -14.688,8.484 l -3.642,1.276 v 13.915 c 0,0.544 0,1.088 0,1.632 h -23.705 c 0,-0.544 0,-1.088 0,-1.632 v -13.896 l -3.623,-1.287 c -5.384,-1.9 -10.371,-4.779 -14.709,-8.492 l -2.927,-2.502 -3.329,1.904 -8.704,4.997 v 0 0 c -0.544,0.318 -1.113,0.636 -1.665,0.943 L 455.41,166.747 c 0.381,-0.209 0.765,-0.427 1.145,-0.647 l 9.82,-4.956 3.647,-1.839 -0.748,-4.014 c -1.05,-5.613 -1.05,-11.372 0,-16.984 l 0.743,-4.001 -3.629,-1.842 -9.844,-4.996 -0.952,-0.544 12.186,-21.072 2.016,1.164 8.704,5.027 3.334,1.925 2.924,-2.505 c 4.325,-3.718 9.307,-6.595 14.688,-8.483 l 3.645,-1.273 V 86.1563 l 23.705,-0.019 m 5.296,-5.44 -34.406,0.0299 c 0,0 -0.035,3.5904 -0.035,7.0312 v 10.0803 c -6.018,2.1171 -11.589,5.3343 -16.431,9.4873 l -8.704,-5.026 c -3.022,-1.736 -6.746,-3.8574 -6.746,-3.8574 l -17.68,30.5754 c 0,0 2.84,1.502 5.864,3.24 l 9.966,5.056 c -1.169,6.271 -1.169,12.704 0,18.975 l -9.958,5.026 c -3.024,1.766 -6.256,3.264 -6.256,3.264 l 18.464,30.16 c 0,0 3.354,-1.73 6.346,-3.466 l 8.704,-4.999 c 4.848,4.144 10.418,7.36 16.431,9.487 v 10.064 c 0,3.504 0.155,7.072 0.155,7.072 h 34.381 c 0,0 0.065,-3.59 0.065,-7.072 v -10.064 c 6.018,-2.115 11.589,-5.332 16.429,-9.487 l 8.704,5.029 c 3.022,1.736 6.599,3.89 6.599,3.89 l 17.938,-30.611 c 0,0 -2.839,-1.531 -5.861,-3.264 l -10.086,-5.026 c 1.167,-6.282 1.167,-12.724 0,-19.005 l 10.091,-5.029 c 3.022,-1.768 6.101,-3.659 6.101,-3.659 L 563.737,98.4072 c 0,0 -3.357,2.1218 -6.349,3.8568 l -8.703,5.027 c -4.849,-4.143 -10.418,-7.3587 -16.429,-9.4876 v -10.064 c 0,-3.5007 -0.155,-7.072 -0.155,-7.072 z"
           fill="#040066"
           id="path1" />
        <path
           d="m 540.484,146.785 c 0,14.109 -11.438,25.546 -25.547,25.546 -14.108,0 -25.546,-11.437 -25.546,-25.546 0,-14.109 11.438,-25.546 25.546,-25.546 14.109,0 25.547,11.437 25.547,25.546 z"
           stroke="#040066"
           stroke-width="5.44"
           stroke-linecap="round"
           stroke-linejoin="round"
           fill="none"
           id="path2" />
      </g>
    </g>
  </g>
  <g
     id="g7"
     transform="translate(-131.84056,-53.783203)">
    <g
       id="g6">
      <g
         id="g5">
        <path
           d="m 79.2126,7.0848 c 0,0.54 0,1.08 0,1.6038 v 13.797 l 3.6045,1.2744 c 5.3449,1.8864 10.2951,4.7442 14.6016,8.4294 l 2.9053,2.4867 3.307,-1.9116 8.657,-4.995 c 0.596,-0.3483 1.207,-0.7074 1.801,-1.0638 l 12.644,20.7063 -1.188,0.6993 -9.85,4.9113 -3.645,1.8171 0.743,4.0014 c 1.042,5.5831 1.042,11.3108 0,16.8939 l -0.743,4.0014 3.645,1.8171 9.868,4.9194 c 0.308,0.1782 0.616,0.351 0.916,0.5211 l -12.269,20.93 c -0.643,-0.375 -1.299,-0.758 -1.936,-1.123 l -8.64,-4.992 -3.31,-1.909 -2.9053,2.484 c -4.2911,3.693 -9.2364,6.55 -14.58,8.421 l -3.6153,1.267 v 13.813 c 0,0.54 0,1.08 0,1.62 H 55.6929 c 0,-0.54 0,-1.08 0,-1.62 V 112.09 l -3.5964,-1.277 c -5.3452,-1.886 -10.2954,-4.743 -14.6016,-8.429 l -2.9052,-2.484 -3.3048,1.89 -8.64,4.96 v 0 0 c -0.54,0.316 -1.1043,0.632 -1.6524,0.937 L 8.3484,87.102 c 0.378,-0.2079 0.7587,-0.4239 1.1367,-0.6426 l 9.747,-4.9194 3.6207,-1.8252 -0.7425,-3.9852 c -1.0422,-5.5712 -1.0422,-11.2876 0,-16.8588 l 0.7371,-3.9717 -3.6018,-1.8279 -9.7713,-4.9599 -0.945,-0.54 12.096,-20.9169 2.0007,1.1556 8.64,4.9896 3.3102,1.9116 2.9025,-2.4867 c 4.2927,-3.6909 9.2378,-6.5471 14.58,-8.4213 l 3.618,-1.2636 V 7.1037 L 79.2072,7.0848 m 5.2569,-5.4 -34.1523,0.0297 c 0,0 -0.0351,3.564 -0.0351,6.9795 v 10.0062 c -5.9735,2.1015 -11.5042,5.295 -16.3107,9.4176 l -8.64,-4.9896 C 22.3263,21.4056 18.63,19.2996 18.63,19.2996 L 1.08,49.6503 c 0,0 2.8188,1.4904 5.8212,3.2157 l 9.8928,5.0193 c -1.161,6.2249 -1.161,12.6104 0,18.8352 l -9.8847,4.9896 c -3.0024,1.7523 -6.21,3.24 -6.21,3.24 l 18.3276,29.9379 c 0,0 3.3291,-1.717 6.2991,-3.44 l 8.64,-4.963 c 4.8128,4.114 10.3418,7.307 16.3107,9.418 v 9.99 c 0,3.477 0.1539,7.02 0.1539,7.02 h 34.128 c 0,0 0.0648,-3.564 0.0648,-7.02 v -9.99 c 5.9735,-2.1 11.5039,-5.293 16.3076,-9.418 l 8.64,4.993 c 3,1.722 6.551,3.861 6.551,3.861 l 17.806,-30.3862 c 0,0 -2.819,-1.5201 -5.818,-3.24 l -10.012,-4.9896 c 1.158,-6.2348 1.158,-12.6301 0,-18.8649 l 10.017,-4.9923 c 3,-1.755 6.056,-3.6315 6.056,-3.6315 l -18.292,-29.97 c 0,0 -3.332,2.106 -6.302,3.8286 l -8.64,4.9896 C 96.1238,23.9706 90.5961,20.7784 84.6288,18.6651 v -9.99 c 0,-3.4749 -0.1539,-7.02 -0.1539,-7.02 z"
           fill="#040066"
           transform="matrix(1.00741,0,0,1,572,108)"
           id="path4" />
        <path
           d="m 92.7963,67.2867 c 0,14.0051 -11.3533,25.3584 -25.3584,25.3584 -14.0051,0 -25.3584,-11.3533 -25.3584,-25.3584 0,-14.0051 11.3533,-25.3584 25.3584,-25.3584 14.0051,0 25.3584,11.3534 25.3584,25.3584 z"
           stroke="#040066"
           stroke-width="5.4"
           stroke-linecap="round"
           stroke-linejoin="round"
           fill="none"
           transform="matrix(1.00741,0,0,1,572,108)"
           id="path5" />
      </g>
    </g>
  </g>
  <g
     id="g10"
     transform="translate(-131.84056,-53.783203)">
    <g
       id="g9">
      <g
         id="g8">
        <path
           d="m 79.2126,7.0848 c 0,0.54 0,1.08 0,1.6038 v 13.797 l 3.6045,1.2744 c 5.3449,1.8864 10.2951,4.7442 14.6016,8.4294 l 2.9053,2.4867 3.307,-1.9116 8.657,-4.995 c 0.596,-0.3483 1.207,-0.7074 1.801,-1.0638 l 12.644,20.7063 -1.188,0.6993 -9.85,4.9113 -3.645,1.8171 0.743,4.0014 c 1.042,5.5831 1.042,11.3108 0,16.8939 l -0.743,4.0014 3.645,1.8171 9.868,4.9194 c 0.308,0.1782 0.616,0.351 0.916,0.5211 l -12.269,20.93 c -0.643,-0.375 -1.299,-0.758 -1.936,-1.123 l -8.64,-4.992 -3.31,-1.909 -2.9053,2.484 c -4.2911,3.693 -9.2364,6.55 -14.58,8.421 l -3.6153,1.267 v 13.813 c 0,0.54 0,1.08 0,1.62 H 55.6929 c 0,-0.54 0,-1.08 0,-1.62 V 112.09 l -3.5964,-1.277 c -5.3452,-1.886 -10.2954,-4.743 -14.6016,-8.429 l -2.9052,-2.484 -3.3048,1.89 -8.64,4.96 v 0 0 c -0.54,0.316 -1.1043,0.632 -1.6524,0.937 L 8.3484,87.102 c 0.378,-0.2079 0.7587,-0.4239 1.1367,-0.6426 l 9.747,-4.9194 3.6207,-1.8252 -0.7425,-3.9852 c -1.0422,-5.5712 -1.0422,-11.2876 0,-16.8588 l 0.7371,-3.9717 -3.6018,-1.8279 -9.7713,-4.9599 -0.945,-0.54 12.096,-20.9169 2.0007,1.1556 8.64,4.9896 3.3102,1.9116 2.9025,-2.4867 c 4.2927,-3.6909 9.2378,-6.5471 14.58,-8.4213 l 3.618,-1.2636 V 7.1037 L 79.2072,7.0848 m 5.2569,-5.4 -34.1523,0.0297 c 0,0 -0.0351,3.564 -0.0351,6.9795 v 10.0062 c -5.9735,2.1015 -11.5042,5.295 -16.3107,9.4176 l -8.64,-4.9896 C 22.3263,21.4056 18.63,19.2996 18.63,19.2996 L 1.08,49.6503 c 0,0 2.8188,1.4904 5.8212,3.2157 l 9.8928,5.0193 c -1.161,6.2249 -1.161,12.6104 0,18.8352 l -9.8847,4.9896 c -3.0024,1.7523 -6.21,3.24 -6.21,3.24 l 18.3276,29.9379 c 0,0 3.3291,-1.717 6.2991,-3.44 l 8.64,-4.963 c 4.8128,4.114 10.3418,7.307 16.3107,9.418 v 9.99 c 0,3.477 0.1539,7.02 0.1539,7.02 h 34.128 c 0,0 0.0648,-3.564 0.0648,-7.02 v -9.99 c 5.9735,-2.1 11.5039,-5.293 16.3076,-9.418 l 8.64,4.993 c 3,1.722 6.551,3.861 6.551,3.861 l 17.806,-30.3862 c 0,0 -2.819,-1.5201 -5.818,-3.24 l -10.012,-4.9896 c 1.158,-6.2348 1.158,-12.6301 0,-18.8649 l 10.017,-4.9923 c 3,-1.755 6.056,-3.6315 6.056,-3.6315 l -18.292,-29.97 c 0,0 -3.332,2.106 -6.302,3.8286 l -8.64,4.9896 C 96.1238,23.9706 90.5961,20.7784 84.6288,18.6651 v -9.99 c 0,-3.4749 -0.1539,-7.02 -0.1539,-7.02 z"
           fill="#040066"
           transform="matrix(1.00741,0,0,1,697,82)"
           id="path7" />
        <path
           d="m 92.7963,67.2867 c 0,14.0051 -11.3533,25.3584 -25.3584,25.3584 -14.0051,0 -25.3584,-11.3533 -25.3584,-25.3584 0,-14.0051 11.3533,-25.3584 25.3584,-25.3584 14.0051,0 25.3584,11.3534 25.3584,25.3584 z"
           stroke="#040066"
           stroke-width="5.4"
           stroke-linecap="round"
           stroke-linejoin="round"
           fill="none"
           transform="matrix(1.00741,0,0,1,697,82)"
           id="path8" />
      </g>
    </g>
  </g>
  <text
     fill="#4472c4"
     font-family="Arial, Arial_MSFontService, sans-serif"
     font-weight="700"
     font-size="21px"
     id="text10"
     x="-0.83056641"
     y="15.216797">Central Bank</text>
  <text
     font-family="Arial, Arial_MSFontService, sans-serif"
     font-weight="400"
     font-size="21px"
     id="text11"
     x="-0.83056641"
     y="53.216797">•</text>
  <text
     font-family="Arial, Arial_MSFontService, sans-serif"
     font-weight="400"
     font-size="21px"
     id="text12"
     x="35.169434"
     y="53.216797">Issuance &amp; Management</text>
  <text
     font-family="Arial, Arial_MSFontService, sans-serif"
     font-weight="400"
     font-size="21px"
     id="text13"
     x="35.169434"
     y="80.216797">of CBDC</text>
  <text
     font-family="Arial, Arial_MSFontService, sans-serif"
     font-weight="400"
     font-size="21px"
     id="text14"
     x="-0.83056641"
     y="107.2168">•</text>
  <text
     font-family="Arial, Arial_MSFontService, sans-serif"
     font-weight="400"
     font-size="21px"
     id="text15"
     x="35.169434"
     y="107.2168">Financial stability</text>
  <text
     font-family="Arial, Arial_MSFontService, sans-serif"
     font-weight="400"
     font-size="21px"
     id="text16"
     x="-0.83056641"
     y="135.2168">•</text>
  <text
     font-family="Arial, Arial_MSFontService, sans-serif"
     font-weight="400"
     font-size="21px"
     id="text17"
     x="35.169434"
     y="135.2168">Payment efficiency &amp;</text>
  <text
     font-family="Arial, Arial_MSFontService, sans-serif"
     font-weight="400"
     font-size="21px"
     id="text18"
     x="35.169434"
     y="162.2168">integrity</text>
  <text
     fill="#4472c4"
     font-family="Arial, Arial_MSFontService, sans-serif"
     font-weight="700"
     font-size="21px"
     id="text19"
     x="733.98743"
     y="17.216797">Public Sector</text>
  <text
     font-family="Arial, Arial_MSFontService, sans-serif"
     font-weight="400"
     font-size="21px"
     id="text20"
     x="733.98743"
     y="55.216797">•</text>
  <text
     font-family="Arial, Arial_MSFontService, sans-serif"
     font-weight="400"
     font-size="21px"
     id="text21"
     x="769.98743"
     y="55.216797">Ensure financial inclusion</text>
  <text
     font-family="Arial, Arial_MSFontService, sans-serif"
     font-weight="400"
     font-size="21px"
     id="text22"
     x="733.98743"
     y="82.216797">•</text>
  <text
     font-family="Arial, Arial_MSFontService, sans-serif"
     font-weight="400"
     font-size="21px"
     id="text23"
     x="769.98743"
     y="82.216797">Regulatory oversight</text>
  <text
     font-family="Arial, Arial_MSFontService, sans-serif"
     font-weight="400"
     font-size="21px"
     id="text24"
     x="733.98743"
     y="109.2168">•</text>
  <text
     font-family="Arial, Arial_MSFontService, sans-serif"
     font-weight="400"
     font-size="21px"
     id="text25"
     x="769.98743"
     y="109.2168">Fraud detection &amp;</text>
  <text
     font-family="Arial, Arial_MSFontService, sans-serif"
     font-weight="400"
     font-size="21px"
     id="text26"
     x="769.98743"
     y="137.2168">investigation</text>
  <text
     fill="#4472c4"
     font-family="Arial, Arial_MSFontService, sans-serif"
     font-weight="700"
     font-size="21px"
     id="text27"
     x="366.57843"
     y="241.2168">Private Sector</text>
  <text
     font-family="Arial, Arial_MSFontService, sans-serif"
     font-weight="400"
     font-size="21px"
     id="text28"
     x="366.57843"
     y="279.2168">•</text>
  <text
     font-family="Arial, Arial_MSFontService, sans-serif"
     font-weight="400"
     font-size="21px"
     id="text29"
     x="402.57843"
     y="279.2168">Distribution &amp; custody of</text>
  <text
     font-family="Arial, Arial_MSFontService, sans-serif"
     font-weight="400"
     font-size="21px"
     id="text30"
     x="402.57843"
     y="306.2168">CBDC</text>
  <text
     font-family="Arial, Arial_MSFontService, sans-serif"
     font-weight="400"
     font-size="21px"
     id="text31"
     x="366.57843"
     y="333.2168">•</text>
  <text
     font-family="Arial, Arial_MSFontService, sans-serif"
     font-weight="400"
     font-size="21px"
     id="text32"
     x="402.57843"
     y="333.2168">Providing additional</text>
  <text
     font-family="Arial, Arial_MSFontService, sans-serif"
     font-weight="400"
     font-size="21px"
     id="text33"
     x="402.57843"
     y="361.2168">innovative services</text>
</svg>
