<?xml version="1.0" encoding="UTF-8" standalone="no"?>
<svg
   height="1100.085"
   version="1.1"
   width="620.25"
   style="overflow:hidden"
   viewBox="0 0 620.25 1100.085"
   preserveAspectRatio="xMinYMin"
   id="svg32"
   sodipodi:docname="map.svg"
   inkscape:version="1.4.2 (ebf0e940d0, 2025-05-08)"
   xmlns:inkscape="http://www.inkscape.org/namespaces/inkscape"
   xmlns:sodipodi="http://sodipodi.sourceforge.net/DTD/sodipodi-0.dtd"
   xmlns="http://www.w3.org/2000/svg"
   xmlns:svg="http://www.w3.org/2000/svg">
  <sodipodi:namedview
     id="namedview32"
     pagecolor="#ffffff"
     bordercolor="#666666"
     borderopacity="1.0"
     inkscape:showpageshadow="2"
     inkscape:pageopacity="0.0"
     inkscape:pagecheckerboard="false"
     inkscape:deskcolor="#d1d1d1"
     showborder="true"
     inkscape:zoom="1.6770216"
     inkscape:cx="-39.653634"
     inkscape:cy="713.46726"
     inkscape:window-width="3072"
     inkscape:window-height="1651"
     inkscape:window-x="0"
     inkscape:window-y="0"
     inkscape:window-maximized="1"
     inkscape:current-layer="layer1" />
  <desc
     id="desc32">Created with Raphaël 2.1.0</desc>
  <defs
     id="defs32">
    <inkscape:path-effect
       effect="spiro"
       id="path-effect41"
       is_visible="true"
       lpeversion="1" />
    <inkscape:path-effect
       effect="spiro"
       id="path-effect40"
       is_visible="true"
       lpeversion="1" />
  </defs>
  <g
     inkscape:groupmode="layer"
     id="layer2"
     inkscape:label="Map">
    <path
       style="overflow:hidden;opacity:1;fill-opacity:1;stroke-linejoin:round;stroke-opacity:1"
       fill="#88a4bc"
       stroke="#ffffff"
       d="m 80.085,715.845 -0.72,-16.56 -10.2,-54.96 -0.48,-9.6 0.48,-9.6 3,-7.68 4.2,-7.08 1.08,-3.24 1.92,-2.76 3.96,-0.96 3.36,-1.8 -1.56,-2.64 -3.36,-0.84 1.32,-3.6 1.92,-3.24 3.6,-1.08 3.96,-0.36 3,-1.2 1.92,-2.64 -1.08,-2.88 -1.44,-3.12 0.84,-7.44 2.64,-6.72 0.48,-3.36 1.08,-3 3.6,-1.92 3.36,-2.28 0.72,-3 1.32,-2.88 5.88,-3 1.08,-2.52 0.48,-2.88 1.68,-3.84 4.08,-1.92 -0.24,0.48 -0.24,0.48 1.68,-0.48 2.16,-2.28 0.12,-3.36 1.56,-2.76 5.76,3.24 3.48,-2.64 -3.36,-6.24 1.68,-3.24 2.04,-3.12 0.24,-6.36 -0.24,-7.56 1.08,-3.6 0.72,-3.36 -3.24,-2.16 -3.84,-1.32 -2.64,-4.92 -0.96,-5.52 -2.88,-11.04 0.12,-5.64 -0.6,-5.28 6,3.36 25.56,11.64 5.4,1.44 5.28,2.16 4.2,2.88 5.04,0.84 9.24,3.48 8.28,6.84 4.56,4.56 5.04,3.12 5.16,-0.24 4.2,3.48 v 3.48 l -0.48,3.48 0.84,6 -0.36,5.04 0.48,4.92 3.84,1.56 4.56,0.36 2.28,3.84 0.72,4.68 2.52,6.48 1.44,6.6 -1.08,9.72 7.08,6.72 -1.32,4.56 0.72,4.92 2.4,1.32 2.16,0.6 1.92,4.44 2.76,4.56 1.92,4.8 v 4.8 l 1.08,0.72 1.32,2.04 0.84,9.24 1.56,8.64 5.04,5.04 -0.12,3.24 -0.84,3.24 0.12,2.52 -0.96,2.4 -3.96,3.6 -0.72,5.88 2.76,5.64 1.68,2.76 1.44,3 0.84,3.48 -0.6,3.36 -1.56,2.04 -0.12,2.88 -3.36,1.56 -3.24,0.84 2.28,3.6 1.56,3.72 -2.88,1.44 -4.08,-0.6 -3.96,2.16 0.36,3.12 -0.36,2.88 -4.8,-0.36 -4.2,-3 h -4.08 l -0.84,5.52 -1.2,1.56 -0.96,1.68 0.24,1.8 0.48,1.32 -4.92,1.44 -5.76,-0.6 -2.52,-5.4 -4.08,-4.2 -6.6,-0.84 -6.12,2.4 -0.96,5.28 0.36,5.76 -0.96,3.24 -1.92,2.76 -3,0.12 -13.56,3 -6.48,3 -6,4.32 -5.76,5.16 -5.64,3.24 -4.8,-3.48 -6.84,-7.92 -1.68,-2.28 -0.72,-2.4 -2.52,-2.76 -7.68,1.44 -6.84,4.8 -7.92,2.28 -7.68,-5.28 -6.6,0.24 -10.56,8.28 z"
       class="sm_state sm_state_LK61"
       opacity="1"
       stroke-opacity="1"
       stroke-width="2.25"
       stroke-linejoin="round"
       fill-opacity="1"
       id="path1" />
    <path
       style="overflow:hidden;opacity:1;fill-opacity:1;stroke-linejoin:round;stroke-opacity:1"
       fill="#88a4bc"
       stroke="#ffffff"
       d="m 72.165,353.445 3.12,1.92 7.32,2.76 8.16,0.72 7.08,3 7.44,4.2 1.56,11.52 -5.04,10.68 -8.64,7.08 -0.36,2.04 -1.2,2.52 -4.68,2.16 -3.12,6.84 4.08,7.92 6.96,28.08 1.68,5.04 h 5.76 l 4.68,-2.16 4.92,3.72 5.64,-0.24 4.08,3.36 3,3.96 0.6,5.28 -0.12,5.64 2.88,11.04 0.96,5.52 2.64,4.92 3.84,1.32 3.24,2.16 -0.72,3.36 -1.08,3.6 0.24,7.56 -0.24,6.36 -2.04,3.12 -1.68,3.24 3.36,6.24 -3.48,2.64 -5.76,-3.24 -1.56,2.76 -0.12,3.36 -2.16,2.28 -1.68,0.48 0.24,-0.48 0.24,-0.48 -4.08,1.92 -1.68,3.84 -0.48,2.88 -1.08,2.52 -5.88,3 -1.32,2.88 -0.72,3 -3.36,2.28 -3.6,1.92 -1.08,3 -0.48,3.36 -2.64,6.72 -0.84,7.44 1.44,3.12 1.08,2.88 -1.92,2.64 -3,1.2 -3.96,0.36 -3.6,1.08 -1.92,3.24 -1.32,3.6 3.36,0.84 1.56,2.64 -3.36,1.8 -3.96,0.96 -1.92,2.76 -1.08,3.24 -4.2,7.08 -3,7.68 -0.48,9.6 0.48,9.6 10.2,54.96 0.72,16.56 -4.8,-1.92 -4.08,2.64 -3.24,-0.48 -2.16,-2.4 -5.4,0.72 -5.16,1.32 -6.6,-0.24 -11.88,-87.6 -1.68,-3.6 1.08,-1.2 0.84,-0.12 2.04,1.32 0.48,-4.8 1.32,-5.64 0.36,-2.64 0.36,-2.76 -1.56,-4.2 -2.16,-3.84 -0.36,-2.52 -0.36,-2.52 v -10.32 l -6.36,-31.32 -0.84,-3.6 -3.24,-6.84 -2.76,-14.52 -4.56,-11.4 -6.96,-31.44 v -9 l 1.2,0.6 0.12,0.12 v 0.24 l 0.6,0.96 0.96,-5.16 -1.44,-16.56 -1.44,-4.92 4.56,-3 4.32,-5.64 3.12,-6.36 1.2,-5.28 1.32,-3.48 8.16,-12.96 -0.12,0.24 -4.08,9.84 -5.28,9.24 1.2,2.28 0.24,0.48 2.04,2.16 2.64,0.96 h 3.36 l -2.76,7.68 -2.76,5.52 -1.2,0.96 -1.32,0.12 -0.96,0.84 -0.48,2.88 0.24,6.72 -0.24,2.04 -4.68,14.88 0.24,2.88 0.36,5.52 4.8,5.76 1.32,1.56 -5.52,11.64 8.88,6.48 12.84,0.96 6.48,-4.68 -1.2,-4.92 -2.16,-3.84 -0.72,-1.56 -1.08,-1.2 -2.4,-3.12 -2.76,-1.8 -0.84,-3 9.36,-17.76 -0.36,-3.24 -1.2,-2.4 -1.44,-2.04 -0.84,-2.04 -0.24,-3.36 0.36,-5.88 -0.12,-2.28 v -0.12 l -0.12,-0.48 -0.72,-1.92 -0.48,-0.48 -0.6,-0.48 -0.48,-1.2 0.48,-3.12 1.32,-2.64 3.6,-4.68 0.84,-3.12 0.6,-5.88 2.52,-11.64 2.64,-27.36 1.68,-3.12 1.8,-1.56 1.44,-1.8 0.6,-4.08 v -11.64 l 1.56,-5.76 3.72,-3.6 4.56,-3.12 z"
       class="sm_state sm_state_LK62"
       opacity="1"
       stroke-opacity="1"
       stroke-width="2.25"
       stroke-linejoin="round"
       fill-opacity="1"
       id="path2" />
    <path
       style="overflow:hidden;opacity:1;fill-opacity:1;stroke-linejoin:round;stroke-opacity:1"
       fill="#88a4bc"
       stroke="#ffffff"
       d="m 224.445,784.485 0.24,-5.52 1.92,-4.32 -1.92,-3.48 -4.2,-10.08 3.12,-2.88 9.6,-1.56 4.32,-4.68 3,-0.24 3,-0.72 2.16,-3.36 1.56,-3.72 -3.12,-4.08 -4.08,-3.96 v -4.08 l 0.6,-4.92 -3.36,-4.08 -6.96,-3.96 -2.4,-1.68 0.48,-5.4 -12,-10.44 -3.36,-8.52 5.76,0.6 4.92,-1.44 -0.48,-1.32 -0.24,-1.8 0.96,-1.68 1.2,-1.56 0.84,-5.52 h 4.08 l 4.2,3 4.8,0.36 0.36,-2.88 -0.36,-3.12 3.96,-2.16 4.08,0.6 2.88,-1.44 -1.56,-3.72 -2.28,-3.6 3.24,-0.84 3.36,-1.56 5.64,7.92 17.64,11.04 10.08,0.6 6,-6.6 -0.96,-10.2 1.68,-4.32 3.84,-2.4 4.08,1.68 10.32,8.52 7.92,-1.2 8.76,-7.32 11.4,0.12 4.56,-2.28 3.36,4.2 2.04,-1.08 1.68,-1.56 3.12,-5.16 5.64,-0.84 8.76,0.96 2.4,42.12 6,20.16 -0.48,9.12 -7.44,6.84 -5.88,1.68 -3.48,2.16 -11.52,-2.28 -11.88,1.68 -10.08,-0.72 -6.36,-10.08 -2.4,-0.24 -2.88,-1.08 -3.96,-5.28 -4.8,-4.32 0.84,8.04 2.52,10.44 -5.64,9.48 -17.76,21.12 -4.8,-1.2 -5.4,0.12 -8.04,5.52 -5.52,1.2 -10.08,-1.2 -6.24,5.04 2.28,-0.72 2.16,0.96 4.92,9 4.08,3.96 3.24,4.44 -3.24,9.36 -6,6.36 -8.04,-4.8 -12.48,-18.48 z"
       class="sm_state sm_state_LK21"
       opacity="1"
       stroke-opacity="1"
       stroke-width="2.25"
       stroke-linejoin="round"
       fill-opacity="1"
       id="path3" />
    <path
       style="overflow:hidden;opacity:1;fill-opacity:1;stroke-linejoin:round;stroke-opacity:1"
       fill="#88a4bc"
       stroke="#ffffff"
       d="m 320.205,850.365 -15.72,8.16 -8.64,1.2 -9.12,-0.36 -6.84,0.6 -5.88,0.96 -15.12,-2.04 -14.4,-3.24 -6.72,-0.6 -5.76,-4.32 1.08,-2.88 2.04,-1.92 -1.8,-2.04 0.12,-4.56 3.24,-2.88 -0.48,-3.72 -2.16,-7.32 -6.36,-4.8 -8.04,-2.52 -2.4,-8.04 1.92,-10.44 -1.8,-1.8 -1.44,-2.04 1.44,-2.16 2.16,-0.72 3.84,-3.36 2.4,-3.96 -0.96,-0.24 -0.36,-0.84 7.92,0.72 12.48,18.48 8.04,4.8 6,-6.36 3.24,-9.36 -3.24,-4.44 -4.08,-3.96 -4.92,-9 -2.16,-0.96 -2.28,0.72 6.24,-5.04 10.08,1.2 5.52,-1.2 8.04,-5.52 5.4,-0.12 4.8,1.2 17.76,-21.12 5.64,-9.48 -2.52,-10.44 -0.84,-8.04 4.8,4.32 3.96,5.28 2.88,1.08 2.4,0.24 6.36,10.08 10.08,0.72 11.88,-1.68 11.52,2.28 -0.24,5.04 2.04,6.96 -0.6,2.52 0.6,2.4 1.2,1.44 1.08,1.44 -1.92,2.4 -1.32,2.52 1.44,4.92 0.48,1.92 -0.96,2.04 -1.8,2.4 -2.28,2.04 -2.52,4.92 -1.2,5.4 -6.12,9.12 -10.56,2.28 -4.92,2.4 -4.44,4.08 -1.32,5.52 -3.72,4.2 -5.16,-0.24 -5.04,0.24 0.36,4.44 8.76,4.44 1.92,3.84 1.56,4.32 1.44,1.68 1.08,1.92 -4.08,6.6 2.52,1.68 2.52,1.2 -2.76,4.08 z"
       class="sm_state sm_state_LK23"
       opacity="1"
       stroke-opacity="1"
       stroke-width="2.25"
       stroke-linejoin="round"
       fill-opacity="1"
       id="path4" />
    <path
       style="overflow:hidden;opacity:1;fill-opacity:1;stroke-linejoin:round;stroke-opacity:1"
       fill="#88a4bc"
       stroke="#ffffff"
       d="m 369.885,591.285 -0.24,4.68 2.04,6.36 0.6,5.28 -2.64,13.32 -2.76,13.08 1.44,22.8 -8.76,-0.96 -5.64,0.84 -3.12,5.16 -1.68,1.56 -2.04,1.08 -3.36,-4.2 -4.56,2.28 -11.4,-0.12 -8.76,7.32 -7.92,1.2 -10.32,-8.52 -4.08,-1.68 -3.84,2.4 -1.68,4.32 0.96,10.2 -6,6.6 -10.08,-0.6 -17.64,-11.04 -5.64,-7.92 0.12,-2.88 1.56,-2.04 0.6,-3.36 -0.84,-3.48 -1.44,-3 -1.68,-2.76 -2.76,-5.64 0.72,-5.88 3.96,-3.6 0.96,-2.4 -0.12,-2.52 0.84,-3.24 0.12,-3.24 -5.04,-5.04 -1.56,-8.64 -0.84,-9.24 -1.32,-2.04 -1.08,-0.72 v -4.8 l -1.92,-4.8 -2.76,-4.56 -1.92,-4.44 -2.16,-0.6 -2.4,-1.32 -0.72,-4.92 1.32,-4.56 5.88,-4.32 9.24,-3.48 4.92,-5.88 4.44,0.12 3.36,2.16 4.08,-2.76 2.04,-3.36 1.92,-1.44 1.8,-0.96 -0.12,-2.04 -0.72,-1.32 3.6,-3.6 2.64,-4.08 v -5.16 l 1.44,-4.56 h 2.88 l 2.04,0.6 1.56,-1.2 5.4,-5.64 3.6,-3.12 5.28,-2.64 5.76,-2.4 2.4,2.4 3.84,4.32 -0.12,4.92 1.56,1.56 2.28,0.96 1.8,-1.2 0.12,-1.8 3.36,-1.56 3.24,0.96 4.32,0.84 4.08,2.52 -8.28,8.64 -2.76,13.2 -0.72,6.48 -2.64,11.28 -0.96,1.92 -0.48,2.04 -8.04,1.8 -1.92,7.68 3.72,16.92 -0.48,5.52 2.76,3.84 7.32,1.56 6.96,-2.88 5.4,-5.04 2.4,3.36 4.32,2.64 1.2,-4.92 0.6,-4.92 14.76,0.96 z"
       class="sm_state sm_state_LK22"
       opacity="1"
       stroke-opacity="1"
       stroke-width="2.25"
       stroke-linejoin="round"
       fill-opacity="1"
       id="path5" />
    <path
       style="overflow:hidden;opacity:1;fill-opacity:1;stroke-linejoin:round;stroke-opacity:1"
       fill="#88a4bc"
       stroke="#ffffff"
       d="m 351.525,236.805 -4.32,1.92 -5.28,1.56 -4.8,2.76 -5.4,1.56 -12.72,1.68 -10.92,5.04 5.16,-18.96 -3.36,-4.44 -8.88,-5.4 -8.64,-1.32 -4.08,2.76 -4.32,1.08 0.48,-3.84 2.64,-3.96 -3.24,-5.64 -7.44,-0.84 -0.96,-9 -8.64,-3.24 -9,0.24 -0.6,1.32 -0.48,1.44 -2.64,1.56 -2.76,1.32 -4.8,4.2 -6.72,3 -4.32,-6.36 -6.84,-4.32 -9.6,0.24 -5.28,-0.36 -5.04,0.48 -0.72,4.08 2.16,3 4.08,0.6 0.24,2.28 v 2.52 l 1.08,4.8 0.24,4.68 -4.92,7.56 -7.68,6.24 -12.84,8.16 -45.72,2.4 3.6,-10.08 -1.32,-1.92 -1.32,-2.52 0.96,-3.24 1.44,-3.12 0.96,-3.12 1.2,-2.76 6.12,-2.04 0.36,-5.76 -0.6,-6.6 1.08,-4.08 0.12,-4.2 -0.24,-2.16 -0.6,-1.92 -5.04,-8.16 -1.68,-9.12 -0.36,-9.6 7.32,0.96 -0.72,-7.8 7.2,-9.48 21.24,-2.4 7.56,-0.12 7.44,1.32 7.32,-0.72 4.8,-12.12 3.72,-0.12 12.6,0.72 6.96,-0.48 4.68,-2.52 3.84,-12.72 1.32,-0.36 2.04,2.64 5.52,4.56 6.24,3.48 -0.72,-6.36 0.84,-6.36 5.88,-4.68 0.6,-4.68 1.32,-1.32 1.44,-0.96 1.68,-1.44 32.76,26.64 0.24,0.48 2.04,3.24 3,3.96 6,5.64 3.72,4.8 -3.24,1.8 h -0.12 l -1.8,-0.84 -0.24,-0.12 h -0.12 l -2.88,-3.72 -1.56,-0.84 -5.04,-0.84 -2.16,0.6 1.08,2.28 0.36,0.72 14.28,13.44 5.64,3.12 -2.16,-3.48 -1.32,-3.24 0.6,-2.28 3.84,-0.96 1.8,1.2 3,8.76 2.64,5.28 10.56,21.12 -2.16,-0.72 -5.88,-2.28 h -3.6 l -1.56,3.96 2.16,0.96 4.44,0.84 4.08,2.52 v 0.36 l 0.6,6 h 1.92 l 0.84,-1.56 0.84,-0.72 0.96,-0.48 1.32,-0.84 1.32,5.52 0.24,0.72 3.84,9 5.28,8.04 5.4,3.48 0.36,0.36 0.6,0.48 v 2.04 l -1.32,1.92 -2.52,0.96 -0.72,-0.84 -3.12,-4.92 -3.24,-1.8 -7.56,-1.92 -4.44,-2.04 2.04,2.88 1.08,1.56 9.96,9.36 z"
       class="sm_state sm_state_LK45"
       opacity="1"
       stroke-opacity="1"
       stroke-width="2.25"
       stroke-linejoin="round"
       fill-opacity="1"
       id="path6" />
    <path
       style="overflow:hidden;opacity:1;fill-opacity:1;stroke-linejoin:round;stroke-opacity:1"
       fill="#88a4bc"
       stroke="#ffffff"
       d="m 308.085,251.325 -2.28,4.08 -1.2,4.8 -7.56,1.44 -7.32,2.16 -8.04,5.64 -20.52,0.72 0.48,6.12 7.2,2.52 5.04,6.6 2.4,7.2 -6.6,5.28 -3.96,4.68 -3.36,5.16 -6,7.08 -6.96,6.36 -7.44,5.64 h -8.76 l -4.68,-3.36 -5.16,-2.64 -8.4,3.84 -10.92,14.16 -5.16,12.12 -4.92,2.16 -4.2,7.56 -2.64,-0.12 -2.88,-0.84 -5.88,-3.12 -2.88,-5.88 -1.08,-3.84 -1.8,-3.36 -4.08,-1.92 -4.2,-1.44 -2.76,-7.92 -0.12,-9 -10.56,-13.56 -6.48,-5.04 v -3.6 l 1.08,-4.2 7.08,-0.72 4.2,-9.36 7.68,-4.32 10.08,1.08 15.6,-1.92 14.76,-5.52 1.44,-9.72 -4.2,-10.8 -4.32,-6.84 -7.44,-3.48 12.84,-8.16 7.68,-6.24 4.92,-7.56 -0.24,-4.68 -1.08,-4.8 v -2.52 l -0.24,-2.28 -4.08,-0.6 -2.16,-3 0.72,-4.08 5.04,-0.48 5.28,0.36 9.6,-0.24 6.84,4.32 4.32,6.36 6.72,-3 4.8,-4.2 2.76,-1.32 2.64,-1.56 0.48,-1.44 0.6,-1.32 9,-0.24 8.64,3.24 0.96,9 7.44,0.84 3.24,5.64 -2.64,3.96 -0.48,3.84 4.32,-1.08 4.08,-2.76 8.64,1.32 8.88,5.4 3.36,4.44 z"
       class="sm_state sm_state_LK44"
       opacity="1"
       stroke-opacity="1"
       stroke-width="2.25"
       stroke-linejoin="round"
       fill-opacity="1"
       id="path7" />
    <path
       style="overflow:hidden;opacity:1;fill-opacity:1;stroke-linejoin:round;stroke-opacity:1"
       fill="#88a4bc"
       stroke="#ffffff"
       d="m 149.325,167.205 0.36,9.6 1.68,9.12 5.04,8.16 0.6,1.92 0.24,2.16 -0.12,4.2 -1.08,4.08 0.6,6.6 -0.36,5.76 -6.12,2.04 -1.2,2.76 -0.96,3.12 -1.44,3.12 -0.96,3.24 1.32,2.52 1.32,1.92 -3.6,10.08 45.72,-2.4 7.44,3.48 4.32,6.84 4.2,10.8 -1.44,9.72 -14.76,5.52 -15.6,1.92 -10.08,-1.08 -7.68,4.32 -4.2,9.36 -7.08,0.72 -1.08,4.2 v 3.6 l 6.48,5.04 10.56,13.56 -27,7.08 -13.56,-0.12 -12.24,-5.04 2.16,16.44 -0.6,25.92 -2.64,-0.36 -2.28,-1.08 -7.44,-4.2 -7.08,-3 -8.16,-0.72 -7.32,-2.76 -3.12,-1.92 1.08,-1.08 0.36,-1.44 2.76,-8.52 0.36,-0.36 0.24,-0.24 0.6,-2.4 2.64,-5.64 2.4,-27.24 -6.6,-17.4 0.48,-3 0.48,-19.8 v -0.24 l -0.6,-6.72 -0.84,-3.24 -1.44,-2.4 -1.2,-2.88 2.64,-1.32 3.72,-0.72 2.4,-0.72 16.08,-14.52 8.4,-4.2 3.48,-3 1.8,-6.84 3.36,-7.08 1.8,-9.72 9,-23.04 0.24,-1.32 0.84,-3.36 h 2.04 l 9.48,-0.84 5.88,-3 z m -132.12,45.24 -3.12,-1.2 -1.32,-2.64 0.84,-2.76 3.6,-1.2 h 12.36 l 5.52,1.44 5.64,1.44 11.76,4.56 11.28,6.48 9.48,9.24 h -0.12 l -4.44,-0.96 -8.04,-3.96 -4.68,-0.84 7.2,8.16 5.64,6.48 2.52,4.44 -6.6,-0.84 -4.32,-3.36 -3,-3.6 -2.28,-1.68 -2.76,-1.44 -11.4,-10.2 -5.64,-2.52 -5.76,-2.64 -4.08,-1.08 -2.16,-0.6 z"
       class="sm_state sm_state_LK43"
       opacity="1"
       stroke-opacity="1"
       stroke-width="2.25"
       stroke-linejoin="round"
       fill-opacity="1"
       id="path8" />
    <path
       style="overflow:hidden;opacity:1;fill-opacity:1;stroke-linejoin:round;stroke-opacity:1"
       fill="#88a4bc"
       stroke="#ffffff"
       d="m 218.445,71.925 3.6,10.8 0.48,2.76 -3.36,0.24 -2.16,0.84 -0.36,0.48 -0.6,0.96 -1.08,0.6 -3.72,-2.76 -1.44,-0.24 -9,0.24 -2.52,-0.72 -19.68,-17.16 -8.4,-5.52 h -0.12 l -3,-1.32 5.88,-10.2 3.72,-8.04 v -0.12 l 13.2,14.52 8.64,5.4 z m 47.88,36.72 -1.32,1.32 -0.6,4.68 -5.88,4.68 -0.84,6.36 0.72,6.36 -6.24,-3.48 -5.52,-4.56 -2.04,-2.64 -1.32,0.36 -3.84,12.72 -4.68,2.52 -6.96,0.48 -12.6,-0.72 -3.72,0.12 -4.8,12.12 -7.32,0.72 -7.44,-1.32 -7.56,0.12 -21.24,2.4 -7.2,9.48 0.72,7.8 -7.32,-0.96 -5.28,3.96 -5.88,3 -9.48,0.84 h -2.04 l 1.68,-6.84 v -16.32 l 0.6,-2.4 -0.48,-1.56 -3.24,-0.6 -7.68,-3.96 -2.88,-2.88 -1.92,-5.28 -0.36,-0.96 -1.32,-6.48 -0.12,-3.72 3.36,-3.6 6.12,-3 6.72,-2.16 5.64,-0.84 2.52,-1.32 6,-8.04 0.72,-0.6 1.08,-0.84 2.04,-1.2 2.52,-0.96 3.12,-0.48 -2.64,-4.8 -1.56,-2.16 -1.56,-2.16 -4.08,-4.08 -5.4,-4.08 -20.4,-12 -4.2,-5.16 8.88,0.24 8.52,3.48 16.68,9.72 15.84,3.96 4.2,2.76 6.6,5.76 1.56,3 -3.36,1.68 0.72,1.92 0.96,1.92 -1.68,1.92 5.76,3.96 13.68,-3.36 24.96,-9.96 6.84,0.6 14.64,4.08 17.4,7.92 z"
       class="sm_state sm_state_LK42"
       opacity="1"
       stroke-opacity="1"
       stroke-width="2.25"
       stroke-linejoin="round"
       fill-opacity="1"
       id="path9" />
    <path
       style="overflow:hidden;opacity:1;fill-opacity:1;stroke-linejoin:round;stroke-opacity:1"
       fill="#88a4bc"
       stroke="#ffffff"
       d="m 269.445,106.245 -1.68,1.44 -1.44,0.96 -18.84,-12.96 -6.48,-3 -5.76,-1.32 -0.84,-0.36 -0.84,-0.36 -4.92,-3.84 -1.92,-1.08 -1.92,-0.36 -2.28,0.12 -0.48,-2.76 -3.6,-10.8 0.72,0.36 v -2.16 l -10.08,-5.04 -24.36,-20.04 -19.92,-23.04 -10.08,-5.52 -15.84,-3.72 -4.2,-3.0000004 -0.6,-4.32 5.88,-2.52 1.8,-0.36 5.76,-0.96 11.52,-0.48 5.52,0.96 3.84,2.76 2.52,9.1200004 2.52,3.84 36.24,42.84 5.28,3.84 10.8,6.24 z m -102.36,-45.12 -14.16,-6.24 -5.16,-3 h -3.48 l 0.72,6.84 1.92,1.92 2.88,2.28 1.8,2.76 -1.8,3.6 -2.04,0.72 -2.04,-1.2 -1.8,-1.56 -5.4,-2.76 -10.32,-9 -5.88,-2.52 3,3.36 5.4,4.68 3.12,3.36 -6.72,-1.2 -6.6,-2.76 -13.32,-7.44 -10.68,-8.4 -6.24,-2.28 -0.6,-0.36 -2.4,-1.56 -2.28,-0.96 -0.36,2.04 -3,-2.04 -1.2,-2.76 -0.48,-3.24 -1.08,-3.6 -1.8,-3.12 -1.08,-1.44 -2.88,-3.72 -1.8,-3.24 6,-3 10.92,-10.2000004 4.8,-2.16 h 0.12 l 21.6,1.92 11.28,-1.32 4.08,0.48 1.68,3.84 -0.36,5.8800004 0.84,2.04 2.4,0.72 2.28,0.36 6.6,1.68 1.44,0.84 1.2,2.4 3,-0.12 2.28,-0.72 0.96,-0.24 1.32,-0.24 0.96,-0.12 2.16,1.32 0.96,0.48 7.68,8.52 11.16,12.12 v 0.12 l -3.72,8.04 z m -145.2,32.4 -2.28,2.04 -2.28,2.16 -6.96,0.48 -6.48,-2.16 -2.76,-3.6 v -11.52 l 0.72,-2.88 1.92,0.36 1.8,2.4 1.2,2.88 4.8,1.56 5.64,0.48 1.44,0.96 z m 45.6,-32.88 -4.32,-3.12 -4.2,-6.48 -6.72,-13.44 3,-4.8 0.72,-6.12 1.8,-5.04 6,-1.32 3.12,0.96 h 0.12 l 0.24,2.4 -1.08,3.36 -0.72,3.72 0.12,3.84 0.36,3.12 v 0.24 l 0.24,0.6 0.96,2.16 1.32,1.44 0.96,1.2 1.2,0.24 5.4,-0.24 0.84,0.84 0.36,4.2 0.72,1.68 3.12,2.04 4.32,1.8 3.6,2.04 0.24,0.72 0.96,2.04 -1.92,1.92 h -3.6 l -3.96,-1.2 -2.76,-1.68 -1.92,-0.48 -5.04,2.88 z"
       class="sm_state sm_state_LK41"
       opacity="1"
       stroke-opacity="1"
       stroke-width="2.25"
       stroke-linejoin="round"
       fill-opacity="1"
       id="path10" />
    <path
       style="overflow:hidden;opacity:1;fill-opacity:1;stroke-linejoin:round;stroke-opacity:1"
       fill="#88a4bc"
       stroke="#ffffff"
       d="m 541.125,909.645 -4.92,5.88 -7.44,1.32 -5.88,4.44 -5.04,4.92 -6.6,2.88 -5.4,4.44 0.12,4.68 1.32,3.72 -1.2,2.04 -1.2,1.68 0.12,2.28 v 2.4 l -3.6,5.88 -7.68,-1.68 -7.32,2.64 -2.52,-0.36 -0.6,-0.72 -3.12,2.16 -16.44,6.36 -8.04,2.16 -4.2,1.68 -2.76,2.76 -7.56,4.2 -6.84,-2.88 -4.32,-7.2 -5.16,-6.84 -3.48,0.48 -2.52,1.8 -3,0.12 -2.76,-0.48 -2.04,-5.04 -4.68,-1.68 -6.96,-0.84 h -6.96 l -2.52,3 -3.48,-2.4 0.12,3.72 -2.28,3.12 -3.84,0.36 h -3.48 l -1.32,6.24 2.64,6.24 -6,4.56 -7.8,2.52 -6.96,3.84 -6.84,4.44 -2.16,-6.48 -2.64,-5.04 -5.04,-3.6 -5.28,-2.88 -3.96,-5.16 -3,-6 -0.24,-17.16 -1.8,-4.44 -0.84,-4.56 4.2,-7.92 5.28,-7.44 2.64,-12 2.64,-6.24 5.16,-6.12 2.76,-7.08 4.56,-6.96 3.36,0.24 2.04,3.24 1.32,4.8 2.16,1.2 2.28,0.48 2.52,5.64 1.92,6.12 1.92,0.96 1.92,1.08 1.2,8.88 3.12,3.96 2.4,3.96 1.08,-7.44 3.96,-6.12 3,1.92 3,1.44 0.84,-6.6 5.76,-2.04 -4.08,-6.48 -2.64,-7.68 v -4.32 l 0.6,-4.08 4.08,-6.36 -0.36,-4.92 -4.92,-1.32 -1.08,-3.6 2.4,-5.04 -0.6,-6 0.72,-5.88 9.36,-0.84 2.4,-4.68 8.04,-2.4 -6.72,-9.48 5.88,-3.24 7.08,-1.92 3.48,-2.88 2.76,-3.48 1.32,-2.28 1.68,-1.68 2.76,1.2 3.6,-0.72 1.32,-4.08 0.72,-4.32 1.92,-2.88 1.44,-3.12 1.08,-7.68 1.32,-5.04 v -5.16 l -0.84,-3.84 -1.44,-3.72 -2.04,-2.52 -1.44,-1.32 -3,-3.84 -10.2,2.64 -3.24,-3.36 -2.76,-5.76 -4.2,-4.2 -3.48,-4.44 0.84,-5.64 3.24,-4.92 4.56,0.6 3.84,4.2 4.56,-1.92 2.52,-4.32 7.56,-9.6 2.16,-5.28 v -5.76 l 10.8,-2.52 2.16,5.28 2.4,4.56 5.64,-1.92 5.16,-3.72 -1.44,-10.44 -0.12,-10.68 6.84,0.24 5.64,-3.12 1.32,-1.92 1.92,-2.28 1.2,-2.76 -0.24,-3.36 -1.56,-3.24 v -3.6 l 2.76,-0.24 3.84,-0.96 1.92,-3 0.96,-2.64 3.12,-1.32 3.36,-1.2 6.84,-3.72 5.52,1.44 -4.08,6.36 1.68,1.08 1.8,0.36 -0.48,3.72 3.24,14.64 -0.36,6.72 1.08,5.4 6.12,5.28 3.84,6.72 0.84,6 6,8.4 -4.44,3.48 -5.76,6.84 -3.24,8.64 3.48,6.6 1.2,4.32 2.16,3.84 2.16,0.96 h 2.04 l 1.8,0.96 1.44,1.32 9.84,2.52 8.16,4.92 -0.6,5.28 -1.2,5.52 1.92,5.28 v 5.4 l 3.24,4.8 1.44,5.52 z"
       class="sm_state sm_state_LK82"
       opacity="1"
       stroke-opacity="1"
       stroke-width="2.25"
       stroke-linejoin="round"
       fill-opacity="1"
       id="path11" />
    <path
       style="overflow:hidden;opacity:1;fill-opacity:1;stroke-linejoin:round;stroke-opacity:1"
       fill="#88a4bc"
       stroke="#ffffff"
       d="m 369.645,620.925 0.72,0.72 4.2,2.52 1.8,3.96 0.36,4.56 2.16,6.72 6.84,11.4 5.04,-1.8 2.76,-0.6 3.36,-1.32 5.88,-5.52 13.56,-7.56 12.36,2.64 0.96,13.92 -2.88,13.56 -1.56,2.88 -0.72,2.52 0.84,3.48 1.08,3.48 1.8,12.24 3.12,6.6 4.08,4.08 2.4,-0.6 3.36,0.6 1.2,2.52 1.92,3.24 2.52,5.04 0.96,5.04 -10.8,2.52 v 5.76 l -2.16,5.28 -7.56,9.6 -2.52,4.32 -4.56,1.92 -3.84,-4.2 -4.56,-0.6 -3.24,4.92 -0.84,5.64 3.48,4.44 4.2,4.2 2.76,5.76 3.24,3.36 10.2,-2.64 3,3.84 1.44,1.32 2.04,2.52 1.44,3.72 0.84,3.84 v 5.16 l -1.32,5.04 -1.08,7.68 -1.44,3.12 -1.92,2.88 -0.72,4.32 -1.32,4.08 -3.6,0.72 -2.76,-1.2 -1.68,1.68 -1.32,2.28 -2.76,3.48 -3.48,2.88 -7.08,1.92 -5.88,3.24 6.72,9.48 -8.04,2.4 -2.4,4.68 -9.36,0.84 -0.72,5.88 0.6,6 -2.4,5.04 1.08,3.6 4.92,1.32 0.36,4.92 -4.08,6.36 -0.6,4.08 v 4.32 l 2.64,7.68 4.08,6.48 -5.76,2.04 -0.84,6.6 -3,-1.44 -3,-1.92 -3.96,6.12 -1.08,7.44 -2.4,-3.96 -3.12,-3.96 -1.2,-8.88 -1.92,-1.08 -1.92,-0.96 -1.92,-6.12 -2.52,-5.64 -2.28,-0.48 -2.16,-1.2 -1.32,-4.8 -2.04,-3.24 -3.36,-0.24 -5.04,0.24 -5.64,4.2 -6.6,2.76 -6.36,-1.2 -4.2,-3.48 -3,-4.56 1.32,-3.72 7.56,-3.36 1.08,-1.08 0.84,-2.16 0.6,-2.64 -4.68,-1.44 -3.84,-4.2 -2.04,0.84 -2.04,0.96 -0.72,-10.2 5.28,-1.32 2.76,-4.08 -2.52,-1.2 -2.52,-1.68 4.08,-6.6 -1.08,-1.92 -1.44,-1.68 -1.56,-4.32 -1.92,-3.84 -8.76,-4.44 -0.36,-4.44 5.04,-0.24 5.16,0.24 3.72,-4.2 1.32,-5.52 4.44,-4.08 4.92,-2.4 10.56,-2.28 6.12,-9.12 1.2,-5.4 2.52,-4.92 2.28,-2.04 1.8,-2.4 0.96,-2.04 -0.48,-1.92 -1.44,-4.92 1.32,-2.52 1.92,-2.4 -1.08,-1.44 -1.2,-1.44 -0.6,-2.4 0.6,-2.52 -2.04,-6.96 0.24,-5.04 3.48,-2.16 5.88,-1.68 7.44,-6.84 0.48,-9.12 -6,-20.16 -2.4,-42.12 -1.44,-22.8 z"
       class="sm_state sm_state_LK81"
       opacity="1"
       stroke-opacity="1"
       stroke-width="2.25"
       stroke-linejoin="round"
       fill-opacity="1"
       id="path12" />
    <path
       style="overflow:hidden;opacity:1;fill-opacity:1;stroke-linejoin:round;stroke-opacity:1"
       fill="#88a4bc"
       stroke="#ffffff"
       d="m 54.645,802.125 5.88,2.28 4.56,2.4 4.92,1.2 2.16,-1.2 2.52,-0.96 13.8,3.96 4.8,-0.96 4.68,-0.24 3.72,2.28 3.24,3 3.12,1.68 3.24,1.32 4.92,0.6 5.88,-0.36 0.36,-5.4 1.08,-5.28 4.44,-4.32 5.52,-2.52 7.44,0.72 5.04,-1.8 6,0.48 4.8,2.4 0.84,5.04 -3.72,3.48 0.36,2.64 0.12,2.76 -3.48,4.32 -3,4.8 -1.2,3.84 -1.44,3.36 6.84,7.2 -6.12,5.52 -8.04,-1.92 -9,3.84 1.8,8.04 -5.4,-1.44 -3.6,-8.28 -1.44,-0.84 -1.8,-0.36 -3.36,3.96 -4.32,2.16 -3,-1.32 -3.12,0.36 -10.68,9.12 -3,1.32 -3.24,0.84 -8.04,3 -12.72,-8.04 -0.36,4.68 1.68,5.16 0.84,3.6 0.12,3.48 -0.12,0.12 -0.48,0.72 -10.32,-26.52 -3.72,-21 -0.36,-2.04 v -20.04 z"
       class="sm_state sm_state_LK11"
       opacity="1"
       stroke-opacity="1"
       stroke-width="2.25"
       stroke-linejoin="round"
       fill-opacity="1"
       id="path13" />
    <path
       style="overflow:hidden;opacity:1;fill-opacity:1;stroke-linejoin:round;stroke-opacity:1"
       fill="#88a4bc"
       stroke="#ffffff"
       d="m 48.645,715.485 6.6,0.24 5.16,-1.32 5.4,-0.72 2.16,2.4 3.24,0.48 4.08,-2.64 4.8,1.92 5.88,-2.28 10.56,-8.28 6.6,-0.24 7.68,5.28 7.92,-2.28 6.84,-4.8 7.68,-1.44 2.52,2.76 0.72,2.4 1.68,2.28 6.84,7.92 4.8,3.48 0.48,3.72 -2.76,2.16 -0.72,9.6 -3.6,3.36 -4.32,2.28 -1.2,7.92 3.36,6.96 6.72,-1.56 5.88,1.68 -2.04,4.68 -4.08,2.88 -3.48,8.04 -1.44,8.16 4.08,13.2 0.12,2.52 -0.84,2.28 -5.04,1.8 -7.44,-0.72 -5.52,2.52 -4.44,4.32 -1.08,5.28 -0.36,5.4 -5.88,0.36 -4.92,-0.6 -3.24,-1.32 -3.12,-1.68 -3.24,-3 -3.72,-2.28 -4.68,0.24 -4.8,0.96 -13.8,-3.96 -2.52,0.96 -2.16,1.2 -4.92,-1.2 -4.56,-2.4 -5.88,-2.28 2.76,-6.6 0.72,-3.12 -0.12,-3.24 v -0.12 l -13.2,-47.04 1.8,-6.96 -0.12,4.32 1.08,2.64 1.44,2.04 1.32,2.52 2.64,9.24 1.32,2.28 h 1.68 l 0.48,-2.64 0.72,-1.08 0.72,-0.24 0.24,0.12 -0.12,-8.52 -0.6,-3.72 -1.44,-3.12 -1.32,-0.84 -3.6,-0.84 -1.56,-1.08 -0.24,-0.36 -0.96,-2.04 0.48,-2.28 0.96,-2.04 0.6,-1.92 z"
       class="sm_state sm_state_LK12"
       opacity="1"
       stroke-opacity="1"
       stroke-width="2.25"
       stroke-linejoin="round"
       fill-opacity="1"
       id="path14" />
    <path
       style="overflow:hidden;opacity:1;fill-opacity:1;stroke-linejoin:round;stroke-opacity:1"
       fill="#88a4bc"
       stroke="#ffffff"
       d="m 68.685,872.565 0.48,-0.72 0.12,-0.12 -0.12,-3.48 -0.84,-3.6 -1.68,-5.16 0.36,-4.68 12.72,8.04 8.04,-3 3.24,-0.84 3,-1.32 10.68,-9.12 3.12,-0.36 3,1.32 4.32,-2.16 3.36,-3.96 1.8,0.36 1.44,0.84 3.6,8.28 5.4,1.44 -1.8,-8.04 9,-3.84 8.04,1.92 0.96,5.64 4.8,12.84 -0.36,4.44 1.68,5.28 2.76,5.52 8.4,8.16 1.68,8.16 3,2.88 3.84,1.44 6.24,5.64 3.96,7.68 -4.2,1.68 1.56,4.68 11.64,16.44 9.96,17.4 -9.84,2.28 -9.6,6 -5.16,2.28 v 5.88 l 2.04,6.12 -0.48,5.52 -4.32,-3.36 -4.32,-4.2 -8.16,-6.24 -8.4,0.72 -7.56,4.2 -11.88,-2.28 -4.68,-3.12 -4.44,-3.84 -5.52,-2.4 -5.04,-1.08 -10.08,-4.68 -1.44,-2.4 -2.04,-1.92 -2.76,1.08 -1.8,1.2 -1.68,-1.44 -1.44,-2.04 -1.92,-0.48 -1.2,-4.8 -0.6,-0.48 -1.2,-0.72 -1.2,-1.08 -0.72,-1.44 0.24,-1.68 1.32,-0.36 1.44,0.12 h 0.72 l -2.16,-14.64 -0.12,-1.2 -5.76,-14.76 z"
       class="sm_state sm_state_LK13"
       opacity="1"
       stroke-opacity="1"
       stroke-width="2.25"
       stroke-linejoin="round"
       fill-opacity="1"
       id="path15" />
    <path
       style="overflow:hidden;opacity:1;fill-opacity:1;stroke-linejoin:round;stroke-opacity:1"
       fill="#88a4bc"
       stroke="#ffffff"
       d="m 202.845,1080.885 -0.12,-0.36 -0.48,-2.88 v -3.12 l 3,-5.4 5.04,-1.8 1.68,-3.36 -4.92,-2.04 -2.16,-1.2 -0.84,-2.88 1.68,-2.64 3.84,-1.56 4.32,-4.44 3.84,-4.44 -4.44,-3.96 -4.92,-3.36 -4.2,-4.08 -1.8,-5.4 2.52,-5.4 1.92,-5.76 -1.32,-4.56 -2.88,-3.36 9.72,1.68 4.92,-6 -2.16,-7.92 -5.76,-8.4 -5.52,-3.48 -2.76,-5.16 4.44,-1.2 4.56,1.44 5.88,4.32 5.28,5.04 8.52,1.92 1.68,-7.92 -4.32,-4.2 -3.24,-5.04 3.72,-3.72 5.76,-1.68 5.4,-0.84 5.4,-1.2 1.92,-4.56 h 4.68 l 12.24,-1.68 3.96,7.44 -1.8,4.92 4.92,0.84 6.6,-1.08 3.12,3.84 -0.24,2.64 3.6,2.64 -1.44,1.44 v 2.64 l -2.64,1.08 0.48,2.04 -1.92,4.92 1.92,4.44 -10.68,8.04 -3.36,11.88 4.8,3.48 5.28,1.92 2.4,-0.36 1.56,1.44 -1.32,2.88 -1.68,2.52 0.96,4.8 4.56,2.4 3.24,-0.48 3,0.6 -0.96,2.4 -2.52,2.4 3,10.68 -9,3.84 0.72,4.44 3.84,2.52 2.64,0.24 2.4,1.32 -0.12,2.28 -2.04,1.08 3.36,5.04 6.96,3.24 1.56,0.84 -4.2,4.92 -11.4,-0.6 -4.68,0.6 -3.72,1.44 -3.84,2.16 -6.72,5.04 -1.92,0.48 -1.92,0.36 -4.56,-1.68 -4.92,-2.52 -2.76,-0.84 -1.92,-0.6 -16.08,1.92 -4.56,-0.96 -2.28,-2.28 -1.44,-3 -1.2,-1.8 -0.84,-1.32 -4.68,2.76 -4.2,0.36 z"
       class="sm_state sm_state_LK32"
       opacity="1"
       stroke-opacity="1"
       stroke-width="2.25"
       stroke-linejoin="round"
       fill-opacity="1"
       id="path16" />
    <path
       style="overflow:hidden;opacity:1;fill-opacity:1;stroke-linejoin:round;stroke-opacity:1"
       fill="#88a4bc"
       stroke="#ffffff"
       d="m 298.125,1077.525 -1.56,-0.84 -6.96,-3.24 -3.36,-5.04 2.04,-1.08 0.12,-2.28 -2.4,-1.32 -2.64,-0.24 -3.84,-2.52 -0.72,-4.44 9,-3.84 -3,-10.68 2.52,-2.4 0.96,-2.4 -3,-0.6 -3.24,0.48 -4.56,-2.4 -0.96,-4.8 1.68,-2.52 1.32,-2.88 -1.56,-1.44 -2.4,0.36 -5.28,-1.92 -4.8,-3.48 3.36,-11.88 10.68,-8.04 -1.92,-4.44 1.92,-4.92 -0.48,-2.04 2.64,-1.08 15.72,3.12 20.28,7.32 5.4,0.84 5.28,-1.32 5.28,-0.48 4.2,3.36 3.24,3.72 10.08,2.04 5.88,1.92 1.32,-4.92 -2.52,-7.08 -5.16,-5.64 6.84,-4.44 6.96,-3.84 7.8,-2.52 6,-4.56 -2.64,-6.24 1.32,-6.24 h 3.48 l 3.84,-0.36 2.28,-3.12 -0.12,-3.72 3.48,2.4 2.52,-3 h 6.96 l 6.96,0.84 4.68,1.68 2.04,5.04 2.76,0.48 3,-0.12 2.52,-1.8 3.48,-0.48 5.16,6.84 4.32,7.2 6.84,2.88 7.56,-4.2 2.76,-2.76 4.2,-1.68 8.04,-2.16 16.44,-6.36 3.12,-2.16 0.6,0.72 2.52,0.36 7.32,-2.64 7.68,1.68 3.6,-5.88 v -2.4 l -0.12,-2.28 1.2,-1.68 1.2,-2.04 -1.32,-3.72 -0.12,-4.68 5.4,-4.44 6.6,-2.88 5.04,-4.92 5.88,-4.44 7.44,-1.32 4.92,-5.88 8.28,10.2 3.12,0.24 3.6,0.48 4.56,5.28 6.72,2.16 2.52,0.72 -8.52,13.44 -8.64,8.76 -16.08,11.4 -5.28,1.56 -6.96,3.72 -51.36,40.44 -10.32,5.64 -33.36,11.76 -0.48,-3.96 v -0.24 l -1.92,-1.56 h -0.12 l -0.36,0.12 -1.68,0.48 -1.08,2.16 -0.6,4.68 -1.44,1.8 -2.4,0.72 -3.24,1.32 -6,3.72 -6,2.64 -28.8,6.12 -14.04,4.8 -15.24,2.88 -6.96,2.64 -4.2,5.88 -7.56,-1.44 -4.56,1.8 -2.64,0.96 -10.68,7.92 -10.56,7.92 z"
       class="sm_state sm_state_LK33"
       opacity="1"
       stroke-opacity="1"
       stroke-width="2.25"
       stroke-linejoin="round"
       fill-opacity="1"
       id="path17" />
    <path
       style="overflow:hidden;opacity:1;fill-opacity:1;stroke-linejoin:round;stroke-opacity:1"
       fill="#88a4bc"
       stroke="#ffffff"
       d="m 91.365,948.045 1.92,0.48 1.44,2.04 1.68,1.44 1.8,-1.2 2.76,-1.08 2.04,1.92 1.44,2.4 10.08,4.68 5.04,1.08 5.52,2.4 4.44,3.84 4.68,3.12 11.88,2.28 7.56,-4.2 8.4,-0.72 8.16,6.24 4.32,4.2 4.32,3.36 0.48,-5.52 -2.04,-6.12 v -5.88 l 5.16,-2.28 9.6,-6 9.84,-2.28 3.36,3.48 3.84,3.24 4.68,1.92 4.08,0.12 8.64,4.2 4.44,-0.12 2.4,3.48 -5.76,1.68 -3.72,3.72 3.24,5.04 4.32,4.2 -1.68,7.92 -8.52,-1.92 -5.28,-5.04 -5.88,-4.32 -4.56,-1.44 -4.44,1.2 2.76,5.16 5.52,3.48 5.76,8.4 2.16,7.92 -4.92,6 -9.72,-1.68 2.88,3.36 1.32,4.56 -1.92,5.76 -2.52,5.4 1.8,5.4 4.2,4.08 4.92,3.36 4.44,3.96 -3.84,4.44 -4.32,4.44 -3.84,1.56 -1.68,2.64 0.84,2.88 2.16,1.2 4.92,2.04 -1.68,3.36 -5.04,1.8 -3,5.4 v 3.12 l 0.48,2.88 0.12,0.36 -1.8,-0.36 -1.32,-0.6 -0.96,-1.2 -1.2,-1.32 -2.16,-0.6 -1.2,0.36 -1.08,0.96 -1.08,0.72 h -1.44 l -0.48,-0.36 -0.48,-0.48 -1.68,-2.4 -0.96,-0.6 -0.12,-0.12 -2.04,-0.72 -11.76,-4.2 -4.92,-1.08 -3.36,-0.72 -6,-4.8 -1.44,-0.6 -2.64,-1.32 -2.04,2.04 -5.16,-4.2 -22.56,-23.88 -1.8,-1.44 -0.24,-0.24 -0.6,-0.84 -0.36,-1.08 0.12,-2.4 -0.72,-1.2 -0.96,-1.32 -2.52,-3.24 -12.72,-27 -0.6,-2.52 0.12,-2.4 v -2.28 l -0.48,-1.44 -2.28,-4.8 -2.28,-12.96 -5.16,-9.12 z"
       class="sm_state sm_state_LK31"
       opacity="1"
       stroke-opacity="1"
       stroke-width="2.25"
       stroke-linejoin="round"
       fill-opacity="1"
       id="path18" />
    <path
       style="overflow:hidden;opacity:1;fill-opacity:1;stroke-linejoin:round;stroke-opacity:1"
       fill="#88a4bc"
       stroke="#ffffff"
       d="m 351.885,419.205 4.2,-1.2 3.24,4.8 4.44,1.8 4.32,3.24 1.08,5.88 3.48,3.48 11.64,-1.2 21,5.16 h 4.92 l 4.56,2.64 4.44,3.48 4.92,2.52 3.48,-0.36 2.04,2.88 0.36,3.48 -0.12,3.6 0.96,5.28 -1.44,3.48 -3.24,2.04 1.08,0.84 1.44,0.48 6.84,-1.68 3.96,-9.12 1.44,-2.64 1.68,-7.32 1.92,-1.68 2.16,-1.56 1.8,-3.36 2.52,-2.76 h 3.48 4.2 l 1.56,14.64 -2.28,44.04 2.04,10.32 4.68,10.08 2.28,10.32 -2.64,0.24 -9.96,-1.32 -7.92,1.08 -6.24,4.2 -2.04,8.16 -2.52,21.48 3.96,21.6 -1.2,6.24 0.84,6.6 -1.56,3 -1.8,1.8 -1.2,3.36 -0.72,2.88 -5.4,-0.72 -6.48,-3.72 -13.44,-4.2 -8.16,-8.16 -10.08,-3.84 -5.04,0.84 -10.32,0.96 h -5.16 l -14.4,2.64 -14.76,-0.96 -0.6,4.92 -1.2,4.92 -4.32,-2.64 -2.4,-3.36 -5.4,5.04 -6.96,2.88 -7.32,-1.56 -2.76,-3.84 0.48,-5.52 -3.72,-16.92 1.92,-7.68 8.04,-1.8 0.48,-2.04 0.96,-1.92 2.64,-11.28 0.72,-6.48 2.76,-13.2 8.28,-8.64 -4.08,-2.52 -4.32,-0.84 -3.24,-0.96 -3.36,1.56 -0.12,1.8 -1.8,1.2 -2.28,-0.96 -1.56,-1.56 0.12,-4.92 -3.84,-4.32 -2.4,-2.4 0.36,-7.32 5.4,-7.68 -5.52,-4.32 0.48,-9.72 1.92,-10.92 3.96,-10.56 2.28,-11.76 4.08,-10.68 10.92,-2.04 h 12.24 l 3.6,-2.16 1.08,-4.92 2.16,-4.92 z"
       class="sm_state sm_state_LK72"
       opacity="1"
       stroke-opacity="1"
       stroke-width="2.25"
       stroke-linejoin="round"
       fill-opacity="1"
       id="path19" />
    <path
       style="overflow:hidden;opacity:1;fill-opacity:1;stroke-linejoin:round;stroke-opacity:1"
       fill="#88a4bc"
       stroke="#ffffff"
       d="m 304.605,260.205 7.8,-3.12 8.16,0.12 6.96,4.08 12.12,8.4 4.2,4.68 2.28,3 2.64,2.04 -3.24,7.2 -4.68,6.96 0.12,12 5.16,11.28 2.04,5.88 -4.2,9.96 0.24,5.76 2.28,2.64 3,2.88 1.08,6.72 7.32,10.92 3.96,9.24 2.4,3.24 3.24,2.4 1.8,4.32 -2.28,4.08 -3.84,2.64 -3.48,3.36 -1.08,3.36 -0.72,3.48 -6,21.48 -3.48,3.72 -2.16,4.92 -1.08,4.92 -3.6,2.16 h -12.24 l -10.92,2.04 -4.08,10.68 -2.28,11.76 -3.96,10.56 -1.92,10.92 -0.48,9.72 5.52,4.32 -5.4,7.68 -0.36,7.32 -5.76,2.4 -5.28,2.64 -3.6,3.12 -5.4,5.64 -1.56,1.2 -2.04,-0.6 h -2.88 l -1.44,4.56 v 5.16 l -2.64,4.08 -3.6,3.6 0.72,1.32 0.12,2.04 -1.8,0.96 -1.92,1.44 -2.04,3.36 -4.08,2.76 -3.36,-2.16 -4.44,-0.12 -4.92,5.88 -9.24,3.48 -5.88,4.32 -7.08,-6.72 1.08,-9.72 -1.44,-6.6 -2.52,-6.48 -0.72,-4.68 -2.28,-3.84 -4.56,-0.36 -3.84,-1.56 -0.48,-4.92 0.36,-5.04 -0.84,-6 0.48,-3.48 v -3.48 l -4.2,-3.48 -5.16,0.24 -5.04,-3.12 -4.56,-4.56 -8.28,-6.84 -9.24,-3.48 -5.04,-0.84 -4.2,-2.88 -5.28,-2.16 -5.4,-1.44 -25.56,-11.64 -6,-3.36 -3,-3.96 -4.08,-3.36 -5.64,0.24 -4.92,-3.72 -4.68,2.16 h -5.76 l -1.68,-5.04 -6.96,-28.08 -4.08,-7.92 3.12,-6.84 4.68,-2.16 1.2,-2.52 0.36,-2.04 8.64,-7.08 5.04,-10.68 -1.56,-11.52 2.28,1.08 2.64,0.36 0.6,-25.92 -2.16,-16.44 12.24,5.04 13.56,0.12 27,-7.08 0.12,9 2.76,7.92 4.2,1.44 4.08,1.92 1.8,3.36 1.08,3.84 2.88,5.88 5.88,3.12 2.88,0.84 2.64,0.12 4.2,-7.56 4.92,-2.16 5.16,-12.12 10.92,-14.16 8.4,-3.84 5.16,2.64 4.68,3.36 h 8.76 l 7.44,-5.64 6.96,-6.36 6,-7.08 3.36,-5.16 3.96,-4.68 6.6,-5.28 -2.4,-7.2 -5.04,-6.6 -7.2,-2.52 -0.48,-6.12 20.52,-0.72 8.04,-5.64 7.32,-2.16 z"
       class="sm_state sm_state_LK71"
       opacity="1"
       stroke-opacity="1"
       stroke-width="2.25"
       stroke-linejoin="round"
       fill-opacity="1"
       id="path20" />
    <path
       style="overflow:hidden;opacity:1;fill-opacity:1;stroke-linejoin:round;stroke-opacity:1"
       fill="#88a4bc"
       stroke="#ffffff"
       d="m 458.685,441.405 4.68,-1.56 24.84,2.64 0.84,2.88 5.76,19.56 2.16,12.72 -5.04,6.96 -2.76,-11.52 -0.36,-1.68 -4.32,-11.64 h -1.92 l -0.36,8.88 0.36,2.76 -0.24,-0.12 -0.24,0.84 v 1.44 l 0.48,1.68 0.84,1.08 2.4,0.72 0.48,0.84 2.28,5.88 4.8,3.6 4.68,-0.36 1.56,-6 h 1.8 l 1.68,3.12 0.48,0.84 2.28,10.08 2.28,3.96 3.12,3.36 2.04,3.24 3.36,7.92 1.32,-1.32 1.8,-1.32 0.84,-1.32 1.2,2.64 -1.2,1.32 0.6,1.08 0.6,0.6 v 0.12 l 0.36,0.6 0.12,1.32 0.12,-0.12 1.32,-1.08 2.88,-1.44 1.44,-1.08 0.6,1.56 0.84,1.92 -0.6,2.28 -0.96,2.28 v 1.68 l 0.12,1.68 1.92,3.84 3.36,2.64 2.28,1.68 2.04,3.36 -1.32,0.12 -0.6,0.36 -0.84,0.6 -0.6,0.36 -0.48,0.24 -0.84,3.12 -0.72,3 3.24,9.48 1.68,2.04 3.96,4.56 h 0.12 l 5.76,-1.08 h 1.92 l 1.92,5.88 2.16,3.6 0.72,1.08 11.88,12.48 3.84,6.12 0.72,5.4 -6.12,1.92 -2.88,-1.92 -6.72,-8.76 -3.6,-3 -4.56,-1.68 h -0.12 -0.48 l -3.24,0.24 -2.88,3 -1.92,6.24 3.24,1.44 3.24,0.48 2.76,-1.08 2.04,-2.76 3.24,1.2 3,1.44 1.08,1.32 0.72,0.84 -0.48,3 3.72,3.36 3.6,3.48 2.88,3.36 3,5.04 -1.44,1.68 -0.36,1.56 0.48,1.92 1.32,2.64 1.8,-2.16 -1.08,-3.72 3.24,1.08 6.48,4.8 1.56,2.16 5.04,13.08 -0.36,0.48 -1.56,7.08 0.24,0.84 v 0.12 l 1.32,2.64 0.36,1.08 -1.08,1.92 -2.04,1.56 -1.2,1.68 1.44,2.52 1.44,1.8 0.36,1.32 0.12,0.24 0.84,1.56 2.04,1.8 -3,2.16 0.24,1.08 -5.28,0.84 -7.56,1.2 -5.64,4.56 -9.72,9.6 -1.92,-4.56 -0.84,-15.72 -2.16,-6.84 -0.12,-7.08 -6.48,3.72 -18.48,1.92 -18.12,-3.12 -4.68,-4.56 -8.76,-5.28 -2.52,-4.08 -0.6,-4.68 2.76,-8.16 0.36,-8.28 -8.76,-1.8 -8.4,-2.4 -6.12,-5.76 -9.48,-13.8 -7.32,-2.4 -8.88,0.48 -7.56,-1.44 -3.96,-21.6 2.52,-21.48 2.04,-8.16 6.24,-4.2 7.92,-1.08 9.96,1.32 2.64,-0.24 -2.28,-10.32 -4.68,-10.08 -2.04,-10.32 2.28,-44.04 z m 118.56,166.8 -0.48,-3 -1.08,-2.28 -1.32,-2.76 -0.84,-2.76 0.12,-2.88 0.84,-2.52 0.36,-2.76 -1.32,-3.24 3.48,3.48 3.48,8.04 2.4,3.72 0.6,1.56 2.64,6.96 6.72,10.68 3.12,5.04 4.68,24.24 v 0.12 l -0.24,5.52 -4.08,3.36 -3.84,-3 -1.2,-1.32 -0.6,-0.6 -0.12,-1.32 -0.24,-1.44 v -0.6 l 1.2,-17.52 -0.84,-6 -3,-2.64 -1.2,-2.52 z"
       class="sm_state sm_state_LK51"
       opacity="1"
       stroke-opacity="1"
       stroke-width="2.25"
       stroke-linejoin="round"
       fill-opacity="1"
       id="path21" />
    <path
       style="overflow:hidden;opacity:1;fill-opacity:1;stroke-linejoin:round;stroke-opacity:1"
       fill="#88a4bc"
       stroke="#ffffff"
       d="m 569.925,928.725 -2.52,-0.72 -6.72,-2.16 -4.56,-5.28 -3.6,-0.48 -3.12,-0.24 -8.28,-10.2 7.2,-102.12 -1.44,-5.52 -3.24,-4.8 v -5.4 l -1.92,-5.28 1.2,-5.52 0.6,-5.28 -8.16,-4.92 -9.84,-2.52 -1.44,-1.32 -1.8,-0.96 h -2.04 l -2.16,-0.96 -2.16,-3.84 -1.2,-4.32 -3.48,-6.6 3.24,-8.64 5.76,-6.84 4.44,-3.48 -6,-8.4 -0.84,-6 -3.84,-6.72 -6.12,-5.28 -1.08,-5.4 0.36,-6.72 -3.24,-14.64 0.48,-3.72 -1.8,-0.36 -1.68,-1.08 4.08,-6.36 -5.52,-1.44 -6.84,3.72 -3.36,1.2 -3.12,1.32 -0.96,2.64 -1.92,3 -3.84,0.96 -2.76,0.24 v 3.6 l 1.56,3.24 0.24,3.36 -1.2,2.76 -1.92,2.28 -1.32,1.92 -5.64,3.12 -6.84,-0.24 0.12,10.68 1.44,10.44 -5.16,3.72 -5.64,1.92 -2.4,-4.56 -2.16,-5.28 -0.96,-5.04 -2.52,-5.04 -1.92,-3.24 -1.2,-2.52 -3.36,-0.6 -2.4,0.6 -4.08,-4.08 -3.12,-6.6 -1.8,-12.24 -1.08,-3.48 -0.84,-3.48 0.72,-2.52 1.56,-2.88 2.88,-13.56 -0.96,-13.92 -12.36,-2.64 -13.56,7.56 -5.88,5.52 -3.36,1.32 -2.76,0.6 -5.04,1.8 -6.84,-11.4 -2.16,-6.72 -0.36,-4.56 -1.8,-3.96 -4.2,-2.52 -0.72,-0.72 2.64,-13.32 -0.6,-5.28 -2.04,-6.36 0.24,-4.68 h 5.16 l 10.32,-0.96 5.04,-0.84 10.08,3.84 8.16,8.16 13.44,4.2 6.48,3.72 5.4,0.72 0.72,-2.88 1.2,-3.36 1.8,-1.8 1.56,-3 -0.84,-6.6 1.2,-6.24 7.56,1.44 8.88,-0.48 7.32,2.4 9.48,13.8 6.12,5.76 8.4,2.4 8.76,1.8 -0.36,8.28 -2.76,8.16 0.6,4.68 2.52,4.08 8.76,5.28 4.68,4.56 18.12,3.12 18.48,-1.92 6.48,-3.72 0.12,7.08 2.16,6.84 0.84,15.72 1.92,4.56 9.72,-9.6 5.64,-4.56 7.56,-1.2 5.28,-0.84 0.24,1.08 2.28,0.48 2.28,-2.88 h 1.68 l 2.16,11.28 -0.12,4.08 h 1.92 v -0.12 l 0.24,-3.84 0.72,-3.84 1.08,-3.36 1.8,-2.28 v -1.92 l -0.24,-0.48 -0.6,-1.68 0.48,-0.96 1.56,0.72 2.52,2.4 0.84,2.16 0.6,6 4.32,6.72 6.84,23.76 -1.32,65.52 0.72,4.44 2.88,9.84 0.36,5.76 -1.56,11.16 -12.72,44.16 -0.72,4.56 -0.24,6 -0.96,5.04 -3.96,7.8 -0.96,3.48 -1.56,4.8 -5.28,8.4 -2.52,3.96 1.8,6.72 -3,8.04 z"
       class="sm_state sm_state_LK52"
       opacity="1"
       stroke-opacity="1"
       stroke-width="2.25"
       stroke-linejoin="round"
       fill-opacity="1"
       id="path22" />
    <path
       style="overflow:hidden;opacity:1;fill-opacity:1;stroke-linejoin:round;stroke-opacity:1"
       fill="#88a4bc"
       stroke="#ffffff"
       d="m 351.525,236.805 0.12,4.32 3.24,2.4 -2.88,2.76 -2.64,3.12 4.32,3.36 4.68,-0.36 3.84,-3.48 2.88,-5.04 1.8,-4.68 0.12,0.12 9.96,12.12 8.88,15.24 3.6,3.72 5.04,1.56 4.08,3.24 6,14.52 1.44,1.56 1.56,1.68 h 0.12 l 6.72,3.12 3.48,7.2 3.84,14.64 0.72,-2.64 0.84,-1.08 1.56,0.36 2.64,1.44 -0.72,2.76 7.68,8.4 2.52,4.2 v 5.04 l -2.04,2.04 -2.88,1.32 -2.64,3 h 0.12 l 1.92,-0.48 2.16,-0.6 0.48,-0.24 0.96,-0.6 0.12,0.12 6,13.08 0.84,6.72 -6.84,1.2 h -0.12 l 1.44,-4.56 -1.8,-3.6 -3.12,-0.48 -2.16,4.8 0.72,3.72 2.04,2.64 1.08,2.88 -2.04,4.2 -1.68,-1.2 -3,-2.28 -4.8,-3 -4.8,-1.2 -4.68,2.04 -3.6,4.8 1.32,2.52 4.32,-0.6 5.76,-4.8 3.96,4.2 3.48,5.04 4.32,4.2 6.12,1.8 12.72,-0.24 4.32,-2.76 -2.88,-6.48 7.32,-3.36 2.88,-0.96 3,0.24 h 0.12 l 3.36,1.92 3,3.36 2.28,3.84 2.04,11.16 4.32,14.4 0.12,3.72 0.12,3.84 -3.48,-2.52 -3.72,-7.44 -3.24,-1.56 -0.12,2.04 1.32,9.12 0.12,0.6 1.56,3.48 1.8,0.96 1.68,0.72 h 0.12 3.72 l 2.88,1.44 1.8,10.68 2.16,7.44 0.36,1.2 0.6,4.56 -24.84,-2.64 -4.68,1.56 h -4.2 -3.48 l -2.52,2.76 -1.8,3.36 -2.16,1.56 -1.92,1.68 -1.68,7.32 -1.44,2.64 -3.96,9.12 -6.84,1.68 -1.44,-0.48 -1.08,-0.84 3.24,-2.04 1.44,-3.48 -0.96,-5.28 0.12,-3.6 -0.36,-3.48 -2.04,-2.88 -3.48,0.36 -4.92,-2.52 -4.44,-3.48 -4.56,-2.64 h -4.92 l -21,-5.16 -11.64,1.2 -3.48,-3.48 -1.08,-5.88 -4.32,-3.24 -4.44,-1.8 -3.24,-4.8 -4.2,1.2 6,-21.48 0.72,-3.48 1.08,-3.36 3.48,-3.36 3.84,-2.64 2.28,-4.08 -1.8,-4.32 -3.24,-2.4 -2.4,-3.24 -3.96,-9.24 -7.32,-10.92 -1.08,-6.72 -3,-2.88 -2.28,-2.64 -0.24,-5.76 4.2,-9.96 -2.04,-5.88 -5.16,-11.28 -0.12,-12 4.68,-6.96 3.24,-7.2 -2.64,-2.04 -2.28,-3 -4.2,-4.68 -12.12,-8.4 -6.96,-4.08 -8.16,-0.12 -7.8,3.12 1.2,-4.8 2.28,-4.08 10.92,-5.04 12.72,-1.68 5.4,-1.56 4.8,-2.76 5.28,-1.56 z"
       class="sm_state sm_state_LK53"
       opacity="1"
       stroke-opacity="1"
       stroke-width="2.25"
       stroke-linejoin="round"
       fill-opacity="1"
       id="path23" />
    <path
       style="overflow:hidden;opacity:1;fill-opacity:1;stroke-linejoin:round;stroke-opacity:1"
       fill="#88a4bc"
       stroke="#ffffff"
       d="m 145.965,844.365 6.12,-5.52 -6.84,-7.2 1.44,-3.36 1.2,-3.84 3,-4.8 3.48,-4.32 4.32,-1.92 11.52,11.64 3.36,4.44 4.32,3.24 1.92,-1.08 2.88,-0.6 1.92,2.4 1.32,2.76 6.96,1.56 8.4,-4.8 3.48,-0.36 4.2,0.12 5.88,3.36 7.68,2.64 5.4,0.72 5.52,-0.12 -0.12,4.56 1.8,2.04 -2.04,1.92 -1.08,2.88 5.76,4.32 6.72,0.6 14.4,3.24 15.12,2.04 5.88,-0.96 6.84,-0.6 9.12,0.36 8.64,-1.2 15.72,-8.16 0.72,10.2 2.04,-0.96 2.04,-0.84 3.84,4.2 4.68,1.44 -0.6,2.64 -0.84,2.16 -1.08,1.08 -7.56,3.36 -1.32,3.72 3,4.56 4.2,3.48 6.36,1.2 6.6,-2.76 5.64,-4.2 5.04,-0.24 -4.56,6.96 -2.76,7.08 -5.16,6.12 -2.64,6.24 -2.64,12 -5.28,7.44 -4.2,7.92 0.84,4.56 1.8,4.44 0.24,17.16 3,6 3.96,5.16 5.28,2.88 5.04,3.6 2.64,5.04 2.16,6.48 5.16,5.64 2.52,7.08 -1.32,4.92 -5.88,-1.92 -10.08,-2.04 -3.24,-3.72 -4.2,-3.36 -5.28,0.48 -5.28,1.32 -5.4,-0.84 -20.28,-7.32 -15.72,-3.12 v -2.64 l 1.44,-1.44 -3.6,-2.64 0.24,-2.64 -3.12,-3.84 -6.6,1.08 -4.92,-0.84 1.8,-4.92 -3.96,-7.44 -12.24,1.68 h -4.68 l -1.92,4.56 -5.4,1.2 -5.4,0.84 -2.4,-3.48 -4.44,0.12 -8.64,-4.2 -4.08,-0.12 -4.68,-1.92 -3.84,-3.24 -3.36,-3.48 -9.96,-17.4 -11.64,-16.44 -1.56,-4.68 4.2,-1.68 -3.96,-7.68 -6.24,-5.64 -3.84,-1.44 -3,-2.88 -1.68,-8.16 -8.4,-8.16 -2.76,-5.52 -1.68,-5.28 0.36,-4.44 -4.8,-12.84 z"
       class="sm_state sm_state_LK91"
       opacity="1"
       stroke-opacity="1"
       stroke-width="2.25"
       stroke-linejoin="round"
       fill-opacity="1"
       id="path24" />
    <path
       style="overflow:hidden;opacity:1;fill-opacity:1;stroke-linejoin:round;stroke-opacity:1"
       fill="#88a4bc"
       stroke="#ffffff"
       d="m 145.965,798.525 0.84,-2.28 -0.12,-2.52 -4.08,-13.2 1.44,-8.16 3.48,-8.04 4.08,-2.88 2.04,-4.68 -5.88,-1.68 -6.72,1.56 -3.36,-6.96 1.2,-7.92 4.32,-2.28 3.6,-3.36 0.72,-9.6 2.76,-2.16 -0.48,-3.72 5.64,-3.24 5.76,-5.16 6,-4.32 6.48,-3 13.56,-3 3,-0.12 1.92,-2.76 0.96,-3.24 -0.36,-5.76 0.96,-5.28 6.12,-2.4 6.6,0.84 4.08,4.2 2.52,5.4 3.36,8.52 12,10.44 -0.48,5.4 2.4,1.68 6.96,3.96 3.36,4.08 -0.6,4.92 v 4.08 l 4.08,3.96 3.12,4.08 -1.56,3.72 -2.16,3.36 -3,0.72 -3,0.24 -4.32,4.68 -9.6,1.56 -3.12,2.88 4.2,10.08 1.92,3.48 -1.92,4.32 -0.24,5.52 0.36,0.84 0.96,0.24 -2.4,3.96 -3.84,3.36 -2.16,0.72 -1.44,2.16 1.44,2.04 1.8,1.8 -1.92,10.44 2.4,8.04 8.04,2.52 6.36,4.8 2.16,7.32 0.48,3.72 -3.24,2.88 -5.52,0.12 -5.4,-0.72 -7.68,-2.64 -5.88,-3.36 -4.2,-0.12 -3.48,0.36 -8.4,4.8 -6.96,-1.56 -1.32,-2.76 -1.92,-2.4 -2.88,0.6 -1.92,1.08 -4.32,-3.24 -3.36,-4.44 -11.52,-11.64 -4.32,1.92 -0.12,-2.76 -0.36,-2.64 3.72,-3.48 -0.84,-5.04 -4.8,-2.4 z"
       class="sm_state sm_state_LK92"
       opacity="1"
       stroke-opacity="1"
       stroke-width="2.25"
       stroke-linejoin="round"
       fill-opacity="1"
       id="path25" />
  </g>
  <g
     inkscape:groupmode="layer"
     id="layer3"
     inkscape:label="Cities">
    <rect
       x="39.190197"
       y="796.32703"
       width="30"
       height="30"
       r="0"
       rx="0"
       ry="0"
       fill="#ff0067"
       stroke="#ffffff"
       style="overflow:hidden;opacity:0.8"
       stroke-width="2.4"
       opacity="0.8"
       class="sm_location sm_location_0"
       id="rect25" />
    <rect
       x="258.08633"
       y="695.12537"
       width="30"
       height="30"
       r="0"
       rx="0"
       ry="0"
       fill="#ff0067"
       stroke="#ffffff"
       style="overflow:hidden;opacity:0.8"
       stroke-width="2.4"
       opacity="0.8"
       class="sm_location sm_location_1"
       id="rect26" />
    <rect
       x="246.05959"
       y="806.09534"
       width="30"
       height="30"
       r="0"
       rx="0"
       ry="0"
       fill="#ff0067"
       stroke="#ffffff"
       style="overflow:hidden;opacity:0.8"
       stroke-width="2.4"
       opacity="0.8"
       class="sm_location sm_location_2"
       id="rect27" />
    <rect
       x="368.552"
       y="812.14172"
       width="30"
       height="30"
       r="0"
       rx="0"
       ry="0"
       fill="#ff0067"
       stroke="#ffffff"
       style="overflow:hidden;opacity:0.8"
       stroke-width="2.4"
       opacity="0.8"
       class="sm_location sm_location_3"
       id="rect28" />
    <rect
       x="550.23364"
       y="576.2757"
       width="30"
       height="30"
       r="0"
       rx="0"
       ry="0"
       fill="#ff0067"
       stroke="#ffffff"
       style="overflow:hidden;opacity:0.8"
       stroke-width="2.4"
       opacity="0.8"
       class="sm_location sm_location_4"
       id="rect29" />
    <rect
       x="291.57382"
       y="511.19052"
       width="30"
       height="30"
       r="0"
       rx="0"
       ry="0"
       fill="#ff0067"
       stroke="#ffffff"
       style="overflow:hidden;opacity:0.8"
       stroke-width="2.4"
       opacity="0.8"
       class="sm_location sm_location_5"
       id="rect30" />
    <rect
       x="206.87971"
       y="1068.885"
       width="30"
       height="30"
       r="0"
       rx="0"
       ry="0"
       fill="#ff0067"
       stroke="#ffffff"
       style="overflow:hidden;opacity:0.8"
       stroke-width="2.4"
       opacity="0.8"
       class="sm_location sm_location_6"
       id="rect31" />
    <rect
       x="140.91669"
       y="1046.6887"
       width="30"
       height="30"
       r="0"
       rx="0"
       ry="0"
       fill="#ff0067"
       stroke="#ffffff"
       style="overflow:hidden;opacity:0.8"
       stroke-width="2.4"
       opacity="0.8"
       class="sm_location sm_location_7"
       id="rect32" />
  </g>
  <g
     inkscape:groupmode="layer"
     id="layer1"
     inkscape:label="Labels">
    <path
       style="font-weight:bold;font-size:32px;line-height:1.25;font-family:'Liberation Sans';-inkscape-font-specification:'Liberation Sans Bold';letter-spacing:0px;word-spacing:0px"
       d="m 351.50626,529.14465 q 0,3.23438 -2.40625,4.95313 -2.39063,1.70312 -7.03125,1.70312 -4.23438,0 -6.64063,-1.5 -2.40625,-1.5 -3.09375,-4.54687 l 4.45313,-0.73438 q 0.45312,1.75 1.76562,2.54688 1.3125,0.78125 3.64063,0.78125 4.82812,0 4.82812,-2.9375 0,-0.9375 -0.5625,-1.54688 -0.54687,-0.60937 -1.5625,-1.01562 -1,-0.40625 -3.85937,-0.98438 -2.46875,-0.57812 -3.4375,-0.92187 -0.96875,-0.35938 -1.75,-0.82813 -0.78125,-0.48437 -1.32813,-1.15625 -0.54687,-0.67187 -0.85937,-1.57812 -0.29688,-0.90625 -0.29688,-2.07813 0,-2.98437 2.23438,-4.5625 2.25,-1.59375 6.53125,-1.59375 4.09375,0 6.14062,1.28125 2.0625,1.28125 2.65625,4.23438 l -4.46875,0.60937 q -0.34375,-1.42187 -1.40625,-2.14062 -1.04687,-0.71875 -3.01562,-0.71875 -4.1875,0 -4.1875,2.625 0,0.85937 0.4375,1.40625 0.45312,0.54687 1.32812,0.9375 0.875,0.375 3.54688,0.95312 3.17187,0.67188 4.53125,1.25 1.375,0.5625 2.17187,1.32813 0.79688,0.75 1.21875,1.8125 0.42188,1.04687 0.42188,2.42187 z m 3.48437,-13.60937 v -3.23438 h 4.39063 v 3.23438 z m 0,19.95312 v -16.90625 h 4.39063 v 16.90625 z m 15.96875,6.78125 q -3.09375,0 -4.98437,-1.1875 -1.875,-1.17187 -2.3125,-3.35937 l 4.39062,-0.51563 q 0.23438,1.01563 1,1.59375 0.78125,0.57813 2.03125,0.57813 1.82813,0 2.67188,-1.125 0.84375,-1.125 0.84375,-3.34375 v -0.89063 l 0.0312,-1.67187 h -0.0312 q -1.45313,3.10937 -5.4375,3.10937 -2.95313,0 -4.57813,-2.21875 -1.625,-2.21875 -1.625,-6.34375 0,-4.14062 1.67188,-6.39062 1.67187,-2.25 4.85937,-2.25 3.6875,0 5.10938,3.04687 h 0.0781 q 0,-0.54687 0.0625,-1.48437 0.0781,-0.9375 0.15625,-1.23438 h 4.15625 q -0.0937,1.6875 -0.0937,3.90625 v 12.48438 q 0,3.60937 -2.04687,5.45312 -2.04688,1.84375 -5.95313,1.84375 z m 3.67188,-15.46875 q 0,-2.60937 -0.9375,-4.0625 -0.92188,-1.46875 -2.64063,-1.46875 -3.51562,0 -3.51562,5.625 0,5.51563 3.48437,5.51563 1.75,0 2.67188,-1.45313 0.9375,-1.46875 0.9375,-4.15625 z m 8.79687,-11.26562 v -3.23438 h 4.39063 v 3.23438 z m 0,19.95312 v -16.90625 h 4.39063 v 16.90625 z m 8.89063,0 v -12.9375 q 0,-1.39062 -0.0469,-2.3125 -0.0312,-0.9375 -0.0781,-1.65625 h 4.1875 q 0.0469,0.28125 0.125,1.71875 0.0781,1.42188 0.0781,1.89063 h 0.0625 q 0.64063,-1.78125 1.14063,-2.5 0.5,-0.73438 1.1875,-1.07813 0.6875,-0.35937 1.71875,-0.35937 0.84375,0 1.35937,0.23437 v 3.67188 q -1.0625,-0.23438 -1.875,-0.23438 -1.64062,0 -2.5625,1.32813 -0.90625,1.32812 -0.90625,3.9375 v 8.29687 z m 12.45312,-19.95312 v -3.23438 h 4.39063 v 3.23438 z m 0,19.95312 v -16.90625 h 4.39063 v 16.90625 z m 11.07813,6.64063 q -1.57813,0 -2.76563,-0.20313 v -3.125 q 0.82813,0.125 1.51563,0.125 0.9375,0 1.54687,-0.29687 0.625,-0.29688 1.10938,-0.98438 0.5,-0.6875 1.10937,-2.32812 l -6.6875,-16.73438 h 4.64063 l 2.65625,7.92188 q 0.625,1.70312 1.57812,5.21875 l 0.39063,-1.48438 1.01562,-3.67187 2.5,-7.98438 h 4.59375 l -6.6875,17.79688 q -1.34375,3.25 -2.79687,4.5 -1.4375,1.25 -3.71875,1.25 z m 19.51562,-6.32813 q -2.45312,0 -3.82812,-1.32812 -1.375,-1.34375 -1.375,-3.76563 0,-2.625 1.70312,-4 1.71875,-1.375 4.96875,-1.40625 l 3.64063,-0.0625 v -0.85937 q 0,-1.65625 -0.57813,-2.45313 -0.57812,-0.8125 -1.89062,-0.8125 -1.21875,0 -1.79688,0.5625 -0.5625,0.54688 -0.70312,1.82813 l -4.57813,-0.21875 q 0.42188,-2.46875 2.25,-3.73438 1.84375,-1.28125 5.01563,-1.28125 3.20312,0 4.9375,1.57813 1.73437,1.57812 1.73437,4.48437 v 6.15625 q 0,1.42188 0.3125,1.96875 0.32813,0.53125 1.07813,0.53125 0.5,0 0.96875,-0.0937 v 2.375 q -0.39063,0.0937 -0.70313,0.17188 -0.3125,0.0781 -0.625,0.125 -0.3125,0.0469 -0.67187,0.0781 -0.34375,0.0312 -0.8125,0.0312 -1.65625,0 -2.45313,-0.8125 -0.78125,-0.8125 -0.9375,-2.39062 h -0.0937 q -1.84375,3.32812 -5.5625,3.32812 z m 5.10938,-8.14062 -2.25,0.0312 q -1.53125,0.0625 -2.17188,0.34375 -0.64062,0.26562 -0.98437,0.82812 -0.32813,0.5625 -0.32813,1.5 0,1.20313 0.54688,1.79688 0.5625,0.57812 1.48437,0.57812 1.03125,0 1.875,-0.5625 0.85938,-0.5625 1.34375,-1.54687 0.48438,-1 0.48438,-2.10938 z"
       id="text32"
       aria-label="Sigiriya" />
    <path
       style="font-weight:bold;font-size:32px;line-height:1.25;font-family:'Liberation Sans';-inkscape-font-specification:'Liberation Sans Bold';letter-spacing:0px;word-spacing:0px"
       d="m 311.73633,719.18115 -7.90625,-10.10937 -2.71875,2.07812 v 8.03125 h -4.60938 v -22.01562 h 4.60938 v 9.98437 l 9.92187,-9.98437 h 5.375 l -9.40625,9.3125 10.17188,12.70312 z m 11.875,0.3125 q -2.45313,0 -3.82813,-1.32812 -1.375,-1.34375 -1.375,-3.76563 0,-2.625 1.70313,-4 1.71875,-1.375 4.96875,-1.40625 l 3.64062,-0.0625 v -0.85937 q 0,-1.65625 -0.57812,-2.45313 -0.57813,-0.8125 -1.89063,-0.8125 -1.21875,0 -1.79687,0.5625 -0.5625,0.54688 -0.70313,1.82813 l -4.57812,-0.21875 q 0.42187,-2.46875 2.25,-3.73438 1.84375,-1.28125 5.01562,-1.28125 3.20313,0 4.9375,1.57813 1.73438,1.57812 1.73438,4.48437 v 6.15625 q 0,1.42188 0.3125,1.96875 0.32812,0.53125 1.07812,0.53125 0.5,0 0.96875,-0.0937 v 2.375 q -0.39062,0.0937 -0.70312,0.17188 -0.3125,0.0781 -0.625,0.125 -0.3125,0.0469 -0.67188,0.0781 -0.34375,0.0312 -0.8125,0.0312 -1.65625,0 -2.45312,-0.8125 -0.78125,-0.8125 -0.9375,-2.39062 h -0.0937 q -1.84375,3.32812 -5.5625,3.32812 z m 5.10937,-8.14062 -2.25,0.0312 q -1.53125,0.0625 -2.17187,0.34375 -0.64063,0.26562 -0.98438,0.82812 -0.32812,0.5625 -0.32812,1.5 0,1.20313 0.54687,1.79688 0.5625,0.57812 1.48438,0.57812 1.03125,0 1.875,-0.5625 0.85937,-0.5625 1.34375,-1.54687 0.48437,-1 0.48437,-2.10938 z m 19.73438,7.82812 v -9.48437 q 0,-4.45313 -3.01563,-4.45313 -1.59375,0 -2.57812,1.375 -0.96875,1.35938 -0.96875,3.5 v 9.0625 h -4.39063 v -13.125 q 0,-1.35937 -0.0469,-2.21875 -0.0312,-0.875 -0.0781,-1.5625 h 4.1875 q 0.0469,0.29688 0.125,1.59375 0.0781,1.28125 0.0781,1.76563 h 0.0625 q 0.89062,-1.9375 2.23437,-2.8125 1.34375,-0.875 3.20313,-0.875 2.6875,0 4.125,1.65625 1.4375,1.65625 1.4375,4.84375 v 10.73437 z m 19.54687,0 q -0.0625,-0.23437 -0.15625,-1.17187 -0.0781,-0.95313 -0.0781,-1.57813 h -0.0625 q -1.42188,3.0625 -5.40625,3.0625 -2.95313,0 -4.5625,-2.29687 -1.60938,-2.3125 -1.60938,-6.45313 0,-4.20312 1.6875,-6.48437 1.70313,-2.29688 4.8125,-2.29688 1.79688,0 3.09375,0.75 1.3125,0.75 2.01563,2.23438 h 0.0312 l -0.0312,-2.78125 v -6.17188 h 4.39062 v 19.5 q 0,1.5625 0.125,3.6875 z m -0.20312,-8.54687 q 0,-2.73438 -0.92188,-4.20313 -0.90625,-1.48437 -2.6875,-1.48437 -1.76562,0 -2.625,1.4375 -0.85937,1.42187 -0.85937,4.35937 0,5.75 3.45312,5.75 1.73438,0 2.6875,-1.51562 0.95313,-1.53125 0.95313,-4.34375 z m 10.98437,15.1875 q -1.57812,0 -2.76562,-0.20313 v -3.125 q 0.82812,0.125 1.51562,0.125 0.9375,0 1.54688,-0.29687 0.625,-0.29688 1.10937,-0.98438 0.5,-0.6875 1.10938,-2.32812 l -6.6875,-16.73438 h 4.64062 l 2.65625,7.92188 q 0.625,1.70312 1.57813,5.21875 l 0.39062,-1.48438 1.01563,-3.67187 2.5,-7.98438 h 4.59375 l -6.6875,17.79688 q -1.34375,3.25 -2.79688,4.5 -1.4375,1.25 -3.71875,1.25 z"
       id="text32-2"
       aria-label="Kandy" />
    <path
       style="font-weight:bold;font-size:32px;line-height:1.25;font-family:'Liberation Sans';-inkscape-font-specification:'Liberation Sans Bold';letter-spacing:0px;word-spacing:0px"
       d="m 263.05023,1093.0631 v -13.3437 q 0,-0.4532 0,-0.9063 0.0156,-0.4531 0.15625,-3.8906 -1.10937,4.2031 -1.64062,5.8594 l -3.96875,12.2812 h -3.28125 l -3.96875,-12.2812 -1.67188,-5.8594 q 0.1875,3.625 0.1875,4.7969 v 13.3437 h -4.09375 v -22.0156 h 6.17188 l 3.9375,12.3125 0.34375,1.1875 0.75,2.9531 0.98437,-3.5312 4.04688,-12.9219 h 6.14062 v 22.0156 z m 8.46875,-19.9531 v -3.2344 h 4.39063 v 3.2344 z m 0,19.9531 v -16.9062 h 4.39063 v 16.9062 z m 8.89063,0 v -12.9375 q 0,-1.3906 -0.0469,-2.3125 -0.0312,-0.9375 -0.0781,-1.6562 h 4.1875 q 0.0469,0.2812 0.125,1.7187 0.0781,1.4219 0.0781,1.8906 h 0.0625 q 0.64063,-1.7812 1.14063,-2.5 0.5,-0.7343 1.1875,-1.0781 0.6875,-0.3594 1.71875,-0.3594 0.84375,0 1.35937,0.2344 v 3.6719 q -1.0625,-0.2344 -1.875,-0.2344 -1.64062,0 -2.5625,1.3281 -0.90625,1.3282 -0.90625,3.9375 v 8.2969 z m 12.45312,-19.9531 v -3.2344 h 4.39063 v 3.2344 z m 0,19.9531 v -16.9062 h 4.39063 v 16.9062 z m 23.14063,-4.9375 q 0,2.4531 -2.01563,3.8594 -2,1.3906 -5.54687,1.3906 -3.48438,0 -5.34375,-1.0937 -1.84375,-1.1094 -2.45313,-3.4375 l 3.85938,-0.5782 q 0.32812,1.2032 1.125,1.7032 0.8125,0.5 2.8125,0.5 1.84375,0 2.6875,-0.4688 0.84375,-0.4687 0.84375,-1.4687 0,-0.8125 -0.6875,-1.2813 -0.67188,-0.4844 -2.29688,-0.8125 -3.71875,-0.7344 -5.01562,-1.3594 -1.29688,-0.6406 -1.98438,-1.6406 -0.67187,-1.0156 -0.67187,-2.4844 0,-2.4218 1.85937,-3.7656 1.875,-1.3594 5.29688,-1.3594 3.01562,0 4.84375,1.1719 1.84375,1.1719 2.29687,3.3906 l -3.89062,0.4063 q -0.1875,-1.0313 -0.92188,-1.5313 -0.73437,-0.5156 -2.32812,-0.5156 -1.5625,0 -2.34375,0.4063 -0.78125,0.3906 -0.78125,1.3281 0,0.7344 0.59375,1.1719 0.60937,0.4218 2.03125,0.7031 1.98437,0.4062 3.51562,0.8437 1.54688,0.4219 2.46875,1.0157 0.9375,0.5937 1.48438,1.5312 0.5625,0.9219 0.5625,2.375 z m 17.79687,0 q 0,2.4531 -2.01562,3.8594 -2,1.3906 -5.54688,1.3906 -3.48437,0 -5.34375,-1.0937 -1.84375,-1.1094 -2.45312,-3.4375 l 3.85937,-0.5782 q 0.32813,1.2032 1.125,1.7032 0.8125,0.5 2.8125,0.5 1.84375,0 2.6875,-0.4688 0.84375,-0.4687 0.84375,-1.4687 0,-0.8125 -0.6875,-1.2813 -0.67187,-0.4844 -2.29687,-0.8125 -3.71875,-0.7344 -5.01563,-1.3594 -1.29687,-0.6406 -1.98437,-1.6406 -0.67188,-1.0156 -0.67188,-2.4844 0,-2.4218 1.85938,-3.7656 1.875,-1.3594 5.29687,-1.3594 3.01563,0 4.84375,1.1719 1.84375,1.1719 2.29688,3.3906 l -3.89063,0.4063 q -0.1875,-1.0313 -0.92187,-1.5313 -0.73438,-0.5156 -2.32813,-0.5156 -1.5625,0 -2.34375,0.4063 -0.78125,0.3906 -0.78125,1.3281 0,0.7344 0.59375,1.1719 0.60938,0.4218 2.03125,0.7031 1.98438,0.4062 3.51563,0.8437 1.54687,0.4219 2.46875,1.0157 0.9375,0.5937 1.48437,1.5312 0.5625,0.9219 0.5625,2.375 z m 7.45313,5.25 q -2.45313,0 -3.82813,-1.3281 -1.375,-1.3438 -1.375,-3.7656 0,-2.625 1.70313,-4 1.71875,-1.375 4.96875,-1.4063 l 3.64062,-0.062 v -0.8594 q 0,-1.6562 -0.57812,-2.4531 -0.57813,-0.8125 -1.89063,-0.8125 -1.21875,0 -1.79687,0.5625 -0.5625,0.5469 -0.70313,1.8281 l -4.57812,-0.2187 q 0.42187,-2.4688 2.25,-3.7344 1.84375,-1.2812 5.01562,-1.2812 3.20313,0 4.9375,1.5781 1.73438,1.5781 1.73438,4.4844 v 6.1562 q 0,1.4219 0.3125,1.9688 0.32812,0.5312 1.07812,0.5312 0.5,0 0.96875,-0.094 v 2.375 q -0.39062,0.094 -0.70312,0.1718 -0.3125,0.078 -0.625,0.125 -0.3125,0.047 -0.67188,0.078 -0.34375,0.031 -0.8125,0.031 -1.65625,0 -2.45312,-0.8125 -0.78125,-0.8125 -0.9375,-2.3906 h -0.0937 q -1.84375,3.3281 -5.5625,3.3281 z m 5.10937,-8.1406 -2.25,0.031 q -1.53125,0.062 -2.17187,0.3438 -0.64063,0.2656 -0.98438,0.8281 -0.32812,0.5625 -0.32812,1.5 0,1.2031 0.54687,1.7969 0.5625,0.5781 1.48438,0.5781 1.03125,0 1.875,-0.5625 0.85937,-0.5625 1.34375,-1.5469 0.48437,-1 0.48437,-2.1093 z"
       id="text32-0"
       aria-label="Mirissa" />
    <path
       style="font-weight:bold;font-size:32px;line-height:1.25;font-family:'Liberation Sans';-inkscape-font-specification:'Liberation Sans Bold';letter-spacing:0px;word-spacing:0px"
       d="m 69.140602,1067.249 q 1.796875,0 3.484375,-0.5156 1.6875,-0.5313 2.609375,-1.3438 v -3.0468 h -5.375 v -3.4063 h 9.59375 v 8.0938 q -1.75,1.7968 -4.5625,2.8125 -2.796875,1.0156 -5.875,1.0156 -5.375,0 -8.265625,-2.9688 -2.890625,-2.9843 -2.890625,-8.4531 0,-5.4375 2.90625,-8.3281 2.90625,-2.9063 8.359375,-2.9063 7.75,0 9.859375,5.7344 l -4.25,1.2813 q -0.6875,-1.6719 -2.15625,-2.5313 -1.46875,-0.8594 -3.453125,-0.8594 -3.25,0 -4.9375,1.9688 -1.6875,1.9687 -1.6875,5.6406 0,3.7344 1.734375,5.7813 1.75,2.0312 4.90625,2.0312 z m 18.4375,3.6094 q -2.453125,0 -3.828125,-1.3281 -1.375,-1.3438 -1.375,-3.7657 0,-2.625 1.703125,-4 1.71875,-1.375 4.96875,-1.4062 l 3.640625,-0.062 v -0.8594 q 0,-1.6562 -0.578125,-2.4531 -0.578125,-0.8125 -1.890625,-0.8125 -1.21875,0 -1.796875,0.5625 -0.5625,0.5469 -0.703125,1.8281 l -4.578125,-0.2187 q 0.421875,-2.4688 2.25,-3.7344 1.84375,-1.2813 5.015625,-1.2813 3.203125,0 4.9375,1.5782 1.734375,1.5781 1.734375,4.4843 v 6.1563 q 0,1.4219 0.3125,1.9687 0.328125,0.5313 1.078125,0.5313 0.5,0 0.96875,-0.094 v 2.375 q -0.390625,0.094 -0.703125,0.1719 -0.3125,0.078 -0.625,0.125 -0.3125,0.047 -0.671875,0.078 -0.34375,0.031 -0.8125,0.031 -1.65625,0 -2.453125,-0.8125 -0.78125,-0.8125 -0.9375,-2.3906 h -0.09375 q -1.84375,3.3281 -5.5625,3.3281 z m 5.109375,-8.1406 -2.25,0.031 q -1.53125,0.062 -2.171875,0.3438 -0.640625,0.2656 -0.984375,0.8281 -0.328125,0.5625 -0.328125,1.5 0,1.2031 0.546875,1.7969 0.5625,0.5781 1.484375,0.5781 1.03125,0 1.875,-0.5625 0.859375,-0.5625 1.34375,-1.5469 0.484375,-1 0.484375,-2.1094 z m 8.781253,7.8281 v -23.1875 h 4.39062 v 23.1875 z m 8.89062,0 v -23.1875 h 4.39063 v 23.1875 z m 15.8125,0.3125 q -3.8125,0 -5.85937,-2.25 -2.04688,-2.2656 -2.04688,-6.5938 0,-4.1875 2.07813,-6.4375 2.07812,-2.25 5.89062,-2.25 3.64063,0 5.5625,2.4219 1.92188,2.4063 1.92188,7.0625 v 0.125 h -10.84375 q 0,2.4688 0.90625,3.7344 0.92187,1.25 2.60937,1.25 2.32813,0 2.9375,-2.0156 l 4.14063,0.3593 q -1.79688,4.5938 -7.29688,4.5938 z m 0,-14.7656 q -1.54687,0 -2.39062,1.0781 -0.82813,1.0781 -0.875,3.0156 h 6.5625 q -0.125,-2.0469 -0.98438,-3.0625 -0.85937,-1.0312 -2.3125,-1.0312 z"
       id="text32-75"
       aria-label="Galle" />
    <path
       style="font-weight:bold;font-size:32px;line-height:1.25;font-family:'Liberation Sans';-inkscape-font-specification:'Liberation Sans Bold';letter-spacing:0px;word-spacing:0px"
       d="m 87.209068,817.92633 q 4.171875,0 5.796875,-4.1875 l 4.015625,1.51563 q -1.296875,3.1875 -3.8125,4.75 -2.5,1.54687 -6,1.54687 -5.3125,0 -8.21875,-3 -2.890625,-3.01562 -2.890625,-8.42187 0,-5.42188 2.796875,-8.32813 2.796875,-2.90625 8.109375,-2.90625 3.875,0 6.3125,1.5625 2.4375,1.54688 3.421875,4.5625 l -4.0625,1.10938 q -0.515625,-1.65625 -2.03125,-2.625 -1.5,-0.98438 -3.546875,-0.98438 -3.125,0 -4.75,1.9375 -1.609375,1.9375 -1.609375,5.67188 0,3.79687 1.65625,5.79687 1.671875,2 4.8125,2 z m 28.984372,-5.15625 q 0,4.10938 -2.28125,6.45313 -2.28125,2.32812 -6.3125,2.32812 -3.95312,0 -6.20312,-2.34375 -2.250002,-2.34375 -2.250002,-6.4375 0,-4.07812 2.250002,-6.40625 2.25,-2.34375 6.29687,-2.34375 4.14063,0 6.3125,2.26563 2.1875,2.25 2.1875,6.48437 z m -4.59375,0 q 0,-3.01562 -0.98437,-4.375 -0.98438,-1.35937 -2.85938,-1.35937 -4,0 -4,5.73437 0,2.82813 0.96875,4.3125 0.98438,1.46875 2.82813,1.46875 4.04687,0 4.04687,-5.78125 z m 8.07813,8.46875 v -23.1875 h 4.39062 v 23.1875 z m 24.95312,-8.46875 q 0,4.10938 -2.28125,6.45313 -2.28125,2.32812 -6.3125,2.32812 -3.95312,0 -6.20312,-2.34375 -2.25,-2.34375 -2.25,-6.4375 0,-4.07812 2.25,-6.40625 2.25,-2.34375 6.29687,-2.34375 4.14063,0 6.3125,2.26563 2.1875,2.25 2.1875,6.48437 z m -4.59375,0 q 0,-3.01562 -0.98437,-4.375 -0.98438,-1.35937 -2.85938,-1.35937 -4,0 -4,5.73437 0,2.82813 0.96875,4.3125 0.98438,1.46875 2.82813,1.46875 4.04687,0 4.04687,-5.78125 z m 18.03125,8.46875 v -9.48437 q 0,-4.45313 -2.5625,-4.45313 -1.32812,0 -2.17187,1.35938 -0.82813,1.35937 -0.82813,3.51562 v 9.0625 h -4.39062 v -13.125 q 0,-1.35937 -0.0469,-2.21875 -0.0312,-0.875 -0.0781,-1.5625 h 4.1875 q 0.0469,0.29688 0.125,1.59375 0.0781,1.28125 0.0781,1.76563 h 0.0625 q 0.8125,-1.9375 2.01563,-2.8125 1.21875,-0.875 2.90625,-0.875 3.875,0 4.70312,3.6875 h 0.0937 q 0.85938,-1.96875 2.0625,-2.82813 1.20313,-0.85937 3.0625,-0.85937 2.46875,0 3.76563,1.6875 1.29687,1.67187 1.29687,4.8125 v 10.73437 h -4.35937 v -9.48437 q 0,-4.45313 -2.5625,-4.45313 -1.28125,0 -2.10938,1.25 -0.8125,1.23438 -0.89062,3.42188 v 9.26562 z m 34.5,-8.51562 q 0,4.1875 -1.6875,6.51562 -1.67187,2.3125 -4.79687,2.3125 -1.79688,0 -3.10938,-0.78125 -1.3125,-0.78125 -2.01562,-2.25 h -0.0312 q 0,0.54688 -0.0781,1.5 -0.0625,0.95313 -0.14062,1.21875 h -4.26563 q 0.125,-1.45312 0.125,-3.85937 v -19.32813 h 4.39063 v 6.46875 l -0.0625,2.75 h 0.0625 q 1.48437,-3.25 5.40625,-3.25 3,0 4.59375,2.28125 1.60937,2.26563 1.60937,6.42188 z m -4.57812,0 q 0,-2.875 -0.84375,-4.26563 -0.84375,-1.39062 -2.60938,-1.39062 -1.78125,0 -2.71875,1.5 -0.92187,1.48437 -0.92187,4.29687 0,2.6875 0.90625,4.1875 0.92187,1.5 2.70312,1.5 3.48438,0 3.48438,-5.82812 z m 24.1875,0.0469 q 0,4.10938 -2.28125,6.45313 -2.28125,2.32812 -6.3125,2.32812 -3.95313,0 -6.20313,-2.34375 -2.25,-2.34375 -2.25,-6.4375 0,-4.07812 2.25,-6.40625 2.25,-2.34375 6.29688,-2.34375 4.14062,0 6.3125,2.26563 2.1875,2.25 2.1875,6.48437 z m -4.59375,0 q 0,-3.01562 -0.98438,-4.375 -0.98437,-1.35937 -2.85937,-1.35937 -4,0 -4,5.73437 0,2.82813 0.96875,4.3125 0.98437,1.46875 2.82812,1.46875 4.04688,0 4.04688,-5.78125 z"
       id="text32-8"
       aria-label="Colombo" />
    <path
       style="font-weight:bold;font-size:32px;line-height:1.25;font-family:'Liberation Sans';-inkscape-font-specification:'Liberation Sans Bold';letter-spacing:0px;word-spacing:0px"
       d="m 411.53339,596.0932 q 0,3 -2.25,4.64063 -2.25,1.64062 -6.25,1.64062 h -11.01563 v -22.01562 h 10.07813 q 4.03125,0 6.09375,1.40625 2.07812,1.39062 2.07812,4.125 0,1.875 -1.04687,3.17187 -1.03125,1.28125 -3.15625,1.73438 2.67187,0.3125 4.0625,1.6875 1.40625,1.35937 1.40625,3.60937 z m -5.90625,-9.57812 q 0,-1.48438 -0.95313,-2.10938 -0.9375,-0.625 -2.79687,-0.625 h -5.25 v 5.45313 h 5.28125 q 1.95312,0 2.82812,-0.67188 0.89063,-0.6875 0.89063,-2.04687 z m 1.28125,9.21875 q 0,-3.09375 -4.4375,-3.09375 h -5.84375 v 6.3125 h 6.01562 q 2.21875,0 3.23438,-0.79688 1.03125,-0.8125 1.03125,-2.42187 z m 12.21875,6.95312 q -2.45313,0 -3.82813,-1.32812 -1.375,-1.34375 -1.375,-3.76563 0,-2.625 1.70313,-4 1.71875,-1.375 4.96875,-1.40625 l 3.64062,-0.0625 v -0.85937 q 0,-1.65625 -0.57812,-2.45313 -0.57813,-0.8125 -1.89063,-0.8125 -1.21875,0 -1.79687,0.5625 -0.5625,0.54688 -0.70313,1.82813 l -4.57812,-0.21875 q 0.42187,-2.46875 2.25,-3.73438 1.84375,-1.28125 5.01562,-1.28125 3.20313,0 4.9375,1.57813 1.73438,1.57812 1.73438,4.48437 v 6.15625 q 0,1.42188 0.3125,1.96875 0.32812,0.53125 1.07812,0.53125 0.5,0 0.96875,-0.0937 v 2.375 q -0.39062,0.0937 -0.70312,0.17188 -0.3125,0.0781 -0.625,0.125 -0.3125,0.0469 -0.67188,0.0781 -0.34375,0.0312 -0.8125,0.0312 -1.65625,0 -2.45312,-0.8125 -0.78125,-0.8125 -0.9375,-2.39062 h -0.0937 q -1.84375,3.32812 -5.5625,3.32812 z m 5.10937,-8.14062 -2.25,0.0312 q -1.53125,0.0625 -2.17187,0.34375 -0.64063,0.26562 -0.98438,0.82812 -0.32812,0.5625 -0.32812,1.5 0,1.20313 0.54687,1.79688 0.5625,0.57812 1.48438,0.57812 1.03125,0 1.875,-0.5625 0.85937,-0.5625 1.34375,-1.54687 0.48437,-1 0.48437,-2.10938 z m 13.10938,8.10937 q -1.9375,0 -2.98438,-1.04687 -1.04687,-1.0625 -1.04687,-3.20313 v -9.96875 h -2.14063 v -2.96875 h 2.35938 l 1.375,-3.96875 h 2.75 v 3.96875 h 3.20312 v 2.96875 h -3.20312 v 8.78125 q 0,1.23438 0.46875,1.82813 0.46875,0.57812 1.45312,0.57812 0.51563,0 1.46875,-0.21875 v 2.71875 q -1.625,0.53125 -3.70312,0.53125 z m 10.65625,0 q -1.9375,0 -2.98438,-1.04687 -1.04687,-1.0625 -1.04687,-3.20313 v -9.96875 h -2.14063 v -2.96875 h 2.35938 l 1.375,-3.96875 h 2.75 v 3.96875 h 3.20312 v 2.96875 h -3.20312 v 8.78125 q 0,1.23438 0.46875,1.82813 0.46875,0.57812 1.45312,0.57812 0.51563,0 1.46875,-0.21875 v 2.71875 q -1.625,0.53125 -3.70312,0.53125 z m 6.32812,-20.23437 v -3.23438 h 4.39063 v 3.23438 z m 0,19.95312 V 585.4682 h 4.39063 v 16.90625 z m 15.9375,0.3125 q -3.84375,0 -5.9375,-2.28125 -2.09375,-2.29687 -2.09375,-6.39062 0,-4.1875 2.10938,-6.51563 2.10937,-2.34375 5.98437,-2.34375 2.98438,0 4.9375,1.5 1.95313,1.5 2.45313,4.14063 l -4.42188,0.21875 q -0.1875,-1.29688 -0.9375,-2.0625 -0.75,-0.78125 -2.125,-0.78125 -3.39062,0 -3.39062,5.67187 0,5.84375 3.45312,5.84375 1.25,0 2.09375,-0.78125 0.84375,-0.79687 1.04688,-2.35937 l 4.40625,0.20312 q -0.23438,1.73438 -1.25,3.09375 -1,1.35938 -2.64063,2.10938 -1.64062,0.73437 -3.6875,0.73437 z m 14.65625,0 q -2.45312,0 -3.82812,-1.32812 -1.375,-1.34375 -1.375,-3.76563 0,-2.625 1.70312,-4 1.71875,-1.375 4.96875,-1.40625 l 3.64063,-0.0625 v -0.85937 q 0,-1.65625 -0.57813,-2.45313 -0.57812,-0.8125 -1.89062,-0.8125 -1.21875,0 -1.79688,0.5625 -0.5625,0.54688 -0.70312,1.82813 l -4.57813,-0.21875 q 0.42188,-2.46875 2.25,-3.73438 1.84375,-1.28125 5.01563,-1.28125 3.20312,0 4.9375,1.57813 1.73437,1.57812 1.73437,4.48437 v 6.15625 q 0,1.42188 0.3125,1.96875 0.32813,0.53125 1.07813,0.53125 0.5,0 0.96875,-0.0937 v 2.375 q -0.39063,0.0937 -0.70313,0.17188 -0.3125,0.0781 -0.625,0.125 -0.3125,0.0469 -0.67187,0.0781 -0.34375,0.0312 -0.8125,0.0312 -1.65625,0 -2.45313,-0.8125 -0.78125,-0.8125 -0.9375,-2.39062 h -0.0937 q -1.84375,3.32812 -5.5625,3.32812 z m 5.10938,-8.14062 -2.25,0.0312 q -1.53125,0.0625 -2.17188,0.34375 -0.64062,0.26562 -0.98437,0.82812 -0.32813,0.5625 -0.32813,1.5 0,1.20313 0.54688,1.79688 0.5625,0.57812 1.48437,0.57812 1.03125,0 1.875,-0.5625 0.85938,-0.5625 1.34375,-1.54687 0.48438,-1 0.48438,-2.10938 z m 8.78125,7.82812 v -23.1875 h 4.39062 v 23.1875 z m 24.95312,-8.46875 q 0,4.10938 -2.28125,6.45313 -2.28125,2.32812 -6.3125,2.32812 -3.95312,0 -6.20312,-2.34375 -2.25,-2.34375 -2.25,-6.4375 0,-4.07812 2.25,-6.40625 2.25,-2.34375 6.29687,-2.34375 4.14063,0 6.3125,2.26563 2.1875,2.25 2.1875,6.48437 z m -4.59375,0 q 0,-3.01562 -0.98437,-4.375 -0.98438,-1.35937 -2.85938,-1.35937 -4,0 -4,5.73437 0,2.82813 0.96875,4.3125 0.98438,1.46875 2.82813,1.46875 4.04687,0 4.04687,-5.78125 z m 11.98438,8.78125 q -2.45313,0 -3.82813,-1.32812 -1.375,-1.34375 -1.375,-3.76563 0,-2.625 1.70313,-4 1.71875,-1.375 4.96875,-1.40625 l 3.64062,-0.0625 v -0.85937 q 0,-1.65625 -0.57812,-2.45313 -0.57813,-0.8125 -1.89063,-0.8125 -1.21875,0 -1.79687,0.5625 -0.5625,0.54688 -0.70313,1.82813 l -4.57812,-0.21875 q 0.42187,-2.46875 2.25,-3.73438 1.84375,-1.28125 5.01562,-1.28125 3.20313,0 4.9375,1.57813 1.73438,1.57812 1.73438,4.48437 v 6.15625 q 0,1.42188 0.3125,1.96875 0.32812,0.53125 1.07812,0.53125 0.5,0 0.96875,-0.0937 v 2.375 q -0.39062,0.0937 -0.70312,0.17188 -0.3125,0.0781 -0.625,0.125 -0.3125,0.0469 -0.67188,0.0781 -0.34375,0.0312 -0.8125,0.0312 -1.65625,0 -2.45312,-0.8125 -0.78125,-0.8125 -0.9375,-2.39062 h -0.0937 q -1.84375,3.32812 -5.5625,3.32812 z m 5.10937,-8.14062 -2.25,0.0312 q -1.53125,0.0625 -2.17187,0.34375 -0.64063,0.26562 -0.98438,0.82812 -0.32812,0.5625 -0.32812,1.5 0,1.20313 0.54687,1.79688 0.5625,0.57812 1.48438,0.57812 1.03125,0 1.875,-0.5625 0.85937,-0.5625 1.34375,-1.54687 0.48437,-1 0.48437,-2.10938 z"
       id="text32-6"
       aria-label="Batticaloa" />
    <path
       style="font-weight:bold;font-size:32px;line-height:1.25;font-family:'Liberation Sans';-inkscape-font-specification:'Liberation Sans Bold';letter-spacing:0px;word-spacing:0px"
       d="m 333.55313,535.4884 v -22.01562 h 17.3125 v 3.5625 h -12.70312 v 5.53125 h 11.75 v 3.5625 h -11.75 v 5.79687 h 13.34375 v 3.5625 z m 21.4375,0 v -23.1875 h 4.39063 v 23.1875 z m 8.89063,0 v -23.1875 h 4.39062 v 23.1875 z m 12.79687,0.3125 q -2.45312,0 -3.82812,-1.32812 -1.375,-1.34375 -1.375,-3.76563 0,-2.625 1.70312,-4 1.71875,-1.375 4.96875,-1.40625 l 3.64063,-0.0625 v -0.85937 q 0,-1.65625 -0.57813,-2.45313 -0.57812,-0.8125 -1.89062,-0.8125 -1.21875,0 -1.79688,0.5625 -0.5625,0.54688 -0.70312,1.82813 l -4.57813,-0.21875 q 0.42188,-2.46875 2.25,-3.73438 1.84375,-1.28125 5.01563,-1.28125 3.20312,0 4.9375,1.57813 1.73437,1.57812 1.73437,4.48437 v 6.15625 q 0,1.42188 0.3125,1.96875 0.32813,0.53125 1.07813,0.53125 0.5,0 0.96875,-0.0937 v 2.375 q -0.39063,0.0937 -0.70313,0.17188 -0.3125,0.0781 -0.625,0.125 -0.3125,0.0469 -0.67187,0.0781 -0.34375,0.0312 -0.8125,0.0312 -1.65625,0 -2.45313,-0.8125 -0.78125,-0.8125 -0.9375,-2.39062 h -0.0937 q -1.84375,3.32812 -5.5625,3.32812 z m 5.10938,-8.14062 -2.25,0.0312 q -1.53125,0.0625 -2.17188,0.34375 -0.64062,0.26562 -0.98437,0.82812 -0.32813,0.5625 -0.32813,1.5 0,1.20313 0.54688,1.79688 0.5625,0.57812 1.48437,0.57812 1.03125,0 1.875,-0.5625 0.85938,-0.5625 1.34375,-1.54687 0.48438,-1 0.48438,-2.10938 z"
       id="text32-3"
       transform="translate(76.089373,301.72229)"
       aria-label="Ella" />
    <path
       style="font-weight:bold;font-size:32px;line-height:1.25;font-family:'Liberation Sans';-inkscape-font-specification:'Liberation Sans Bold';letter-spacing:0px;word-spacing:0px"
       d="m 347.75626,535.4884 v -9.4375 h -9.59375 v 9.4375 h -4.60938 v -22.01562 h 4.60938 v 8.76562 h 9.59375 v -8.76562 h 4.60937 v 22.01562 z m 12.90625,0.3125 q -2.45313,0 -3.82813,-1.32812 -1.375,-1.34375 -1.375,-3.76563 0,-2.625 1.70313,-4 1.71875,-1.375 4.96875,-1.40625 l 3.64062,-0.0625 v -0.85937 q 0,-1.65625 -0.57812,-2.45313 -0.57813,-0.8125 -1.89063,-0.8125 -1.21875,0 -1.79687,0.5625 -0.5625,0.54688 -0.70313,1.82813 l -4.57812,-0.21875 q 0.42187,-2.46875 2.25,-3.73438 1.84375,-1.28125 5.01562,-1.28125 3.20313,0 4.9375,1.57813 1.73438,1.57812 1.73438,4.48437 v 6.15625 q 0,1.42188 0.3125,1.96875 0.32812,0.53125 1.07812,0.53125 0.5,0 0.96875,-0.0937 v 2.375 q -0.39062,0.0937 -0.70312,0.17188 -0.3125,0.0781 -0.625,0.125 -0.3125,0.0469 -0.67188,0.0781 -0.34375,0.0312 -0.8125,0.0312 -1.65625,0 -2.45312,-0.8125 -0.78125,-0.8125 -0.9375,-2.39062 h -0.0937 q -1.84375,3.32812 -5.5625,3.32812 z m 5.10937,-8.14062 -2.25,0.0312 q -1.53125,0.0625 -2.17187,0.34375 -0.64063,0.26562 -0.98438,0.82812 -0.32812,0.5625 -0.32812,1.5 0,1.20313 0.54687,1.79688 0.5625,0.57812 1.48438,0.57812 1.03125,0 1.875,-0.5625 0.85937,-0.5625 1.34375,-1.54687 0.48437,-1 0.48437,-2.10938 z m 13.10938,8.10937 q -1.9375,0 -2.98438,-1.04687 -1.04687,-1.0625 -1.04687,-3.20313 v -9.96875 h -2.14063 v -2.96875 h 2.35938 l 1.375,-3.96875 h 2.75 v 3.96875 h 3.20312 v 2.96875 h -3.20312 v 8.78125 q 0,1.23438 0.46875,1.82813 0.46875,0.57812 1.45312,0.57812 0.51563,0 1.46875,-0.21875 v 2.71875 q -1.625,0.53125 -3.70312,0.53125 z m 10.65625,0 q -1.9375,0 -2.98438,-1.04687 -1.04687,-1.0625 -1.04687,-3.20313 v -9.96875 h -2.14063 v -2.96875 h 2.35938 l 1.375,-3.96875 h 2.75 v 3.96875 h 3.20312 v 2.96875 h -3.20312 v 8.78125 q 0,1.23438 0.46875,1.82813 0.46875,0.57812 1.45312,0.57812 0.51563,0 1.46875,-0.21875 v 2.71875 q -1.625,0.53125 -3.70312,0.53125 z m 22.39062,-8.75 q 0,4.10938 -2.28125,6.45313 -2.28125,2.32812 -6.3125,2.32812 -3.95312,0 -6.20312,-2.34375 -2.25,-2.34375 -2.25,-6.4375 0,-4.07812 2.25,-6.40625 2.25,-2.34375 6.29687,-2.34375 4.14063,0 6.3125,2.26563 2.1875,2.25 2.1875,6.48437 z m -4.59375,0 q 0,-3.01562 -0.98437,-4.375 -0.98438,-1.35937 -2.85938,-1.35937 -4,0 -4,5.73437 0,2.82813 0.96875,4.3125 0.98438,1.46875 2.82813,1.46875 4.04687,0 4.04687,-5.78125 z m 19.03125,8.46875 v -9.48437 q 0,-4.45313 -3.01562,-4.45313 -1.59375,0 -2.57813,1.375 -0.96875,1.35938 -0.96875,3.5 v 9.0625 h -4.39062 v -13.125 q 0,-1.35937 -0.0469,-2.21875 -0.0312,-0.875 -0.0781,-1.5625 h 4.1875 q 0.0469,0.29688 0.125,1.59375 0.0781,1.28125 0.0781,1.76563 h 0.0625 q 0.89063,-1.9375 2.23438,-2.8125 1.34375,-0.875 3.20312,-0.875 2.6875,0 4.125,1.65625 1.4375,1.65625 1.4375,4.84375 v 10.73437 z"
       id="text32-7"
       transform="translate(-86.69348,331.32665)"
       aria-label="Hatton" />
  </g>
  <g
     inkscape:groupmode="layer"
     id="layer4"
     inkscape:label="Routes"
     style="overflow:hidden">
    <path
       style="fill:none;stroke:#0000ff;stroke-width:3;stroke-linecap:butt;stroke-linejoin:miter;stroke-opacity:1;stroke-dasharray:3,3;stroke-dashoffset:0"
       d="m 71.55543,794.56342 c 4.957209,-4.96232 9.665338,-10.20205 16.398119,-12.82035 8.83553,-3.43604 8.280377,-1.79614 16.696271,-2.98148 20.37243,-2.86935 6.8528,-1.48999 21.46662,-3.87592 7.90252,-1.2902 6.85977,-0.30453 15.20553,-2.98147 2.02863,-0.65069 11.08065,-4.44119 13.41665,-5.66481 2.24966,-1.17839 4.30409,-2.70807 6.55924,-3.87592 10.75771,-5.57095 7.50973,-2.68076 14.60924,-7.75183 19.47424,-13.91018 -4.62479,2.54218 18.187,-12.5222 1.90922,-1.26081 3.77786,-2.58202 5.66481,-3.87592 1.59144,-1.09128 3.10356,-2.30733 4.77036,-3.27963 1.91954,-1.11973 3.93401,-2.07492 5.96295,-2.98147 3.80274,-1.6991 8.05437,-3.54562 12.22406,-4.47222 0.38806,-0.0862 0.80452,0.0862 1.19259,0 4.50156,-1.00034 6.52606,-2.0486 10.73331,-2.38518 10.42317,-0.83385 -2.90036,0.65955 6.8574,0.29815 10.63118,-0.39375 1.50464,-0.36595 6.2611,-0.89444 0.39509,-0.0439 0.79506,0 1.19259,0 0.39753,0 0.79506,0 1.19259,0 0.0994,0 0.20173,0.0241 0.29814,0 0.70192,-0.17548 1.37519,-0.46687 2.08704,-0.5963 0.39112,-0.0711 0.79813,0.0493 1.19259,0 0.4066,-0.0508 0.79258,-0.20926 1.19259,-0.29815 0.49468,-0.10993 0.99382,-0.19876 1.49074,-0.29814"
       id="path32" />
    <path
       style="fill:none;stroke:#0000ff;stroke-width:3;stroke-linecap:butt;stroke-linejoin:miter;stroke-opacity:1;font-variation-settings:normal;opacity:1;vector-effect:none;fill-opacity:1;stroke-miterlimit:4;stroke-dasharray:3, 3;stroke-dashoffset:0;-inkscape-stroke:none;stop-color:#000000;stop-opacity:1"
       d="m 273.69952,729.26909 c -0.7286,13.11482 -0.5963,7.15002 -0.5963,17.88886 0,2.82357 -0.0214,1.86392 -1.19259,5.96295 -2.82913,9.90198 0.88155,-2.35078 -3.57777,9.54072 -0.002,0.006 -2.37745,8.32303 -2.38518,8.34814 -0.73939,2.40302 -1.69448,4.73807 -2.38518,7.15554 -0.10921,0.38223 0.0396,0.79703 0,1.19259 -0.2246,2.246 -0.91868,6.36534 -0.5963,8.94443 0.078,0.62369 0.39753,1.19259 0.5963,1.78888 0.32324,0.96971 0.60766,2.10409 1.19259,2.98148 0.15592,0.23389 0.4919,0.3353 0.5963,0.59629 0.84077,2.10194 0.59629,4.35628 0.59629,6.55925 0,0.19877 0,0.39753 0,0.5963 -0.19876,0 -0.53344,-0.18857 -0.59629,0 -0.62898,1.88691 -0.5963,5.09702 -0.5963,2.98147"
       id="path33" />
    <path
       style="fill:none;stroke:#0000ff;stroke-width:3;stroke-linecap:butt;stroke-linejoin:miter;stroke-opacity:1;font-variation-settings:normal;opacity:1;vector-effect:none;fill-opacity:1;stroke-miterlimit:4;stroke-dasharray:3, 3;stroke-dashoffset:0;-inkscape-stroke:none;stop-color:#000000;stop-opacity:1"
       d="m 277.87359,824.08003 c 4.94888,0.46635 9.95693,-0.43047 14.90738,0 2.2139,0.19252 4.36722,0.82726 6.55924,1.19259 0.19607,0.0327 0.42586,-0.10226 0.5963,0 1.3505,0.8103 2.71782,2.25335 4.17407,2.98148 0.35556,0.17778 0.80452,-0.0862 1.19259,0 1.60002,0.35556 3.20738,0.69902 4.77036,1.19259 3.39866,1.07326 11.24496,4.23703 14.31108,5.36666 1.1796,0.43458 2.35061,0.91988 3.57778,1.19259 0.73937,0.1643 2.24024,-0.18531 2.98147,0 0.5963,0.19876 1.19259,0.39753 1.78889,0.59629 0,0.19877 -0.16174,0.48077 0,0.5963 6.47015,4.62154 1.97677,0.10947 7.15554,4.77036 5.08676,4.57808 1.14644,1.22503 4.77036,5.36666 0.74042,0.84618 1.76149,1.44963 2.38518,2.38518 0.98616,1.47922 1.30124,3.36123 2.38519,4.77036 0.94651,1.23047 2.37627,1.99843 3.57777,2.98148 2.77127,2.2674 3.15412,2.81201 6.55924,4.17406 2.40052,0.96021 4.7504,0.74005 7.15555,0 1.80226,-0.55454 3.60669,-1.11197 5.36665,-1.78888 0.82966,-0.3191 1.57596,-0.82476 2.38519,-1.19259 3.97215,-1.80553 4.49059,-1.2171 7.15554,-4.77037 0.65915,-0.87886 0.59629,-1.50773 0.59629,-2.38518 0,-0.19876 -0.0629,-0.40773 0,-0.59629 0.14055,-0.42165 0.45575,-0.77095 0.5963,-1.19259 0.12571,-0.37713 -0.12571,-0.81546 0,-1.19259 0.14055,-0.42165 0.45575,-0.77095 0.59629,-1.19259 0.0629,-0.18857 0,-0.39753 0,-0.5963 0,-0.79506 0,-1.59012 0,-2.38518"
       id="path34" />
    <path
       style="fill:none;stroke:#0000ff;stroke-width:3;stroke-linecap:butt;stroke-linejoin:miter;stroke-opacity:1;font-variation-settings:normal;opacity:1;vector-effect:none;fill-opacity:1;stroke-miterlimit:4;stroke-dasharray:3, 3;stroke-dashoffset:0;-inkscape-stroke:none;stop-color:#000000;stop-opacity:1"
       d="m 392.95857,807.38377 c 1.27906,-5.45821 3.26117,-10.71 4.77036,-16.09998 0.66291,-2.36753 1.04853,-4.81107 1.78889,-7.15554 0.45583,-1.44348 1.37302,-2.71856 1.78888,-4.17407 0.38612,-1.3514 0.29141,-2.80205 0.5963,-4.17406 1.27906,-5.75578 2.57916,-8.46311 4.17406,-14.31109 0.48217,-1.76795 0.87413,-3.56202 1.19259,-5.36666 0.81726,-4.6311 0.495,-8.46573 2.38519,-13.11849 1.54044,-3.79187 3.9858,-7.14973 5.96295,-10.73332 1.20311,-2.18064 2.39158,-4.36935 3.57777,-6.55924 2.47213,-4.56393 4.84913,-9.74926 8.34813,-13.71479 4.12025,-4.66961 5.63003,-4.96887 11.92591,-5.96296 6.17466,-0.97494 2.59447,1.58591 9.54072,-1.19259 1.3308,-0.53232 2.35708,-1.63398 3.57777,-2.38518 5.69701,-3.50585 3.80552,-1.42033 9.54073,-7.15554 1.29579,-1.29579 2.37759,-2.78925 3.57777,-4.17407 1.3838,-1.59669 2.76061,-3.19985 4.17407,-4.77036 8.18329,-9.09255 5.92281,-5.7875 13.71479,-16.69627 1.66619,-2.33267 3.15162,-4.78969 4.77036,-7.15554 0.96552,-1.41114 2.0128,-2.76509 2.98147,-4.17407 1.21803,-1.77166 2.25782,-3.66957 3.57778,-5.36665 2.57725,-3.31361 5.41292,-6.00922 8.34813,-8.94443 0.79506,-0.79506 1.62884,-1.55321 2.38518,-2.38518 1.23269,-1.35596 2.38518,-2.78271 3.57777,-4.17407 1.19259,-1.39136 2.433,-2.74311 3.57777,-4.17407 1.24168,-1.55209 2.276,-3.26831 3.57777,-4.77036 1.28869,-1.48695 2.73217,-2.83516 4.17407,-4.17407 1.34286,-1.24694 2.75577,-2.41734 4.17407,-3.57777 0.76918,-0.62932 1.49627,-1.34443 2.38518,-1.78888 0.35556,-0.17778 0.79623,0.0305 1.19259,0 0.58551,-0.045 10.74428,-0.93939 11.9259,-1.19259 1.04663,-0.22428 1.95228,-0.89854 2.98148,-1.19259 0.38224,-0.10921 0.83703,0.17778 1.19259,0 0.50284,-0.25142 0.73793,-0.86193 1.19259,-1.19259 1.73876,-1.26456 3.55281,-2.42351 5.36666,-3.57778 0.37497,-0.23861 0.83703,-0.32962 1.19259,-0.59629 0.32493,-0.2437 2.76258,-2.65313 2.98148,-2.98148 0.11025,-0.16538 -0.14055,-0.45574 0,-0.59629 0.14054,-0.14055 0.45574,0.14055 0.59629,0 0.14055,-0.14055 0,-0.39753 0,-0.5963 0,-0.19876 0,-0.39753 0,-0.59629"
       id="path35" />
    <path
       style="fill:none;stroke:#0000ff;stroke-width:3;stroke-linecap:butt;stroke-linejoin:miter;stroke-opacity:1;font-variation-settings:normal;opacity:1;vector-effect:none;fill-opacity:1;stroke-miterlimit:4;stroke-dasharray:3, 3;stroke-dashoffset:0;-inkscape-stroke:none;stop-color:#000000;stop-opacity:1"
       d="m 547.99533,573.63603 c -8.71543,-1.93676 -31.26491,-6.9762 -35.77771,-7.75184 -4.32741,-0.74377 -8.74125,-0.84702 -13.1185,-1.19259 -3.17656,-0.25078 -6.35682,-0.72365 -9.54072,-0.5963 -1.83106,0.0733 -3.54829,0.9653 -5.36666,1.19259 -6.61234,0.82655 -17.27821,0.73531 -23.25551,0.5963 -17.33997,-0.40325 -5.676,-0.74599 -24.44811,-1.78889 -6.35379,-0.35298 -12.71891,-0.48061 -19.08145,-0.59629 -4.57084,-0.0831 -9.15481,0.32571 -13.71479,0 -3.8136,-0.2724 -7.56125,-1.14288 -11.32961,-1.78889 -8.33975,-1.42967 -16.61888,-3.2632 -25.0444,-4.17406 -4.56226,-0.49322 -9.1437,-0.78926 -13.71479,-1.19259 -2.18693,-0.19297 -4.42352,-0.0878 -6.55925,-0.5963 -2.08255,-0.49584 -3.95418,-1.64511 -5.96295,-2.38518 -11.30784,-4.16605 -1.7341,0.48831 -7.15554,-3.57777 -0.15901,-0.11926 -0.48604,0.16538 -0.5963,0 -0.34865,-0.52299 -0.3152,-1.22669 -0.59629,-1.78889 -0.3205,-0.641 -0.87209,-1.14788 -1.19259,-1.78888 -0.0889,-0.17778 0,-0.39753 0,-0.5963 -0.5963,-1.19259 -1.04927,-2.46835 -1.78889,-3.57777 -0.11025,-0.16538 -0.47703,0.15901 -0.59629,0 -0.53335,-0.71112 -0.79506,-1.59012 -1.19259,-2.38518 -0.19877,-0.39753 -0.28202,-0.87832 -0.5963,-1.19259 -0.31427,-0.31428 -0.83703,-0.32963 -1.19259,-0.5963 -1.86636,-1.39977 -0.50431,-1.19259 -2.38518,-1.19259"
       id="path36" />
    <path
       style="overflow:hidden;fill:none;stroke:#0000ff;stroke-width:3;stroke-linecap:butt;stroke-linejoin:miter;stroke-opacity:1;font-variation-settings:normal;opacity:1;vector-effect:none;fill-opacity:1;stroke-miterlimit:4;stroke-dasharray:3, 3;stroke-dashoffset:0;-inkscape-stroke:none;stop-color:#000000;stop-opacity:1"
       d="m 203.93297,1080.487 c -2.78271,-1.9877 -5.56542,-3.9753 -8.34813,-5.963 -1.59012,-1.1926 -3.16288,-2.4087 -4.77036,-3.5777 -0.57959,-0.4216 -1.28213,-0.6859 -1.78889,-1.1926 -5.21907,-5.2191 -1.4634,-3.4151 -7.75183,-6.5593 -2.59023,-1.2951 -5.55412,-0.5963 -8.34814,-0.5963"
       id="path37" />
    <path
       style="overflow:hidden;fill:none;stroke:#0000ff;stroke-width:3;stroke-linecap:butt;stroke-linejoin:miter;stroke-opacity:1;font-variation-settings:normal;opacity:1;vector-effect:none;fill-opacity:1;stroke-miterlimit:4;stroke-dasharray:3, 3;stroke-dashoffset:0;-inkscape-stroke:none;stop-color:#000000;stop-opacity:1"
       d="m 142.51456,1043.5167 c -1.39135,-4.1741 -2.78271,-8.3481 -4.17406,-12.5222 -1.59012,-5.5654 -2.97372,-11.1941 -4.77036,-16.6963 -1.38647,-4.246 -2.7728,-8.5271 -4.77037,-12.5222 -2.93292,-5.86584 -8.03293,-10.38133 -11.9259,-15.50366 -1.73455,-2.2823 -3.31202,-4.68758 -4.77036,-7.15554 -2.8519,-4.8263 -3.44692,-7.24292 -5.36666,-12.5222 -0.79506,-2.18642 -1.41584,-4.44432 -2.38518,-6.55925 -3.37651,-7.36694 -5.321495,-8.20135 -7.75184,-16.09997 -0.711123,-2.31115 -0.873008,-4.75868 -1.19259,-7.15555 -2.550875,-19.13155 -0.340307,-2.63205 -1.192591,-19.67774 -0.05061,-1.01224 -0.409517,-1.98533 -0.596295,-2.98148 -0.409537,-2.18419 -0.783053,-4.37504 -1.192591,-6.55924 -0.783062,-4.17634 -1.50579,-8.36509 -2.385181,-12.5222 -5.68408,-26.8702 -2.140833,-9.75593 -6.559247,-27.42958 -0.245812,-0.98325 -0.325037,-2.00495 -0.596296,-2.98148 -0.723574,-2.60487 -1.435919,-5.22048 -2.385181,-7.75184 -0.251635,-0.67103 -0.776041,-1.20572 -1.19259,-1.78888 -13.705956,-19.18834 2.095241,3.441 -7.751838,-11.32961 -0.155924,-0.23389 -0.470585,-0.34488 -0.596296,-0.5963 -0.08889,-0.17778 0.04821,-0.40346 0,-0.59629 -0.392127,-1.56852 -1.730419,-6.11494 -2.385181,-7.75184 -2.090811,-5.22703 -0.23374,0.12881 -2.38518,-4.17407 -0.08889,-0.17778 0.140548,-0.45575 0,-0.5963 -0.140549,-0.14054 -0.455748,0.14055 -0.596296,0 -0.140548,-0.14054 0,-0.39753 0,-0.59629 0,-0.19877 0,-0.39753 0,-0.5963"
       id="path38" />
    <path
       style="font-variation-settings:normal;opacity:1;vector-effect:none;fill:none;fill-opacity:1;stroke:#0000ff;stroke-width:3;stroke-linecap:butt;stroke-linejoin:miter;stroke-miterlimit:4;stroke-dasharray:3, 3;stroke-dashoffset:0;stroke-opacity:1;-inkscape-stroke:none;stop-color:#000000;stop-opacity:1"
       d="M 280.25877,527.125 C 257.75725,598.86455 240.60042,672.27985 228.97738,746.56165 212.70277,850.57128 207.29729,956.2783 212.87741,1061.4055"
       id="path40"
       inkscape:path-effect="#path-effect41"
       inkscape:original-d="M 280.25877,527.125 C 258.19585,596.09648 251.0403,676.99387 228.97738,746.56165 206.91445,816.12942 214.07,955.06622 212.87741,1061.4055"
       transform="translate(7.7518382,5.3666572)"
       sodipodi:nodetypes="csc" />
  </g>
</svg>
